<svg xmlns="http://www.w3.org/2000/svg" width="27.603" height="27.608" viewBox="0 0 27.603 27.608"><defs><style>.a{fill:#fff;}</style></defs><g transform="translate(-1.003 -0.999)"><g transform="translate(1.003 0.999)"><path class="a" d="M18.089,28.607a1.318,1.318,0,0,1-1.177-.727l-3.9-7.806a1.32,1.32,0,0,1,.094-1.338L19.4,10.2l-8.533,6.3a1.318,1.318,0,0,1-1.336.094l-7.809-3.9a1.315,1.315,0,0,1,.133-2.407L26.837,1.081a1.314,1.314,0,0,1,1.688,1.688l-9.2,24.979a1.313,1.313,0,0,1-1.161.857Z" transform="translate(-1.003 -0.999)"/></g></g></svg>