<svg xmlns="http://www.w3.org/2000/svg" width="27.868" height="23.867" viewBox="0 0 27.868 23.867"><defs><style>.a{fill:#fff;}</style></defs><g transform="translate(0 -2)"><g transform="translate(0 2)"><path class="a" d="M25.172,18.015,20.827,16.13a1.259,1.259,0,0,1-.73-1.163v-1.1a5.088,5.088,0,0,0,2.322-4.327v-2.3A4.971,4.971,0,0,0,17.775,2,4.971,4.971,0,0,0,13.13,7.241v2.3a5.088,5.088,0,0,0,2.322,4.327v1.1a1.259,1.259,0,0,1-.73,1.166l-2.529,1.1,2.231.965a3.763,3.763,0,0,1,2.19,3.5v2.918a4,4,0,0,1-.214,1.256h8.342A1.211,1.211,0,0,0,25.9,24.611V19.18a1.259,1.259,0,0,0-.73-1.166Z" transform="translate(1.965 -2)"/><path class="a" d="M15.526,20.157l-4.345-1.9a1.271,1.271,0,0,1-.73-1.174V15.97A5.145,5.145,0,0,0,12.773,11.6V9.287A5,5,0,0,0,8.128,4,5,5,0,0,0,3.483,9.287V11.6A5.145,5.145,0,0,0,5.806,15.97v1.113a1.272,1.272,0,0,1-.73,1.176L.73,20.16A1.271,1.271,0,0,0,0,21.333v2.944a1.218,1.218,0,0,0,1.161,1.267H15.095a1.218,1.218,0,0,0,1.161-1.267V21.333a1.272,1.272,0,0,0-.73-1.176Z" transform="translate(0 -1.678)"/></g></g></svg>