<svg xmlns="http://www.w3.org/2000/svg" width="28" height="24.333" viewBox="0 0 28 24.333"><defs><style>.a{fill:none;stroke:#fff;stroke-linecap:round;stroke-linejoin:round;stroke-miterlimit:10;stroke-width:2px;}</style></defs><g transform="translate(0 -1.937)"><g transform="translate(1 2.999)"><path class="a" d="M20.072,25.27h4.857V19.922a1.237,1.237,0,0,0-.764-1.148l-4.544-1.856a1.237,1.237,0,0,1-.764-1.146V14.686a4.944,4.944,0,0,0,2.429-4.262V7.949a4.967,4.967,0,0,0-2.429-4.287,4.779,4.779,0,0,0-4.857,0" transform="translate(1.071 -2.999)"/><path class="a" d="M17.237,19.79l-4.544-1.858a1.239,1.239,0,0,1-.764-1.147V15.7a4.95,4.95,0,0,0,2.429-4.267V8.954A4.907,4.907,0,0,0,9.5,4,4.907,4.907,0,0,0,4.643,8.954v2.477A4.95,4.95,0,0,0,7.072,15.7v1.087a1.239,1.239,0,0,1-.764,1.149L1.764,19.793A1.239,1.239,0,0,0,1,20.94v4.116H18V20.94a1.239,1.239,0,0,0-.764-1.149Z" transform="translate(-1 -2.784)"/></g></g></svg>