<svg xmlns="http://www.w3.org/2000/svg" width="27.765" height="35.141" viewBox="0 0 27.765 35.141"><defs><style>.a{fill:#fff;}</style></defs><g transform="translate(-2.52)"><g transform="translate(2.52)"><path class="a" d="M20.187,13.821S21.818,4.185,15.139,0A11.794,11.794,0,0,1,10.69,8.538C7.834,11.049,2.463,16.692,2.52,22.71A13.815,13.815,0,0,0,10.1,35.141a8.749,8.749,0,0,1,3.062-6.05,7.141,7.141,0,0,0,2.737-4.8,12.864,12.864,0,0,1,6.811,10.721v.029a12.924,12.924,0,0,0,7.522-11.214c.474-5.656-2.624-13.342-5.371-15.854a14.923,14.923,0,0,1-4.678,5.848Z" transform="translate(-2.52)"/></g></g></svg>