<svg xmlns="http://www.w3.org/2000/svg" width="28.005" height="36.22" viewBox="0 0 28.005 36.22"><defs><style>.a{fill:none;stroke:#fff;stroke-linecap:round;stroke-linejoin:round;stroke-width:2px;}</style></defs><g transform="translate(1 1.742)"><g transform="translate(0)"><path class="a" d="M19.064,12.942S20.592,3.919,14.337,0a11.044,11.044,0,0,1-4.166,8C7.5,10.347,2.467,15.631,2.52,21.266a12.937,12.937,0,0,0,7.1,11.641,8.193,8.193,0,0,1,2.867-5.666,6.687,6.687,0,0,0,2.563-4.495,12.047,12.047,0,0,1,6.379,10.039v.027a12.1,12.1,0,0,0,7.044-10.5c.444-5.3-2.457-12.494-5.029-14.847A13.975,13.975,0,0,1,19.064,12.942Z" transform="translate(-2.52)"/></g></g></svg>