<svg xmlns="http://www.w3.org/2000/svg" width="28.073" height="26.998" viewBox="0 0 28.073 26.998"><defs><style>.a{fill:#fff;}</style></defs><g transform="translate(0 -1)"><g transform="translate(0 1)"><path class="a" d="M27.906,7.438,24.4,1.569a1.169,1.169,0,0,0-1-.569H4.679a1.169,1.169,0,0,0-1,.569L.167,7.438a1.177,1.177,0,0,0-.167.6,4.679,4.679,0,0,0,4.659,4.7h.009a4.639,4.639,0,0,0,3.128-1.2,4.639,4.639,0,0,0,6.237,0,4.639,4.639,0,0,0,6.243,0,4.668,4.668,0,0,0,7.8-3.492A1.177,1.177,0,0,0,27.906,7.438Z" transform="translate(0 -1)"/><path class="a" d="M22.881,13.109a6.994,6.994,0,0,1-3.13-.737l-.018.008a6.92,6.92,0,0,1-5.332.364,7.108,7.108,0,0,1-.888-.369l-.013.006a6.908,6.908,0,0,1-5.331.363,7.092,7.092,0,0,1-.887-.369,6.972,6.972,0,0,1-3.124.734A7.15,7.15,0,0,1,3,13V24.847a1.171,1.171,0,0,0,1.168,1.174h7.01V18.978h4.673v7.043h7.01a1.171,1.171,0,0,0,1.168-1.174V13a7.018,7.018,0,0,1-1.15.11Z" transform="translate(0.521 0.977)"/></g></g></svg>