<svg xmlns="http://www.w3.org/2000/svg" width="28" height="26.917" viewBox="0 0 28 26.917"><defs><style>.a,.b{fill:none;stroke:#fff;stroke-width:2px;}.b{stroke-linejoin:round;}</style></defs><g transform="translate(1 1)"><path class="a" d="M25.845,7.051,22.6,1.535A1.079,1.079,0,0,0,21.667,1H4.333a1.079,1.079,0,0,0-.928.535L.155,7.051A1.118,1.118,0,0,0,0,7.619a4.366,4.366,0,0,0,4.315,4.413h.009A4.262,4.262,0,0,0,7.22,10.9,4.25,4.25,0,0,0,13,10.9a4.25,4.25,0,0,0,5.782,0,4.265,4.265,0,0,0,4.659.752A4.408,4.408,0,0,0,26,7.619,1.118,1.118,0,0,0,25.845,7.051Z" transform="translate(0 -1)"/><path class="b" d="M21.331,10.906a4.173,4.173,0,0,1-2.3-.684h-.605a6.265,6.265,0,0,1-4.914.342,6.64,6.64,0,0,1-.83-.346v.006a6.254,6.254,0,0,1-4.913.341,6.466,6.466,0,0,1-.817-.346,6.323,6.323,0,0,1-2.879.689,6.465,6.465,0,0,1-1.067-.1L3,24.1a1.09,1.09,0,0,0,1.077,1.1h6.46V18.581h4.307V25.2H21.3a1.09,1.09,0,0,0,1.077-1.1l.01-13.294a6.347,6.347,0,0,1-1.06.1Z" transform="translate(0.309 -0.283)"/></g></svg>