<svg xmlns="http://www.w3.org/2000/svg" width="28" height="30.676" viewBox="0 0 28 30.676"><defs><style>.a,.b{fill:rgba(255,255,255,0);stroke:#fff;stroke-miterlimit:10;stroke-width:2px;}.b{stroke-linecap:square;}</style></defs><g transform="translate(1 -2.541)"><g transform="translate(0 3.541)"><path class="a" d="M11.9,26.7v.173a3.536,3.536,0,1,0,7.073,0V26.7" transform="translate(-2.436 -1.732)"/><path class="b" d="M24.959,14.589V10.61A9.836,9.836,0,0,0,15.4,1a9.922,9.922,0,0,0-9.559,9.707v3.883c0,4.368-3.441,5.145-3.441,7.571,0,2.233,5.066,3.98,13,3.98s13-1.747,13-3.98C28.4,19.734,24.959,18.957,24.959,14.589Z" transform="translate(-2.4 -1)"/></g></g></svg>