<svg xmlns="http://www.w3.org/2000/svg" width="27.655" height="30.165" viewBox="0 0 27.655 30.165"><defs><style>.a{fill:#fff;}</style></defs><g transform="translate(-35)"><g transform="translate(35)"><path class="a" d="M24.884,12.57V10.056a10.056,10.056,0,1,0-20.112,0V12.57a5.582,5.582,0,0,1-1.945,4.014A5.258,5.258,0,0,0,1,20.112c0,3.143,5.169,5.028,13.827,5.028s13.827-1.886,13.827-5.028a5.258,5.258,0,0,0-1.826-3.528,5.582,5.582,0,0,1-1.945-4.014Z" transform="translate(-1)"/><path class="a" d="M9.145,21.9a3.761,3.761,0,0,0,7.178,0c-1.124.083-2.318.126-3.589.126S10.269,21.985,9.145,21.9Z" transform="translate(1.094 5.629)"/></g></g></svg>