<svg xmlns="http://www.w3.org/2000/svg" width="28" height="28" viewBox="0 0 28 28"><defs><style>.a,.b{fill:none;stroke:#fff;stroke-miterlimit:10;stroke-width:2px;}.b{stroke-linecap:square;}</style></defs><g transform="translate(0 0.185)"><g transform="translate(1 0.95)"><path class="a" d="M19.821,21.387v-.874a3.52,3.52,0,0,0-1.774-3.057l-3.778-2.162" transform="translate(1.304 1.527)"/><path class="a" d="M10.548,15.292,6.774,17.456A3.52,3.52,0,0,0,5,20.513v.874" transform="translate(-0.306 1.527)"/><path class="b" d="M12.694,17.736h0A4.7,4.7,0,0,1,8,13.042V10.694A4.7,4.7,0,0,1,12.694,6h0a4.7,4.7,0,0,1,4.694,4.694v2.347A4.7,4.7,0,0,1,12.694,17.736Z" transform="translate(0.215 -0.086)"/><circle class="b" cx="13" cy="13" r="13" transform="translate(0 -0.135)"/></g></g></svg>