<svg xmlns="http://www.w3.org/2000/svg" width="28" height="28.001" viewBox="0 0 28 28.001"><defs><style>.a{fill:#fff;stroke:#fff;stroke-linecap:round;stroke-linejoin:round;stroke-miterlimit:10;stroke-width:2px;}</style></defs><path class="a" d="M5071,10696a13.028,13.028,0,0,1-8.287-2.982l.011-.019h.532a17.211,17.211,0,0,0,7.828,2.209,21.492,21.492,0,0,0,7.422-1.595A12.892,12.892,0,0,1,5071,10696Zm9.068-3.688h0a3.909,3.909,0,0,0-.381-2.252,9.519,9.519,0,0,0-1.7-1.52,3.929,3.929,0,0,0-.631-.6l-2.064-1.533a5.961,5.961,0,0,0,1.052-3.417v-2.855a5.312,5.312,0,1,0-10.595,0v2.855a5.984,5.984,0,0,0,.964,3.284l-2.239,1.669a3.747,3.747,0,0,0-.306.255,7.662,7.662,0,0,0-2.164,1.86,2.793,2.793,0,0,0-.3,2.021,13,13,0,1,1,18.372.23Z" transform="translate(-5057 -10668.999)"/></svg>