<svg xmlns="http://www.w3.org/2000/svg" x="0px" y="0px" viewBox="0 0 1000 1000" enable-background="new 0 0 1000 1000" xml:space="preserve">
    <g>
        <path d="M964.3,839.9L688,563.6c33.3-55.1,52.5-119.7,52.5-188.8C740.5,173.2,577,9.6,375.3,9.6C173.6,9.6,10,173.2,10,374.8c0,201.7,163.6,365.3,365.3,365.3c68.7,0,132.9-19,187.7-51.9l276.5,276.5c34.3,34.3,90.5,34.3,124.8,0C998.6,930.3,998.6,874.2,964.3,839.9z M933.2,933.6c-17.2,17.2-45.4,17.2-62.6,0l-53.9-53.9L759,822L599.9,662.9l-32-31.9c-53.6,40.4-120.3,64.4-192.7,64.4c-176.9,0-320.4-143.5-320.4-320.4c0-177,143.5-320.4,320.4-320.4c177,0,320.5,143.5,320.5,320.4c0,72.7-24.3,139.8-65.1,193.6l32,31.9l159,159l57.6,57.6l53.9,53.9C950.4,888.2,950.4,916.4,933.2,933.6z"/>
        <path d="M375.3,128.6c-136,0-246.3,110.3-246.3,246.3c0,136,110.3,246.3,246.3,246.3c136,0,246.3-110.3,246.3-246.3C621.6,238.8,511.3,128.6,375.3,128.6z M375.3,577.2c-111.7,0-202.3-90.6-202.3-202.3c0-111.7,90.6-202.3,202.3-202.3c111.7,0,202.3,90.6,202.3,202.3C577.6,486.6,487,577.2,375.3,577.2z"/>
    </g>
</svg>