<svg xmlns="http://www.w3.org/2000/svg"  x="0px" y="0px" viewBox="0 0 1000 1000" enable-background="new 0 0 1000 1000" xml:space="preserve">
    <g>
        <path d="M375,9.2c201.6,0,365,163.5,365,365c0,69.2-19.3,133.9-52.7,189l276.8,276.7v0c34.5,34.5,34.5,90.5,0,125c-34.5,34.5-90.5,34.5-125,0L562,687.8c-54.7,32.7-118.6,51.5-186.9,51.5c-201.6,0-365-163.5-365-365C10,172.6,173.5,9.2,375,9.2L375,9.2z M375,125.8L375,125.8c-137.1,0-248.3,111.2-248.3,248.4c0,137.1,111.2,248.3,248.3,248.3c137.2,0,248.4-111.2,248.4-248.3C623.4,237.1,512.2,125.8,375,125.8z"/>
    </g>
</svg>