<svg xmlns="http://www.w3.org/2000/svg" width="32.707" height="32.707" viewBox="0 0 32.707 32.707">
  <g id="Group_9088" data-name="Group 9088" transform="translate(-9.591 -611.554)">
    <g id="settings-gear-65" transform="translate(10.591 612.554)">
      <g id="Group_8610" data-name="Group 8610" transform="translate(0 0)">
        <path id="Path_6846" data-name="Path 6846" d="M31.707,16.354a2.791,2.791,0,0,0-2.792-2.792H27.154a11.121,11.121,0,0,0-1.189-2.873L27.21,9.445A2.791,2.791,0,0,0,23.263,5.5L22.018,6.742a11.121,11.121,0,0,0-2.873-1.189V3.792a2.792,2.792,0,0,0-5.583,0V5.553A11.121,11.121,0,0,0,10.69,6.742L9.445,5.5A2.791,2.791,0,0,0,5.5,9.445L6.742,10.69a11.121,11.121,0,0,0-1.189,2.873H3.792a2.792,2.792,0,0,0,0,5.583H5.553a11.121,11.121,0,0,0,1.189,2.873L5.5,23.263A2.791,2.791,0,0,0,9.445,27.21l1.245-1.245a11.1,11.1,0,0,0,2.873,1.189v1.761a2.792,2.792,0,0,0,5.583,0V27.154a11.121,11.121,0,0,0,2.873-1.189l1.245,1.245a2.791,2.791,0,0,0,3.947-3.947l-1.245-1.245a11.1,11.1,0,0,0,1.189-2.873h1.761A2.792,2.792,0,0,0,31.707,16.354Z" transform="translate(-1 -1)" fill="none" stroke="#07080a" stroke-linecap="square" stroke-miterlimit="10" stroke-width="2"/>
        <circle id="Ellipse_783" data-name="Ellipse 783" cx="4.314" cy="4.314" r="4.314" transform="translate(10.786 10.786)" fill="#fff" stroke="#07080a" stroke-linecap="square" stroke-miterlimit="10" stroke-width="2"/>
      </g>
    </g>
  </g>
</svg>