<svg xmlns="http://www.w3.org/2000/svg" width="27.734" height="27.734" viewBox="0 0 27.734 27.734"><defs><style>.a{fill:#fff;}</style></defs><path class="a" d="M25.423,11.556H24a10.334,10.334,0,0,0-1.336-3.218L23.672,7.33A2.311,2.311,0,1,0,20.4,4.062L19.4,5.07a10.334,10.334,0,0,0-3.218-1.336V2.311a2.311,2.311,0,0,0-4.622,0V3.734A10.335,10.335,0,0,0,8.338,5.07L7.33,4.062A2.311,2.311,0,1,0,4.062,7.33L5.07,8.338a10.335,10.335,0,0,0-1.336,3.218H2.311a2.311,2.311,0,0,0,0,4.622H3.734A10.334,10.334,0,0,0,5.07,19.4L4.062,20.4A2.311,2.311,0,1,0,7.33,23.673l1.007-1.008A10.335,10.335,0,0,0,11.556,24v1.423a2.311,2.311,0,1,0,4.622,0V24A10.334,10.334,0,0,0,19.4,22.665L20.4,23.672A2.311,2.311,0,1,0,23.673,20.4L22.665,19.4A10.334,10.334,0,0,0,24,16.178h1.423a2.311,2.311,0,1,0,0-4.622ZM13.867,18.49a4.622,4.622,0,1,1,4.622-4.622A4.622,4.622,0,0,1,13.867,18.49Z"/></svg>