<svg xmlns="http://www.w3.org/2000/svg" width="28.262" height="22.15" viewBox="0 0 28.262 22.15"><defs><style>.a{fill:#fff;}</style></defs><g transform="translate(-146.142 -3.035)"><g transform="translate(0 4)"><path class="a" d="M20.092,7.9c-2.024-2.986-3.264-5.032-7.533-4.855-5.628,1.1-6.77,5.612-7.27,8.777C2.977,12.731.142,14.582.142,18.806c.028,2.832,3.078,6.38,6.985,6.38H22.471c3.258,0,5.933-4.363,5.933-8.136A9.581,9.581,0,0,0,20.092,7.9Zm-3.5,10.066v7.218H12.9V17.968s-2.232,3.358-3.65,1.748c-1.3-.94.038-2.514,1.9-4.361,1.289-1.279,2.907-3.178,3.439-3.208.552.008,2.082,1.621,3.64,3.208,1.475,1.5,3.255,3.217,1.67,4.361C18.455,21.089,16.59,17.968,16.59,17.968Z" transform="translate(146 -4)"/></g></g></svg>