<svg xmlns="http://www.w3.org/2000/svg" width="28" height="28" viewBox="0 0 28 28"><defs><style>.a{fill:none;stroke:#fff;stroke-linecap:round;stroke-linejoin:round;stroke-miterlimit:10;stroke-width:2px;}</style></defs><g transform="translate(1 1)"><path class="a" d="M24.559,13.286V5.356H3.356A2.355,2.355,0,0,1,1,3V23.025a3.534,3.534,0,0,0,3.534,3.534H24.559V18.438" transform="translate(-1 -0.559)"/><path class="a" d="M20.529,2.221V1H3.441A2.44,2.44,0,0,0,1,3.441H1A2.44,2.44,0,0,0,3.441,5.882" transform="translate(-1 -1)"/><path class="a" d="M24.544,16.882h-6.1A2.44,2.44,0,0,1,16,14.441h0A2.44,2.44,0,0,1,18.441,12h6.1Z" transform="translate(1.456 0.905)"/></g></svg>