<svg xmlns="http://www.w3.org/2000/svg" width="28.195" height="28.353" viewBox="0 0 28.195 28.353"><defs><style>.a{fill:#fff;}</style></defs><path class="a" d="M25.558,4.725H3.272A1.141,1.141,0,0,1,2.181,3.544,1.141,1.141,0,0,1,3.272,2.363H19.633v.479a1.161,1.161,0,0,0,1.091.786,1.1,1.1,0,0,0,1.091-.786V1.181A1.139,1.139,0,0,0,20.724,0H3.272A3.416,3.416,0,0,0,0,3.544V23.627a4.555,4.555,0,0,0,4.363,4.725H25.087a1.139,1.139,0,0,0,1.091-1.181V5.907C26.177,5.255,26.16,4.725,25.558,4.725ZM19.633,18.9a2.277,2.277,0,0,1-2.181-2.363,2.277,2.277,0,0,1,2.181-2.363h6.548v-.753l1.564.014a.73.73,0,0,1,.36.231c.112.163.088.2.088.422v5.08a.727.727,0,0,1-.088.426.478.478,0,0,1-.36.113l-1.564,0V18.9Z"/></svg>