<svg xmlns="http://www.w3.org/2000/svg" width="45" height="45" viewBox="0 0 45 45">
  <g id="Group_9060" data-name="Group 9060" transform="translate(-1 -1)">
    <path id="Path_7804" data-name="Path 7804" d="M22,27c6.195,0,11-6.988,11-13V12a11,11,0,0,0-22,0v2C11,20.012,15.805,27,22,27Z" fill="none"/>
    <path id="Path_7805" data-name="Path 7805" d="M37,28a9,9,0,1,0,9,9A9,9,0,0,0,37,28Zm4,10H38v3a1,1,0,0,1-2,0V38H33a1,1,0,0,1,0-2h3V33a1,1,0,0,1,2,0v3h3a1,1,0,0,1,0,2Z" fill="none"/>
    <path id="Path_7806" data-name="Path 7806" d="M26,37a10.938,10.938,0,0,1,2.24-6.634A54.177,54.177,0,0,0,6.722,32.185,7.952,7.952,0,0,0,1,39.856V44a1,1,0,0,0,1,1H29.466A10.959,10.959,0,0,1,26,37Z" fill="none"/>

  </g>
</svg>
