<svg xmlns="http://www.w3.org/2000/svg" width="28.076" height="28.076" viewBox="0 0 28.076 28.076"><g transform="translate(0 0)"><path d="M27.819,7.967,20.11.257A.877.877,0,0,0,19.489,0H8.587a.877.877,0,0,0-.62.257L.257,7.967A.877.877,0,0,0,0,8.587v10.9a.877.877,0,0,0,.257.62l7.71,7.71a.877.877,0,0,0,.62.257h10.9a.877.877,0,0,0,.62-.257l7.71-7.71a.877.877,0,0,0,.257-.62V8.587a.877.877,0,0,0-.257-.62ZM15.731,6.142,14.915,16.67H13.161L12.346,6.142ZM14.038,21.935a1.755,1.755,0,1,1,1.755-1.755A1.755,1.755,0,0,1,14.038,21.935Z" transform="translate(0 0)" fill="#fff"/></g></svg>