<svg xmlns="http://www.w3.org/2000/svg" width="22" height="22" viewBox="0 0 22 22">
  <g id="Group_7407" data-name="Group 7407" transform="translate(-62 -413)">
    <rect id="Rectangle_731" data-name="Rectangle 731" width="22" height="22" transform="translate(62 413)" fill="none"/>
    <path id="_" data-name="" d="M28.86,20.747a3.879,3.879,0,0,0,2.7-1.465,4.758,4.758,0,0,0,1.053-2.877A2,2,0,0,0,32.578,16a4.395,4.395,0,0,0-2.931,1.569,4.51,4.51,0,0,0-1.091,2.785,1.848,1.848,0,0,0,.038.366A1.416,1.416,0,0,0,28.86,20.747ZM25.689,36.569c1.231,0,1.776-.85,3.311-.85,1.56,0,1.9.824,3.273.824,1.345,0,2.246-1.281,3.1-2.537a11.7,11.7,0,0,0,1.37-2.916,4.5,4.5,0,0,1-2.664-4.158,4.68,4.68,0,0,1,2.144-3.923,4.639,4.639,0,0,0-3.946-2.04c-1.51,0-2.74.941-3.514.941-.837,0-1.941-.889-3.248-.889-2.487,0-5.011,2.118-5.011,6.12a12.92,12.92,0,0,0,2.093,6.813C23.583,35.392,24.446,36.569,25.689,36.569Z" transform="translate(44.525 397.684)" fill="#fff"/>
  </g>
</svg>
