<svg xmlns="http://www.w3.org/2000/svg" width="142.242" height="46.143" viewBox="0 0 142.242 46.143"><g transform="translate(0 0)"><g transform="translate(0 0)"><path d="M10.007,47.015c-.368,0-.726,0-1.091-.013a15.306,15.306,0,0,1-2.255-.2,7.1,7.1,0,0,1-2-.661,6.521,6.521,0,0,1-1.685-1.226,6.419,6.419,0,0,1-1.231-1.685,6.9,6.9,0,0,1-.655-2,14.974,14.974,0,0,1-.2-2.262c-.008-.254-.018-1.1-.018-1.1V10.006s.011-.834.018-1.079a14.922,14.922,0,0,1,.2-2.258,6.943,6.943,0,0,1,.656-2A6.482,6.482,0,0,1,2.971,2.977,6.713,6.713,0,0,1,4.662,1.744a7.024,7.024,0,0,1,1.994-.656A15.182,15.182,0,0,1,8.919.89L10.007.875H133.975l1.1.015a14.94,14.94,0,0,1,2.242.2,7.164,7.164,0,0,1,2.016.661,6.748,6.748,0,0,1,2.913,2.919,6.951,6.951,0,0,1,.646,1.989,15.672,15.672,0,0,1,.21,2.277c0,.342,0,.709,0,1.074.009.452.009.883.009,1.317V36.569c0,.438,0,.866-.009,1.3,0,.392,0,.752,0,1.121a15.354,15.354,0,0,1-.206,2.236,6.923,6.923,0,0,1-.651,2.014,6.611,6.611,0,0,1-1.225,1.672,6.53,6.53,0,0,1-1.688,1.233,7.071,7.071,0,0,1-2.012.663,15.13,15.13,0,0,1-2.255.2c-.353.008-.723.013-1.083.013l-1.308,0Z" transform="translate(-0.873 -0.875)"/></g><g transform="translate(10.975 9.464)"><path d="M27.821,21.606A5.97,5.97,0,0,1,30.664,16.6a6.111,6.111,0,0,0-4.814-2.6c-2.026-.213-3.989,1.212-5.022,1.212-1.052,0-2.641-1.191-4.353-1.156a6.412,6.412,0,0,0-5.4,3.291c-2.333,4.039-.593,9.975,1.642,13.24,1.118,1.6,2.425,3.385,4.135,3.321,1.673-.069,2.3-1.067,4.318-1.067,2,0,2.587,1.067,4.332,1.027,1.8-.029,2.927-1.606,4.005-3.22a13.223,13.223,0,0,0,1.832-3.73A5.769,5.769,0,0,1,27.821,21.606Z" transform="translate(-9.972 -7.637)" fill="#fff"/><path d="M22.707,12.931A5.878,5.878,0,0,0,24.051,8.72a5.98,5.98,0,0,0-3.869,2,5.593,5.593,0,0,0-1.38,4.055A4.945,4.945,0,0,0,22.707,12.931Z" transform="translate(-8.152 -8.72)" fill="#fff"/><g transform="translate(29.5 11.038)"><path d="M43.927,29.009h-5.71l-1.371,4.049H34.427l5.408-14.98h2.513l5.408,14.98H45.3Zm-5.118-1.868h4.526L41.1,20.57h-.062Z" transform="translate(-34.427 -17.828)" fill="#fff"/><path d="M56.919,26.924c0,3.394-1.816,5.574-4.558,5.574a3.7,3.7,0,0,1-3.436-1.911h-.052V36H46.631V21.462H48.8v1.816h.041a3.874,3.874,0,0,1,3.477-1.931C55.092,21.348,56.919,23.539,56.919,26.924Zm-2.3,0c0-2.211-1.143-3.665-2.886-3.665-1.713,0-2.865,1.484-2.865,3.665,0,2.2,1.152,3.674,2.865,3.674C53.472,30.6,54.615,29.155,54.615,26.924Z" transform="translate(-31.91 -17.154)" fill="#fff"/><path d="M66.884,26.924c0,3.394-1.816,5.574-4.558,5.574a3.7,3.7,0,0,1-3.436-1.911h-.052V36H56.6V21.462h2.17v1.816h.041a3.874,3.874,0,0,1,3.477-1.931C65.057,21.348,66.884,23.539,66.884,26.924Zm-2.3,0c0-2.211-1.143-3.665-2.886-3.665-1.713,0-2.865,1.484-2.865,3.665,0,2.2,1.152,3.674,2.865,3.674,1.743,0,2.886-1.443,2.886-3.674Z" transform="translate(-29.854 -17.154)" fill="#fff"/><path d="M72.1,28.927c.166,1.485,1.609,2.461,3.581,2.461,1.89,0,3.249-.975,3.249-2.315,0-1.163-.82-1.859-2.761-2.336l-1.941-.468C71.48,25.6,70.2,24.318,70.2,22.231c0-2.585,2.252-4.36,5.451-4.36,3.165,0,5.335,1.775,5.408,4.36H78.8c-.135-1.495-1.371-2.4-3.177-2.4s-3.042.913-3.042,2.242c0,1.059.789,1.682,2.72,2.159l1.65.405c3.073.727,4.35,1.961,4.35,4.152,0,2.8-2.232,4.558-5.783,4.558-3.322,0-5.565-1.714-5.71-4.423Z" transform="translate(-27.129 -17.871)" fill="#fff"/><path d="M84,19.3v2.585H86.08V23.66H84V29.68c0,.935.416,1.371,1.329,1.371A7.006,7.006,0,0,0,86.069,31v1.765a6.156,6.156,0,0,1-1.245.1c-2.211,0-3.073-.831-3.073-2.949V23.66H80.163V21.884h1.588V19.3Z" transform="translate(-24.993 -17.576)" fill="#fff"/><path d="M86.065,26.927c0-3.436,2.024-5.6,5.18-5.6s5.181,2.159,5.181,5.6-2,5.6-5.181,5.6S86.065,30.372,86.065,26.927Zm8.076,0c0-2.357-1.08-3.748-2.9-3.748s-2.9,1.4-2.9,3.748c0,2.367,1.079,3.747,2.9,3.747s2.9-1.381,2.9-3.747Z" transform="translate(-23.775 -17.157)" fill="#fff"/><path d="M96.186,21.462h2.138v1.859h.052A2.6,2.6,0,0,1,101,21.348a3.457,3.457,0,0,1,.768.084v2.1a3.134,3.134,0,0,0-1.007-.135,2.259,2.259,0,0,0-2.336,2.513v6.478H96.186Z" transform="translate(-21.688 -17.154)" fill="#fff"/><path d="M111.069,29.179c-.3,1.983-2.232,3.343-4.7,3.343-3.177,0-5.149-2.129-5.149-5.544s1.983-5.647,5.055-5.647c3.022,0,4.922,2.076,4.922,5.387v.768H103.48v.135a2.844,2.844,0,0,0,2.938,3.093,2.471,2.471,0,0,0,2.522-1.536Zm-7.578-3.26h5.46a2.626,2.626,0,0,0-2.679-2.772,2.765,2.765,0,0,0-2.781,2.772Z" transform="translate(-20.65 -17.157)" fill="#fff"/></g></g></g><g transform="translate(41.976 9.122)"><path d="M38.271,8.732a3.184,3.184,0,0,1,3.387,3.576c0,2.3-1.243,3.621-3.387,3.621h-2.6v-7.2Zm-1.482,6.18h1.357a2.263,2.263,0,0,0,2.374-2.589A2.269,2.269,0,0,0,38.146,9.75H36.789Z" transform="translate(-35.671 -8.378)" fill="#fff"/><path d="M41.683,12.926a2.573,2.573,0,1,1,5.123,0,2.574,2.574,0,1,1-5.123,0Zm4.021,0c0-1.177-.529-1.866-1.457-1.866s-1.456.689-1.456,1.866.524,1.87,1.456,1.87,1.457-.688,1.457-1.87Z" transform="translate(-34.433 -8.092)" fill="#fff"/><path d="M52.605,15.627H51.493l-1.123-4h-.085l-1.118,4h-1.1l-1.5-5.432h1.087l.973,4.145h.08l1.117-4.145h1.028l1.117,4.145h.085l.968-4.145H54.1Z" transform="translate(-33.423 -8.074)" fill="#fff"/><path d="M53.854,10.214h1.032v.863h.08a1.626,1.626,0,0,1,1.621-.968,1.767,1.767,0,0,1,1.88,2.02v3.516H57.395V12.4c0-.873-.379-1.307-1.172-1.307a1.246,1.246,0,0,0-1.3,1.377v3.178H53.854Z" transform="translate(-31.92 -8.093)" fill="#fff"/><path d="M59.094,8.437h1.072v7.552H59.094Z" transform="translate(-30.839 -8.437)" fill="#fff"/><path d="M61.22,12.926a2.574,2.574,0,1,1,5.124,0,2.574,2.574,0,1,1-5.124,0Zm4.021,0c0-1.177-.529-1.866-1.457-1.866s-1.456.689-1.456,1.866.524,1.87,1.456,1.87,1.457-.688,1.457-1.87Z" transform="translate(-30.403 -8.092)" fill="#fff"/><path d="M66.4,14.108c0-.978.728-1.541,2.02-1.622l1.471-.085v-.469c0-.574-.379-.9-1.112-.9-.6,0-1.013.22-1.132.6H66.611c.11-.933.987-1.531,2.219-1.531,1.362,0,2.13.678,2.13,1.825v3.711H69.928v-.763h-.085a1.828,1.828,0,0,1-1.632.853A1.641,1.641,0,0,1,66.4,14.108Zm3.492-.464V13.19l-1.326.085c-.748.05-1.087.3-1.087.783s.424.773,1.007.773a1.28,1.28,0,0,0,1.407-1.187Z" transform="translate(-29.332 -8.092)" fill="#fff"/><path d="M71.348,13.271c0-1.716.882-2.8,2.255-2.8a1.79,1.79,0,0,1,1.666.953h.08V8.437h1.072v7.552H75.393v-.858h-.085a1.885,1.885,0,0,1-1.706.948C72.221,16.079,71.348,14.991,71.348,13.271Zm1.107,0c0,1.152.543,1.845,1.451,1.845s1.462-.7,1.462-1.841S74.8,11.43,73.907,11.43s-1.451.7-1.451,1.841Z" transform="translate(-28.311 -8.437)" fill="#fff"/><path d="M79.232,12.926a2.573,2.573,0,1,1,5.123,0,2.574,2.574,0,1,1-5.123,0Zm4.021,0c0-1.177-.529-1.866-1.457-1.866s-1.456.689-1.456,1.866.524,1.87,1.456,1.87S83.253,14.108,83.253,12.926Z" transform="translate(-26.688 -8.092)" fill="#fff"/><path d="M84.669,10.214H85.7v.863h.08a1.626,1.626,0,0,1,1.621-.968,1.767,1.767,0,0,1,1.88,2.02v3.516H88.211V12.4c0-.873-.379-1.307-1.172-1.307a1.246,1.246,0,0,0-1.3,1.377v3.178H84.669Z" transform="translate(-25.563 -8.093)" fill="#fff"/><path d="M93.846,9.074v1.377h1.177v.9H93.846v2.793c0,.569.234.818.768.818a3.58,3.58,0,0,0,.409-.025v.893a3.517,3.517,0,0,1-.583.055c-1.192,0-1.667-.419-1.667-1.467V11.354h-.862v-.9h.862V9.074Z" transform="translate(-24.07 -8.306)" fill="#fff"/><path d="M95.7,8.437h1.063V11.43h.085a1.671,1.671,0,0,1,1.656-.973,1.789,1.789,0,0,1,1.871,2.025v3.507H99.306V12.747c0-.868-.4-1.307-1.162-1.307a1.269,1.269,0,0,0-1.368,1.377v3.172H95.7Z" transform="translate(-23.287 -8.437)" fill="#fff"/><path d="M105.6,14.178a2.205,2.205,0,0,1-2.354,1.571,2.467,2.467,0,0,1-2.509-2.8,2.505,2.505,0,0,1,2.5-2.838c1.511,0,2.423,1.033,2.423,2.738v.374h-3.836v.06a1.436,1.436,0,0,0,1.447,1.556,1.3,1.3,0,0,0,1.292-.659Zm-3.771-1.751h2.744a1.311,1.311,0,0,0-1.337-1.407,1.389,1.389,0,0,0-1.406,1.407Z" transform="translate(-22.254 -8.092)" fill="#fff"/></g></svg>