<svg xmlns="http://www.w3.org/2000/svg" width="30" height="30" viewBox="0 0 30 30"><g transform="translate(0 -0.706)"><circle cx="15" cy="15" r="15" transform="translate(0 0.706)" fill="#3c3c3c"/><g transform="translate(8.834 7.666)"><g transform="translate(0 0)"><path d="M14.744,30H10.372A4.372,4.372,0,0,0,6,34.372V35.1a23.662,23.662,0,0,0,6.558.729,23.662,23.662,0,0,0,6.558-.729v-.729A4.372,4.372,0,0,0,14.744,30Z" transform="translate(-6 -19.798)" fill="none" stroke="#fff" stroke-linecap="round" stroke-linejoin="round" stroke-miterlimit="10" stroke-width="2"/><path d="M14,5.643a3.643,3.643,0,1,1,7.287,0c0,2.012-1.631,4.372-3.643,4.372S14,7.656,14,5.643Z" transform="translate(-11.085 -2)" fill="none" stroke="#fff" stroke-linecap="round" stroke-linejoin="round" stroke-miterlimit="10" stroke-width="2"/></g></g></g></svg>