<svg xmlns="http://www.w3.org/2000/svg" xmlns:xlink="http://www.w3.org/1999/xlink" width="39.56" height="34.604" viewBox="0 0 39.56 34.604"><defs><linearGradient id="a" x1="0.41" y1="0.308" x2="0.52" y2="0.616" gradientUnits="objectBoundingBox"><stop offset="0" stop-color="#fff"/><stop offset="1" stop-color="#b4b4b4"/></linearGradient><linearGradient id="c" x1="0.522" y1="0.239" x2="0.609" y2="0.549" xlink:href="#a"/><linearGradient id="d" x1="0.539" y1="0.297" x2="0.607" y2="0.565" xlink:href="#a"/></defs><g transform="translate(0 0)"><g transform="translate(21.582 24.579)"><g transform="translate(1.69 0)"><path d="M-6.353-8.319l8.5-4.013a3.227,3.227,0,0,1,1.583-.607A3.045,3.045,0,0,1,6.79-11.36,3.033,3.033,0,0,1,6.776-8.4,3.384,3.384,0,0,1,5.091-7.013L-3.482-2.931Z" transform="translate(6.353 12.955)" fill="url(#a)"/></g><ellipse cx="3.119" cy="2.495" rx="3.119" ry="2.495" transform="translate(0 4.803)" fill="#e2e2e2"/></g><g transform="translate(5.364 24.579)"><g transform="translate(1.3 0)"><path d="M-6.353-8.319l8.5-4.013a3.227,3.227,0,0,1,1.583-.607A3.045,3.045,0,0,1,6.79-11.36,3.033,3.033,0,0,1,6.776-8.4,3.384,3.384,0,0,1,5.091-7.013L-3.482-2.931Z" transform="translate(6.353 12.955)" fill="url(#a)"/></g><ellipse cx="3.119" cy="2.495" rx="3.119" ry="2.495" transform="translate(0 4.803)" fill="#e2e2e2"/></g><g transform="translate(26.129 8.169)"><path d="M.592-5.079-3.234,7.629a1.625,1.625,0,0,1-.291.5,2.382,2.382,0,0,1-.669.411c-1.581.755-8.582,4.106-8.582,4.106L-8.327-.662Z" transform="translate(12.776 5.079)" fill="#b4b4b4"/></g><path d="M6.164-1.246h5.274s.619.143.8.426a1.376,1.376,0,0,1,.309.67l.707,5.3,22.419,0L26.815,9.409,4.371,9.4,3.646,4.044,2.52,3.007-2.707,3Z" transform="translate(2.708 1.248)" fill="#fff"/><path d="M-1.524,7,7.351,2.8,8.044,8-.824,12.262Z" transform="translate(7.917 -1.603)" fill="#b4b4b4"/><path d="M-6.166,4.726,2.678.479a1.5,1.5,0,0,1,1.013.579A1.749,1.749,0,0,1,3.8,2.244L-5.117,6.659Z" transform="translate(35.704 5.923)" fill="url(#c)"/><path d="M-5.414,5.451,3.443,1.206a1.487,1.487,0,0,1,.8.409,1.524,1.524,0,0,1,.333.79L-4.3,6.6Z" transform="translate(10.697 -1.206)" fill="url(#d)"/><path d="M25.6,21.761H7.68A1.28,1.28,0,0,1,6.412,20.65L4,2.56H0V0H5.12A1.28,1.28,0,0,1,6.389,1.111L7.094,6.4H29.442a1.281,1.281,0,0,1,1.226,1.647l-3.84,12.8A1.282,1.282,0,0,1,25.6,21.761Z" transform="translate(0 4.249)" fill="#ededed"/></g></svg>