<svg xmlns="http://www.w3.org/2000/svg" width="26.988" height="26.988" viewBox="0 0 26.988 26.988">
  <g id="Group_8545" data-name="Group 8545" transform="translate(-219 50.104)">
    <g id="Path_6825" data-name="Path 6825" transform="translate(219 -50.104)" fill="#396c5d">
      <path d="M 13.494140625 25.98828125 C 10.15683078765869 25.98828125 7.019280433654785 24.68866157531738 4.659450531005859 22.32883071899414 C 2.299620628356934 19.9689998626709 1.000000596046448 16.83145141601562 1.000000596046448 13.494140625 C 1.000000596046448 10.15683078765869 2.299620628356934 7.019280433654785 4.659450531005859 4.659450531005859 C 7.019280433654785 2.299620628356934 10.15683078765869 1.000000596046448 13.494140625 1.000000596046448 C 16.83145141601562 1.000000596046448 19.9689998626709 2.299620628356934 22.32883071899414 4.659450531005859 C 24.68866157531738 7.019280433654785 25.98828125 10.15683078765869 25.98828125 13.494140625 C 25.98828125 16.83145141601562 24.68866157531738 19.9689998626709 22.32883071899414 22.32883071899414 C 19.9689998626709 24.68866157531738 16.83145141601562 25.98828125 13.494140625 25.98828125 Z" stroke="none"/>
      <path d="M 13.494140625 2 C 10.42394065856934 2 7.537509918212891 3.195600509643555 5.366550445556641 5.366550445556641 C 3.195600509643555 7.537509918212891 2 10.42394065856934 2 13.494140625 C 2 16.56434059143066 3.195600509643555 19.45077133178711 5.366550445556641 21.62173080444336 C 7.537509918212891 23.79268074035645 10.42394065856934 24.98828125 13.494140625 24.98828125 C 16.56434059143066 24.98828125 19.45077133178711 23.79268074035645 21.62173080444336 21.62173080444336 C 23.79268074035645 19.45077133178711 24.98828125 16.56434059143066 24.98828125 13.494140625 C 24.98828125 10.42394065856934 23.79268074035645 7.537509918212891 21.62173080444336 5.366550445556641 C 19.45077133178711 3.195600509643555 16.56434059143066 2 13.494140625 2 M 13.494140625 0 C 20.94675064086914 0 26.98828125 6.041530609130859 26.98828125 13.494140625 C 26.98828125 20.94675064086914 20.94675064086914 26.98828125 13.494140625 26.98828125 C 6.041530609130859 26.98828125 0 20.94675064086914 0 13.494140625 C 0 6.041530609130859 6.041530609130859 0 13.494140625 0 Z" stroke="none" fill="#52ba88"/>
    </g>
    <g id="Group_8509" data-name="Group 8509" transform="translate(223.841 -42.335)">
      <path id="Path_1355" data-name="Path 1355" d="M0,9.342,1.65,7.624l3.3,2.474A22.612,22.612,0,0,1,15.671,3.5L16.5,5.15S8.605,8.435,4.811,15.528Z" transform="translate(0 -3.5)" fill="#fff"/>
    </g>
  </g>
</svg>
