<svg xmlns="http://www.w3.org/2000/svg" width="317.157" height="263.731" viewBox="0 0 317.157 263.731"><g transform="translate(-331.872 -534.284)"><g transform="translate(331.872 534.284)"><g transform="translate(71.407 1.881)"><g transform="translate(0)"><path d="M244.6,1s2.579,166.082,0,168.42-9.126,0-50.959,0c0,0,1.58,57.935,0,59.443S112.11,169.42,112.11,169.42H0V1Z" transform="translate(0 -1)" fill="#b4b4b4"/></g></g><path d="M62.166,1.927C70.175-.691,303.7-.7,306.482,1.894s-69.711,33.829-69.711,33.829L-8,35.884S54.157,4.545,62.166,1.927Z" transform="translate(9.521 0.045)" fill="#fff"/><path d="M92.249,24.872,21.924,58.709V-1.051H57.253Z" transform="translate(172.874 204.874)" fill="#b4b4b4"/><path d="M88.144-1.009,17.972,33.045V-1.009Z" transform="translate(227.973 171.213)" fill="#b4b4b4"/><g transform="translate(0 33.596)"><g transform="translate(0 0)"><path d="M245.943,3c2.593,2.448,2.1,167.194,0,168.42s-50.959,0-50.959,0,2.57,58.641,0,59.442-77.514-56.741-81.534-59.442-110.622,2.522-112.11,0S-1.111,6.536,1.339,3,243.35.549,245.943,3Z" transform="translate(0.159 -0.734)" fill="#ededed"/></g></g></g></g></svg>