<svg xmlns="http://www.w3.org/2000/svg" width="184" height="170.291" viewBox="0 0 184 170.291">
  <g id="Layer_1" transform="translate(-36.48 -60.06)">
    <g id="Group_9087" data-name="Group 9087" transform="translate(36.48 60.06)">
      <path id="Path_6988" data-name="Path 6988" d="M36.54,112.992l45.447-36.42L107.616,60.06l42.836.055L173.3,76.479,220.514,113.3,129.3,230.351Z" transform="translate(-36.514 -60.06)" fill="#f0f0ff"/>
      <path id="Path_6989" data-name="Path 6989" d="M156.33,257.779l83.576-.209-41.869,86.149Z" transform="translate(-105.272 -173.428)" fill="#c0a9f7" opacity="0.83"/>
      <path id="Path_6990" data-name="Path 6990" d="M176.934,135.33l42.048.013,21.245,52.063-83.337.209Z" transform="translate(-105.594 -103.264)" fill="#cbc5f9" opacity="0.71"/>
      <path id="Path_6991" data-name="Path 6991" d="M325.986,98.64,302.64,114.283l21.245,52.063,49.337-30.9Z" transform="translate(-189.252 -82.204)" fill="#c6b7f8" opacity="0.85"/>
      <path id="Path_6992" data-name="Path 6992" d="M87.738,166.7,36.48,135.24,81.927,98.82l25.906,15.55Z" transform="translate(-36.48 -82.308)" fill="#e5e1ff" opacity="0.71"/>
      <path id="Path_6993" data-name="Path 6993" d="M296.1,215.939l49.337-30.9L254.23,302.088Z" transform="translate(-161.465 -131.797)" fill="#8f6bdb" opacity="0.84"/>
      <path id="Path_6994" data-name="Path 6994" d="M36.48,184.31l51.245,31.444,41.519,85.914Z" transform="translate(-36.48 -131.378)" fill="#d4c9f7" opacity="0.83"/>
    </g>
  </g>
</svg>
