<svg id="Group_931" data-name="Group 931" xmlns="http://www.w3.org/2000/svg" width="22.077" height="22.077" viewBox="0 0 22.077 22.077">
  <path id="Path_1503" data-name="Path 1503" d="M37.83,26.8A11.038,11.038,0,1,0,48.868,37.837,11.051,11.051,0,0,0,37.83,26.8Zm0,20.346a9.307,9.307,0,1,1,9.308-9.307A9.318,9.318,0,0,1,37.83,47.144Z" transform="translate(-26.791 -26.798)" fill="#999"/>
  <path id="Path_1505" data-name="Path 1505" d="M249.186,457.362h-8.143a.649.649,0,0,0-.649.649,4.721,4.721,0,1,0,9.442,0A.649.649,0,0,0,249.186,457.362Zm-4.072,4.072a3.428,3.428,0,0,1-3.361-2.773h6.721A3.428,3.428,0,0,1,245.115,461.434Z" transform="translate(-234.076 -444.627)" fill="#999"/>
  <path id="Path_1506" data-name="Path 1506" d="M162.406,224.139l1.88-2.813.184-.276a1.692,1.692,0,0,0-2.813-1.88l-.184.276-.276-.184a1.692,1.692,0,0,0-1.88,2.813l.276.184h0Z" transform="translate(-154.667 -212.751)" fill="#999"/>
  <path id="Path_1507" data-name="Path 1507" d="M438.04,219.729a1.692,1.692,0,0,0-2.347-.467l-.276.184-.184-.276a1.692,1.692,0,0,0-2.813,1.88l.184.276,1.88,2.813,2.813-1.88.276-.184A1.692,1.692,0,0,0,438.04,219.729Z" transform="translate(-420.145 -212.751)" fill="#999"/>
</svg>
