<?xml version="1.0" standalone="no"?>
<!DOCTYPE svg PUBLIC "-//W3C//DTD SVG 20010904//EN"
 "http://www.w3.org/TR/2001/REC-SVG-20010904/DTD/svg10.dtd">
<svg version="1.0" xmlns="http://www.w3.org/2000/svg"
 width="980.000000pt" height="980.000000pt" viewBox="0 0 980.000000 980.000000"
 preserveAspectRatio="xMidYMid meet">

<g transform="translate(0.000000,980.000000) scale(0.100000,-0.100000)"
fill="none" stroke="none" stroke-width="2">
<path d="M4455 9790 c-156 -11 -256 -25 -440 -61 -1514 -296 -2808 -1264
-3489 -2609 -264 -520 -426 -1057 -490 -1620 -41 -359 -45 -818 -11 -1140 149
-1399 936 -2711 2105 -3509 573 -391 1281 -682 1935 -796 357 -62 1125 -72
1548 -19 196 24 496 92 727 165 795 251 1493 677 2070 1266 631 642 1056 1409
1279 2308 92 371 118 680 108 1275 -10 550 -43 777 -183 1240 -200 658 -499
1221 -929 1742 -133 162 -459 490 -615 619 -565 469 -1194 798 -1885 988 -287
78 -503 117 -800 141 -174 14 -780 21 -930 10z m671 -691 c625 -36 1138 -174
1679 -449 867 -442 1511 -1113 1931 -2015 144 -308 262 -678 314 -984 69 -403
78 -932 24 -1351 -104 -804 -511 -1647 -1104 -2285 -574 -619 -1438 -1096
-2270 -1254 -445 -84 -1074 -88 -1525 -10 -982 170 -1915 726 -2551 1518 -430
535 -733 1200 -858 1881 -52 287 -61 392 -61 750 1 361 14 508 71 800 342
1737 1703 3060 3447 3350 320 53 593 68 903 49z"/>
<path d="M3124 6431 c-220 -35 -431 -185 -522 -371 -55 -112 -74 -192 -74
-310 0 -218 94 -417 262 -555 135 -111 266 -151 469 -143 188 8 299 53 433
176 144 134 219 312 220 522 0 202 -68 359 -216 497 -80 75 -176 130 -277 160
-87 25 -219 36 -295 24z"/>
<path d="M6520 6429 c-229 -21 -453 -172 -549 -371 -57 -117 -74 -206 -68
-338 7 -128 25 -199 79 -310 72 -147 228 -280 388 -331 91 -29 287 -37 390
-15 191 41 367 189 459 387 52 112 66 174 66 294 0 124 -15 184 -72 305 -38
79 -59 107 -132 181 -70 70 -103 94 -171 127 -128 62 -250 84 -390 71z"/>
<path d="M2689 3631 c-59 -12 -150 -61 -195 -107 -106 -105 -127 -254 -57
-392 121 -239 787 -649 1358 -835 388 -127 659 -168 1103 -168 314 0 513 19
772 72 492 101 989 328 1417 648 225 168 333 309 333 433 0 151 -125 301 -286
343 -109 28 -188 -6 -444 -196 -155 -114 -294 -199 -490 -298 -296 -150 -470
-209 -760 -260 -434 -76 -728 -71 -1169 20 -377 78 -774 265 -1151 542 -171
125 -250 172 -325 192 -32 8 -62 14 -65 14 -3 -1 -21 -4 -41 -8z" />
</g>
</svg>
