<svg xmlns="http://www.w3.org/2000/svg" width="23.502" height="30.523" viewBox="0 0 23.502 30.523">
  <g id="energy" transform="translate(1 1.742)" opacity="0.903">
    <g id="Group_8195" data-name="Group 8195" transform="translate(0)">
      <path id="Path_6340" data-name="Path 6340" d="M16.2,10.7S17.463,3.24,12.291,0A9.132,9.132,0,0,1,8.846,6.611C6.634,8.555,2.476,12.925,2.52,17.584A10.7,10.7,0,0,0,8.393,27.21a6.774,6.774,0,0,1,2.371-4.685,5.529,5.529,0,0,0,2.119-3.716,9.961,9.961,0,0,1,5.274,8.3v.023a10.008,10.008,0,0,0,5.824-8.683c.367-4.38-2.032-10.331-4.159-12.276A11.555,11.555,0,0,1,16.2,10.7Z" transform="translate(-2.52)" fill="none" stroke="#fff" stroke-width="2"/>
    </g>
  </g>
</svg>
