<svg xmlns="http://www.w3.org/2000/svg" width="211.043" height="163.953" viewBox="0 0 211.043 163.953"><rect width="211.043" height="163.654" fill="none"/><g transform="translate(10.812 5.617)"><g transform="translate(0)"><g transform="translate(13.296 32.911)"><g transform="translate(145.184 20.51)"><g transform="translate(2.316)"><path d="M215.984,18.1l-.784,3.087.784,3.087.833-3.087Z" transform="translate(-214.281 -17.218)" fill="#f7f619"/><path d="M215.028,24.288a.941.941,0,0,1-.882-.686l-.784-3.087a.679.679,0,0,1,0-.441l.784-3.087a.9.9,0,0,1,.882-.686h0a.941.941,0,0,1,.882.686l.784,3.087a.68.68,0,0,1,0,.441L215.91,23.6A.9.9,0,0,1,215.028,24.288Z" transform="translate(-213.325 -16.3)" fill="#f7f619"/></g><g transform="translate(0 2.267)"><path d="M216.724,23.584l-3.136-.784-3.087.784,3.087.784Z" transform="translate(-209.569 -21.881)" fill="#f7f619"/><path d="M212.618,24.343a.442.442,0,0,1-.245-.049l-3.087-.784a.9.9,0,0,1-.686-.882.941.941,0,0,1,.686-.882l3.087-.784a.68.68,0,0,1,.441,0l3.087.784a.9.9,0,0,1,.686.882.941.941,0,0,1-.686.882l-3.087.784C212.765,24.294,212.717,24.343,212.618,24.343Z" transform="translate(-208.6 -20.925)" fill="#f7f619"/></g></g><g transform="translate(7.243 32.803)"><g transform="translate(3.157)"><path d="M16.37,74.9,15.3,79.252l1.07,4.281,1.142-4.281Z" transform="translate(-14.319 -74.044)" fill="#e2b00a"/><path d="M15.976,84.117h0a.922.922,0,0,1-.856-.642l-1.142-4.352a.455.455,0,0,1,0-.428l1.142-4.352a.857.857,0,0,1,.856-.642.922.922,0,0,1,.856.642l1.142,4.352a.455.455,0,0,1,0,.428L16.833,83.4A.848.848,0,0,1,15.976,84.117Zm-.214-5.209.214.856.214-.856-.214-.856Z" transform="translate(-13.925 -73.7)" fill="#e2b00a"/></g><g transform="translate(0 3.157)"><path d="M19.434,80.542,15.081,79.4,10.8,80.542l4.281,1.07Z" transform="translate(-9.872 -78.49)" fill="#e2b00a"/><path d="M14.709,82.174h-.214l-4.352-1.142a1,1,0,0,1-.642-.856.922.922,0,0,1,.642-.856l4.352-1.142a.455.455,0,0,1,.428,0l4.352,1.142a.857.857,0,0,1,.642.856.922.922,0,0,1-.642.856l-4.352,1.142Zm-.785-2,.856.214.785-.214-.856-.214Z" transform="translate(-9.5 -78.125)" fill="#e2b00a"/></g></g><g transform="translate(69.897 17.137)"><path d="M67.457,56.45h-17.5s-4.166,26.457-3.913,26.874,10.586,0,10.586,0L51.607,117.8,76,70.481H65.413Z" transform="translate(-46.031 -52.419)" fill="#e2b00a"/><path d="M67.455,56.45h-17.5L46.041,83.324s6.981-.133,7.565,0a2.927,2.927,0,0,1,2.45,3.623c-.013,1.35-6.113,30.441-6.113,30.441s24.414-43.547,24.254-44-8.785-2.905-8.785-2.905Z" transform="translate(-41.999 -56.45)" fill="#f5f41f"/><path d="M60.067,58.74,49.956,56.45S45.75,82.842,46.043,83.324s6.981-.133,7.565,0a2.927,2.927,0,0,1,2.45,3.623c-.013,1.35-6.338,30.847-6.338,30.847l17.07-39.976s-4.966.179-5.784,0a4.184,4.184,0,0,1-2.443-1.229,3.1,3.1,0,0,1-.861-2.657C57.748,72.711,60.067,58.74,60.067,58.74Z" transform="translate(-42.001 -56.45)" fill="#f5f41f"/></g><g transform="translate(0 0)"><g transform="translate(27.029 15.198)"><ellipse cx="2.069" cy="2.069" rx="2.069" ry="2.069" fill="#f5f41f"/></g><g transform="translate(97.074 57.713)"><path d="M227.224,84.562a1.462,1.462,0,1,1-1.462-1.462A1.533,1.533,0,0,1,227.224,84.562Z" transform="translate(-224.3 -83.1)" fill="#f5f41f"/></g><g transform="translate(125.638 1.284)"><path d="M180.838,24.269a2.069,2.069,0,1,1-2.069-2.069A2.026,2.026,0,0,1,180.838,24.269Z" transform="translate(-176.7 -22.2)" fill="#f5f41f"/></g><g transform="translate(139.222 45.623)"><path d="M210.438,73.169a2.069,2.069,0,1,1-2.069-2.069A2.116,2.116,0,0,1,210.438,73.169Z" transform="translate(-206.3 -71.1)" fill="#f5f41f"/></g><g transform="translate(97.382 110.64)"><path d="M141.238,173.869a2.069,2.069,0,1,1-2.069-2.069A2.071,2.071,0,0,1,141.238,173.869Z" transform="translate(-137.1 -171.8)" fill="#f5f41f"/></g><g transform="translate(77.643 122.856)"><path d="M189.769,76.384a1.284,1.284,0,1,1-1.284-1.284A1.279,1.279,0,0,1,189.769,76.384Z" transform="translate(-187.2 -75.1)" fill="#f5f41f"/></g><g transform="translate(35.591 42.597)"><path d="M53.069,81.384A1.284,1.284,0,1,1,51.784,80.1,1.279,1.279,0,0,1,53.069,81.384Z" transform="translate(-50.5 -80.1)" fill="#f5f41f"/></g><g transform="translate(28.445 87.618)"><path d="M53.069,81.384A1.284,1.284,0,1,1,51.784,80.1,1.279,1.279,0,0,1,53.069,81.384Z" transform="translate(-50.5 -80.1)" fill="#f5f41f"/></g><g transform="translate(73.764)"><path d="M106.569,21.684a1.284,1.284,0,1,1-1.284-1.284A1.279,1.279,0,0,1,106.569,21.684Z" transform="translate(-104 -20.4)" fill="#f5f41f"/></g><g transform="translate(161.46 19.689)"><path d="M235.968,44.284a1.784,1.784,0,1,1-1.784-1.784A1.766,1.766,0,0,1,235.968,44.284Z" transform="translate(-232.4 -42.5)" fill="#f5f41f"/></g><g transform="translate(141.582 100.243)"><path d="M236.069,66.384a1.284,1.284,0,1,1-1.284-1.284A1.279,1.279,0,0,1,236.069,66.384Z" transform="translate(-233.5 -65.1)" fill="#f5f41f"/></g><g transform="translate(0 22.451)"><path d="M236.069,66.384a1.284,1.284,0,1,1-1.284-1.284A1.279,1.279,0,0,1,236.069,66.384Z" transform="translate(-233.5 -65.1)" fill="#f5f41f"/></g><g transform="translate(45.518 26.318)"><path d="M26.969,86.884A1.284,1.284,0,1,1,25.684,85.6,1.327,1.327,0,0,1,26.969,86.884Z" transform="translate(-24.4 -85.6)" fill="#f5f41f"/></g><g transform="translate(111.795 39.029)"><path d="M159.869,76.384a1.284,1.284,0,1,1-1.284-1.284A1.279,1.279,0,0,1,159.869,76.384Z" transform="translate(-157.3 -75.1)" fill="#f5f41f"/></g><g transform="translate(18.585 51.027)"><path d="M127.153,121.026a1.927,1.927,0,1,1-1.927-1.926A1.918,1.918,0,0,1,127.153,121.026Z" transform="translate(-123.3 -119.1)" fill="#f5f41f"/></g><g transform="translate(66.901 103.928)"><path d="M116.669,171.284A1.284,1.284,0,1,1,115.384,170,1.279,1.279,0,0,1,116.669,171.284Z" transform="translate(-114.1 -170)" fill="#f5f41f"/></g><g transform="translate(123.354 72.279)"><path d="M176.069,122.984a1.284,1.284,0,1,1-1.284-1.284A1.38,1.38,0,0,1,176.069,122.984Z" transform="translate(-173.5 -121.7)" fill="#f5f41f"/></g></g></g><g transform="translate(83.636)"><path d="M189.79,49.331a20.768,20.768,0,0,0-2.675.191,14.8,14.8,0,0,0-14.579-11.126,15.534,15.534,0,0,0-5.646,1.059,33.656,33.656,0,0,0-30.553-18.772c-18.522,0-33.54,14.306-33.54,31.952a30.625,30.625,0,0,0,4.31,15.664H209.7C209.7,57.823,200.786,49.331,189.79,49.331Z" transform="translate(-102.798 -20.682)" fill="#cad5e2"/></g><g transform="translate(0 8.507)"><path d="M116.725,52.875a29.981,29.981,0,0,0-56.224-11A21.572,21.572,0,0,0,52.9,40.5,21.937,21.937,0,0,0,33.235,52.875Z" transform="translate(-33.235 -26.076)" fill="#c2ccd9"/></g><g transform="translate(31.297 22.005)"><path d="M135.284,82.041c-3.876-8.756-11.881-14.77-21.135-14.77a21.151,21.151,0,0,0-8.172,1.642C100.45,57.674,89.843,50.065,77.658,50.065c-12.475,0-23.293,7.978-28.7,19.664a13.5,13.5,0,0,0-9.519-4.054c-8,0-14.482,7.328-14.482,16.366H135.284Z" transform="translate(-24.96 -50.065)" fill="#dee4ed"/></g><g transform="translate(110.829 14.268)"><path d="M155.125,63.358a13.188,13.188,0,0,0,7.475-7.612,13.19,13.19,0,0,0,7.475,7.612,13.186,13.186,0,0,0-7.475,7.612A13.186,13.186,0,0,0,155.125,63.358Z" transform="translate(-155.125 -55.746)" fill="#f7f619"/></g></g><g transform="translate(112.802 101.552) rotate(15)"><path d="M22.172,12.621,11.465,2.239,9.351,6.279,0,0,11.088,12.969l1.4-4.743Z" transform="translate(0.761 0.761)" fill="#f5f41f"/><path d="M11.849,14.491a.759.759,0,0,1-.579-.267L.183,1.256a.762.762,0,0,1,1-1.128L9.831,5.934l1.72-3.287a.761.761,0,0,1,.554-.4.748.748,0,0,1,.651.2L23.463,12.835a.761.761,0,0,1-.844,1.24l-8.89-4.033-1.149,3.9a.762.762,0,0,1-.571.53A.826.826,0,0,1,11.849,14.491Zm-6.894-10,6.56,7.672,1-3.4a.762.762,0,0,1,1.045-.477l5.7,2.584L12.428,4.256,10.787,7.392a.763.763,0,0,1-1.1.28Z" transform="translate(0 0)" fill="#f5f41f"/></g><g transform="translate(71.947 94.508) rotate(94)"><path d="M16.945,9.646,8.762,1.711,7.146,4.8,0,0,8.474,9.912,9.541,6.287Z" transform="translate(0.582 0.581)" fill="#f5f41f"/><path d="M9.056,11.075a.58.58,0,0,1-.442-.2L.14.96A.582.582,0,0,1,.906.1L7.514,4.535,8.828,2.023a.581.581,0,0,1,.423-.3.571.571,0,0,1,.5.156l8.183,7.935a.582.582,0,0,1-.645.948L10.492,7.674l-.878,2.983a.582.582,0,0,1-.436.4A.631.631,0,0,1,9.056,11.075ZM3.787,3.435,8.8,9.3,9.565,6.7a.582.582,0,0,1,.8-.365l4.353,1.975L9.5,3.252,8.244,5.65a.583.583,0,0,1-.84.214Z" transform="translate(0 0)" fill="#f5f41f"/></g></g></svg>