<svg id="c-question" xmlns="http://www.w3.org/2000/svg" width="31.159" height="31.159" viewBox="0 0 31.159 31.159">
  <g id="Group_9385" data-name="Group 9385">
    <path id="Path_7831" data-name="Path 7831" d="M15.579,0A15.579,15.579,0,1,0,31.159,15.579,15.6,15.6,0,0,0,15.579,0ZM14.93,24.667a1.947,1.947,0,1,1,1.947-1.947A1.948,1.948,0,0,1,14.93,24.667Zm5.6-11.52a8.554,8.554,0,0,1-2.288,2.167c-1.819,1.345-1.77,1.644-1.77,2.861H13.28a4.521,4.521,0,0,1,.493-2.572,6.445,6.445,0,0,1,1.806-1.818c1.05-.75,2.071-1.474,2.071-2.733,0-1.18-1.01-1.6-2.19-1.6a9.261,9.261,0,0,0-4.117,1.18L10.031,8c2.8-1.57,7.22-2.28,9.636-.313A4.313,4.313,0,0,1,20.527,13.148Z" fill="#fff"/>
  </g>
</svg>
