<svg id="Group_8771" data-name="Group 8771" xmlns="http://www.w3.org/2000/svg" width="178.067" height="167.281" viewBox="0 0 178.067 167.281">
  <g id="Group_7480" data-name="Group 7480" transform="translate(0 0)">
    <g id="Group_7203" data-name="Group 7203">
      <g id="Group_7198" data-name="Group 7198" transform="translate(0 63.924)">
        <path id="Path_4037" data-name="Path 4037" d="M237.795,106.174l-89,31.012-89.07-31L148.8,209.532Z" transform="translate(-59.728 -106.174)" fill="#4cd8e9"/>
      </g>
      <g id="Group_7199" data-name="Group 7199" transform="translate(0 63.933)">
        <path id="Path_4038" data-name="Path 4038" d="M148.8,134.5l-89.068-31,89.064,103.348Z" transform="translate(-59.728 -103.499)" fill="#81ebf8"/>
      </g>
      <g id="Group_7200" data-name="Group 7200" transform="translate(0 0.681)">
        <path id="Path_4039" data-name="Path 4039" d="M237.783,121.87l-88.992,31.009-89.064-31,44.609-48.821,44.53-14.431,44.1,14.455Z" transform="translate(-59.728 -58.623)" fill="#a5ebf3"/>
      </g>
      <g id="Group_7201" data-name="Group 7201" transform="translate(44.62)">
        <g id="Group_7462" data-name="Group 7462" transform="translate(44.443 15.124)">
          <path id="Path_4040" data-name="Path 4040" d="M145.411,108.3l-44.823-48.8-44.174,17.2,0,62.617Z" transform="translate(-56.413 -59.494)" fill="#81ebf8"/>
        </g>
        <g id="Group_3544" data-name="Group 3544">
          <path id="Path_4042" data-name="Path 4042" d="M139.23,90.395,94.789,73.177l44.479-15.106,44.148,15.106Z" transform="translate(-94.789 -58.071)" fill="#b5f1f7"/>
        </g>
      </g>
    </g>
  </g>
</svg>
