<svg xmlns="http://www.w3.org/2000/svg" width="73.101" height="67.654" viewBox="0 0 73.101 67.654">
  <g id="Layer_1" transform="translate(-36.48 -60.06)">
    <g id="Group_9087" data-name="Group 9087" transform="translate(36.48 60.06)">
      <path id="Path_6988" data-name="Path 6988" d="M36.54,81.089,54.6,66.62l10.182-6.56,17.018.022,9.079,6.5,18.756,14.63-36.236,46.5Z" transform="translate(-36.53 -60.06)" fill="#f0f0ff"/>
      <path id="Path_6989" data-name="Path 6989" d="M156.33,257.653l33.2-.083L172.9,291.8Z" transform="translate(-136.045 -224.141)" fill="#c0a9f7" opacity="0.83"/>
      <path id="Path_6990" data-name="Path 6990" d="M164.853,135.33l16.705.005L190,156.019l-33.109.083Z" transform="translate(-136.511 -122.591)" fill="#cbc5f9" opacity="0.71"/>
      <path id="Path_6991" data-name="Path 6991" d="M311.915,98.64l-9.275,6.215,8.44,20.684,19.6-12.276Z" transform="translate(-257.592 -92.11)" fill="#c6b7f8" opacity="0.85"/>
      <path id="Path_6992" data-name="Path 6992" d="M56.844,125.788l-20.364-12.5L54.536,98.82,64.828,105Z" transform="translate(-36.48 -92.26)" fill="#e5e1ff" opacity="0.71"/>
      <path id="Path_6993" data-name="Path 6993" d="M270.864,197.316l19.6-12.276-36.235,46.5Z" transform="translate(-217.376 -163.887)" fill="#8f6bdb" opacity="0.84"/>
      <path id="Path_6994" data-name="Path 6994" d="M36.48,184.31,56.839,196.8l16.5,34.133Z" transform="translate(-36.48 -163.281)" fill="#d4c9f7" opacity="0.83"/>
    </g>
  </g>
</svg>
