<svg id="Group_8769" data-name="Group 8769" xmlns="http://www.w3.org/2000/svg" width="178.067" height="167.281" viewBox="0 0 178.067 167.281">
  <g id="Group_8645" data-name="Group 8645" transform="translate(0)">
    <g id="Group_7203" data-name="Group 7203">
      <g id="Group_7198" data-name="Group 7198" transform="translate(0 63.923)">
        <path id="Path_4037" data-name="Path 4037" d="M237.794,106.174l-89,31.012-89.069-31L148.8,209.531Z" transform="translate(-59.728 -106.174)" fill="#89287b"/>
      </g>
      <g id="Group_7199" data-name="Group 7199" transform="translate(0 63.933)">
        <path id="Path_4038" data-name="Path 4038" d="M148.8,134.5l-89.068-31,89.064,103.348Z" transform="translate(-59.728 -103.499)" fill="#ba35a7"/>
      </g>
      <g id="Group_7200" data-name="Group 7200" transform="translate(0 0.681)">
        <path id="Path_4039" data-name="Path 4039" d="M237.782,121.87l-88.992,31.009-89.063-31,44.609-48.821,44.53-14.431,44.1,14.455Z" transform="translate(-59.728 -58.623)" fill="#da3cc3"/>
      </g>
      <g id="Group_7201" data-name="Group 7201" transform="translate(44.62)">
        <g id="Group_7462" data-name="Group 7462" transform="translate(44.443 15.124)">
          <path id="Path_4040" data-name="Path 4040" d="M145.411,108.3l-44.823-48.8-44.174,17.2,0,62.617Z" transform="translate(-56.413 -59.494)" fill="#ba35a7"/>
        </g>
        <g id="Group_3544" data-name="Group 3544" transform="translate(0)">
          <path id="Path_4042" data-name="Path 4042" d="M139.23,90.394,94.789,73.177l44.479-15.106,44.148,15.106Z" transform="translate(-94.789 -58.071)" fill="#ff57e6"/>
        </g>
      </g>
    </g>
  </g>
</svg>
