<svg xmlns="http://www.w3.org/2000/svg" width="39.485" height="37.097" viewBox="0 0 39.485 37.097"><g transform="translate(-0.001)"><g transform="translate(0.001 0)"><g transform="translate(0 0)"><g transform="translate(0 14.179)"><path d="M99.212,106.2l-19.526,6.889L59.728,106.2l19.747,22.913Z" transform="translate(-59.728 -106.202)" fill="#ce397f"/></g><g transform="translate(0 14.18)"><path d="M79.616,115.47l.07-5.082L59.728,103.5l19.746,22.908Z" transform="translate(-59.728 -103.499)" fill="#ef3f92"/></g><g transform="translate(0 0.154)"><path d="M99.21,72.649,79.686,79.537,59.728,72.649l9.892-10.826,9.874-3.2,9.776,3.2Z" transform="translate(-59.728 -58.623)" fill="#ff3b98"/></g><g transform="translate(9.754)"><g transform="translate(10.203 3.72)"><path d="M81.383,79.469,71.434,69.01s-9.788,3.318-9.512,3.612L61.857,86.36Z" transform="translate(-61.857 -69.01)" fill="#ef3f92"/></g><g transform="translate(0)"><path d="M101.268,65.153c-.083,0-8.717-2.949-8.717-2.949s-1.448-.236-1.443-.549,10-3.676,10-3.676l9.789,3.357C106.6,62.978,101.4,65.153,101.268,65.153Z" transform="translate(-91.108 -57.979)" fill="#ff9ae3"/></g></g></g></g><g transform="translate(0.001 0.004)"><g transform="translate(0 0)"><g transform="translate(0 14.175)"><path d="M99.213,106.174l-19.735,6.877-19.751-6.875,19.75,22.917Z" transform="translate(-59.728 -106.174)" fill="#b4b4b4"/></g><g transform="translate(0 14.177)"><path d="M79.478,110.374,59.728,103.5l19.749,22.917Z" transform="translate(-59.728 -103.499)" fill="#ddd"/></g><g transform="translate(0 0.151)"><path d="M99.21,72.648,79.477,79.524,59.728,72.649l9.892-10.826,9.874-3.2,9.778,3.205Z" transform="translate(-59.728 -58.623)" fill="#f0f0f0"/></g><g transform="translate(9.894)"><g transform="translate(9.855 3.354)"><path d="M76.148,70.315,66.209,59.494l-9.8,3.813V77.192Z" transform="translate(-56.413 -59.494)" fill="#ddd"/></g><g transform="translate(0)"><path d="M104.643,65.239l-9.855-3.818,9.863-3.35,9.79,3.35Z" transform="translate(-94.789 -58.071)" fill="#fff"/></g></g></g></g></g></svg>