<svg xmlns="http://www.w3.org/2000/svg" width="39.485" height="37.093" viewBox="0 0 39.485 37.093"><g transform="translate(0 0)"><g transform="translate(0 0)"><g transform="translate(0 0)"><g transform="translate(0 14.175)"><path d="M99.213,106.174l-19.735,6.877-19.751-6.875,19.75,22.917Z" transform="translate(-59.728 -106.174)" fill="#ad349c"/></g><g transform="translate(0 14.177)"><path d="M79.478,110.374,59.728,103.5l19.749,22.917Z" transform="translate(-59.728 -103.499)" fill="#d93fc3"/></g><g transform="translate(0 0.151)"><path d="M99.21,72.648,79.477,79.524,59.728,72.649l9.892-10.826,9.874-3.2,9.778,3.205Z" transform="translate(-59.728 -58.623)" fill="#ea42d1"/></g><g transform="translate(9.894)"><g transform="translate(9.855 3.354)"><path d="M76.148,70.315,66.209,59.494l-9.8,3.813V77.192Z" transform="translate(-56.413 -59.494)" fill="#d93fc3"/></g><g transform="translate(0)"><path d="M104.643,65.239l-9.855-3.818,9.863-3.35,9.79,3.35Z" transform="translate(-94.789 -58.071)" fill="#ff7cec"/></g></g></g></g></g></svg>