<svg id="ic_gif_24px" xmlns="http://www.w3.org/2000/svg" width="24" height="10.286" viewBox="0 0 24 10.286">
  <g id="Group_4547" data-name="Group 4547">
    <path id="Path_5156" data-name="Path 5156" d="M16.143,9h2.571V19.286H16.143ZM11.857,9H6.714A1.718,1.718,0,0,0,5,10.714v6.857a1.718,1.718,0,0,0,1.714,1.714h5.143a1.718,1.718,0,0,0,1.714-1.714V14.143H11v2.571H7.571V11.571h6v-.857A1.718,1.718,0,0,0,11.857,9ZM29,11.571V9H21.286V19.286h2.571V15.857h3.429V13.286H23.857V11.571Z" transform="translate(-5 -9)" fill="#999"/>
  </g>
</svg>
