<svg xmlns="http://www.w3.org/2000/svg" width="24.064" height="19.974" viewBox="0 0 24.064 19.974">
  <g id="happy-baby" transform="translate(0.064 -2)">
    <g id="Сгруппировать_8419" data-name="Сгруппировать 8419">
      <path id="Контур_6686" data-name="Контур 6686" d="M21,9a1.981,1.981,0,0,0-.5.07,8.991,8.991,0,0,0-17,0A2,2,0,1,0,3,13c.02,0,.038,0,.058-.006a9,9,0,0,0,17.884,0c.02,0,.038.006.058.006a2,2,0,1,0,0-4Z" fill="none" stroke="#fff" stroke-linecap="round" stroke-linejoin="round" stroke-miterlimit="10" stroke-width="2"/>
      <circle id="Эллипс_769" data-name="Эллипс 769" cx="1.5" cy="1.5" r="1.5" transform="translate(7 9)" fill="#fff"/>
      <circle id="Эллипс_770" data-name="Эллипс 770" cx="1.5" cy="1.5" r="1.5" transform="translate(14 9)" fill="#fff"/>
      <path id="Контур_6687" data-name="Контур 6687" d="M9.625,16.375a4.825,4.825,0,0,0,4.75,0" fill="none" stroke="#fff" stroke-linecap="round" stroke-linejoin="round" stroke-miterlimit="10" stroke-width="2"/>
      <path id="Контур_6688" data-name="Контур 6688" d="M13,6.732A2,2,0,1,1,12,3" fill="none" stroke="#fff" stroke-linecap="round" stroke-linejoin="round" stroke-miterlimit="10" stroke-width="2"/>
    </g>
  </g>
</svg>
