<svg xmlns="http://www.w3.org/2000/svg" width="24" height="24" viewBox="0 0 24 24"><path d="M12,0A12,12,0,1,0,24,12,12.013,12.013,0,0,0,12,0Zm2.658,18.284c-.661.26-2.952,1.354-4.272.191a1.676,1.676,0,0,1-.59-1.318,15.978,15.978,0,0,1,.919-3.957,5.7,5.7,0,0,0,.231-1.313c0-.7-.266-.887-.987-.887a3.31,3.31,0,0,0-1.1.257l.195-.8a7.64,7.64,0,0,1,2.621-.71c1.269,0,2.2.633,2.2,1.837A5.585,5.585,0,0,1,13.7,12.96l-.73,2.582c-.151.522-.424,1.673,0,2.014a2.214,2.214,0,0,0,1.887-.071ZM13.452,8a1.5,1.5,0,1,1,1.5-1.5A1.5,1.5,0,0,1,13.452,8Z" fill="#fff"/></svg>