<svg id="door-3" xmlns="http://www.w3.org/2000/svg" width="26.476" height="31.772" viewBox="0 0 26.476 31.772">
  <g id="Group_9384" data-name="Group 9384">
    <path id="Path_7829" data-name="Path 7829" d="M22.3,26.828H17V24.18h3.971V5.648H17V3h5.3a1.324,1.324,0,0,1,1.324,1.324V25.5A1.324,1.324,0,0,1,22.3,26.828Z" transform="translate(2.857 0.972)" fill="#fff"/>
    <path id="Path_7830" data-name="Path 7830" d="M18.734.307A1.3,1.3,0,0,0,17.648.023L3.087,2.67A1.324,1.324,0,0,0,2,3.972v22.5a1.324,1.324,0,0,0,.976,1.278l14.561,3.971a1.361,1.361,0,0,0,.348.046,1.324,1.324,0,0,0,1.324-1.324V1.324A1.324,1.324,0,0,0,18.734.307Zm-3.5,19.55a1.324,1.324,0,0,1-2.648,0V17.209a1.324,1.324,0,0,1,2.648,0Z" transform="translate(-2 0.001)" fill="#fff"/>
  </g>
</svg>
