<svg xmlns="http://www.w3.org/2000/svg" width="233.879" height="55.512" viewBox="0 0 233.879 55.512">
  <g id="Group_8775" data-name="Group 8775" transform="translate(-833.891 -18.066)">
    <text id="APP" transform="translate(1067.77 62.066)" fill="#dc3bc3" font-size="41" font-family="SegoeUIBlack, Segoe UI"><tspan x="-84.522" y="0">APP</tspan></text>
    <g id="Group_8029" data-name="Group 8029" transform="translate(833.891 34.066)">
      <path id="Path_5302" data-name="Path 5302" d="M154.986,234.352h13.279l3.023,12.739,3.049-12.739h13.279l-9.959,27.637q-3.967,11.065-13.279,11.065a20.88,20.88,0,0,1-3.361-.27,13.639,13.639,0,0,1-2.443-.567l-.809-.27V260.909a6.253,6.253,0,0,0,2.753.54,5.092,5.092,0,0,0,2.132-.418,3.059,3.059,0,0,0,1.187-.8l.27-.432Z" transform="translate(-154.986 -233.542)" fill="#fff"/>
      <path id="Path_5303" data-name="Path 5303" d="M234.573,258.13c-.072.108-.166.248-.284.418a8.349,8.349,0,0,1-.836.918,10.981,10.981,0,0,1-1.4,1.188,7.383,7.383,0,0,1-2.01.931,8.742,8.742,0,0,1-2.672.405,8.6,8.6,0,0,1-6.72-3.01,11.647,11.647,0,0,1-2.672-8.029v-16.6h12.712v13.279a2.289,2.289,0,0,0,.553,1.606,1.8,1.8,0,0,0,1.39.607,1.737,1.737,0,0,0,1.309-.8,3.038,3.038,0,0,0,.635-1.957V234.352h12.712v27.1H234.573Z" transform="translate(-183.158 -233.542)" fill="#fff"/>
      <path id="Path_5304" data-name="Path 5304" d="M298.445,243.386a3.433,3.433,0,0,0-2.483-1.107q-1.646,0-1.646,1.107,0,.377,1.552.931t3.428,1.215a8.052,8.052,0,0,1,3.428,2.483,6.689,6.689,0,0,1,1.552,4.494,7.966,7.966,0,0,1-3.428,6.437q-3.428,2.686-9.581,2.686a21.088,21.088,0,0,1-5.128-.607,15.95,15.95,0,0,1-3.954-1.471,25.477,25.477,0,0,1-2.632-1.687,8.506,8.506,0,0,1-1.592-1.444l-.513-.594,5.533-5.8a4.99,4.99,0,0,0,4.157,2.213q1.646,0,1.646-1.106,0-.324-1.025-.715t-2.483-.918a18.919,18.919,0,0,1-2.928-1.362,6.988,6.988,0,0,1-2.5-2.524,7.356,7.356,0,0,1-1.026-3.9,7.674,7.674,0,0,1,3.4-6.208q3.4-2.618,9.312-2.618a20.939,20.939,0,0,1,4.669.5,15.8,15.8,0,0,1,3.549,1.187,26.619,26.619,0,0,1,2.388,1.35,7.339,7.339,0,0,1,1.458,1.147l.378.513Z" transform="translate(-211.172 -232.887)" fill="#fff"/>
      <path id="Path_5305" data-name="Path 5305" d="M344.463,249.728a6.136,6.136,0,0,0,.324.553,3.586,3.586,0,0,0,1.349.864,6.5,6.5,0,0,0,2.753.526,7.547,7.547,0,0,0,2.267-.364,12.844,12.844,0,0,0,1.809-.688l.621-.324,4.426,8.286q-.485.324-1.4.823a23.7,23.7,0,0,1-3.873,1.363,21.51,21.51,0,0,1-6.059.864,15.793,15.793,0,0,1-11.255-4.237,13.446,13.446,0,0,1-4.507-10.148,13.6,13.6,0,0,1,4.319-10.215,15.08,15.08,0,0,1,10.876-4.143,15.31,15.31,0,0,1,10.877,4.062,12.886,12.886,0,0,1,4.345,9.757,8.34,8.34,0,0,1-.148,1.633,9.944,9.944,0,0,1-.256,1.066l-.162.323Zm-.149-7.5a3.794,3.794,0,0,0-.958,2h5.533a3.746,3.746,0,0,0-.972-2,2.426,2.426,0,0,0-1.809-.783A2.384,2.384,0,0,0,344.314,242.225Z" transform="translate(-235.651 -232.887)" fill="#fff"/>
      <path id="Path_5306" data-name="Path 5306" d="M413.335,246.654a6.516,6.516,0,0,0-2.753-.567,4.738,4.738,0,0,0-3.657,1.444,5.8,5.8,0,0,0-1.336,4.089v9.392H392.877v-27.1h12.712v3.319c.073-.108.167-.243.284-.4a9.913,9.913,0,0,1,.836-.9,10.933,10.933,0,0,1,1.4-1.187,7.638,7.638,0,0,1,2.011-.945,8.385,8.385,0,0,1,2.645-.418h.567Z" transform="translate(-265.062 -233.105)" fill="#fff"/>
    </g>
  </g>
</svg>
