<svg id="Group_7194" data-name="Group 7194" xmlns="http://www.w3.org/2000/svg" width="147.951" height="38.639" viewBox="0 0 147.951 38.639">
  <path id="Path_5302" data-name="Path 5302" d="M154.986,234.352h13.225l3.011,12.452,3.037-12.452h13.225l-9.918,27.016q-3.951,10.816-13.224,10.817a21.169,21.169,0,0,1-3.347-.264,13.8,13.8,0,0,1-2.433-.554l-.806-.264V260.312a6.327,6.327,0,0,0,2.741.528,5.155,5.155,0,0,0,2.124-.409,3.05,3.05,0,0,0,1.182-.778l.269-.423Z" transform="translate(-154.986 -233.546)" fill="#fff"/>
  <path id="Path_5303" data-name="Path 5303" d="M234.505,258.032q-.107.161-.282.417a8.33,8.33,0,0,1-.833.914,10.925,10.925,0,0,1-1.4,1.183,7.354,7.354,0,0,1-2,.927,8.707,8.707,0,0,1-2.661.4,8.57,8.57,0,0,1-6.693-3,11.6,11.6,0,0,1-2.661-8v-16.53h12.66v13.224a2.28,2.28,0,0,0,.551,1.6,1.792,1.792,0,0,0,1.384.6,1.73,1.73,0,0,0,1.3-.793,3.025,3.025,0,0,0,.632-1.949V234.352h12.66v26.986h-12.66Z" transform="translate(-183.442 -233.546)" fill="#fff"/>
  <path id="Path_5304" data-name="Path 5304" d="M298.359,243.343a3.419,3.419,0,0,0-2.473-1.1q-1.639,0-1.639,1.1,0,.376,1.545.927t3.414,1.21a8.017,8.017,0,0,1,3.413,2.473,6.662,6.662,0,0,1,1.545,4.475,7.933,7.933,0,0,1-3.414,6.41q-3.413,2.675-9.542,2.675a21,21,0,0,1-5.107-.6,15.884,15.884,0,0,1-3.938-1.465,25.365,25.365,0,0,1-2.621-1.68,8.475,8.475,0,0,1-1.586-1.438l-.511-.591,5.51-5.779a4.969,4.969,0,0,0,4.14,2.2q1.639,0,1.639-1.1,0-.323-1.021-.712t-2.473-.914a18.846,18.846,0,0,1-2.916-1.357,6.959,6.959,0,0,1-2.486-2.513,7.325,7.325,0,0,1-1.022-3.884,7.642,7.642,0,0,1,3.387-6.182q3.386-2.608,9.273-2.607a20.852,20.852,0,0,1,4.65.5,15.742,15.742,0,0,1,3.535,1.182,26.5,26.5,0,0,1,2.379,1.344,7.309,7.309,0,0,1,1.452,1.142l.376.511Z" transform="translate(-211.517 -232.887)" fill="#fff"/>
  <path id="Path_5305" data-name="Path 5305" d="M344.407,249.659a6.111,6.111,0,0,0,.323.551,3.571,3.571,0,0,0,1.344.86,6.477,6.477,0,0,0,2.742.524,7.519,7.519,0,0,0,2.258-.363,12.8,12.8,0,0,0,1.8-.685l.618-.323,4.408,8.252q-.483.323-1.4.82a23.612,23.612,0,0,1-3.857,1.358,21.422,21.422,0,0,1-6.034.86,15.729,15.729,0,0,1-11.209-4.22,13.391,13.391,0,0,1-4.489-10.107,13.541,13.541,0,0,1,4.3-10.173,15.018,15.018,0,0,1,10.832-4.126,15.247,15.247,0,0,1,10.832,4.045,12.833,12.833,0,0,1,4.327,9.717,8.308,8.308,0,0,1-.148,1.626,9.9,9.9,0,0,1-.255,1.062l-.161.322Zm-.148-7.472a3.778,3.778,0,0,0-.954,1.989h5.51a3.73,3.73,0,0,0-.968-1.989,2.416,2.416,0,0,0-1.8-.779A2.374,2.374,0,0,0,344.259,242.187Z" transform="translate(-236.262 -232.887)" fill="#fff"/>
  <path id="Path_5306" data-name="Path 5306" d="M413.251,246.6a6.488,6.488,0,0,0-2.742-.564,4.718,4.718,0,0,0-3.642,1.438,5.778,5.778,0,0,0-1.331,4.072V260.9h-12.66V233.913h12.66v3.306c.072-.107.166-.242.282-.4a9.847,9.847,0,0,1,.833-.9,10.91,10.91,0,0,1,1.4-1.182,7.607,7.607,0,0,1,2-.941,8.348,8.348,0,0,1,2.634-.417h.565Z" transform="translate(-265.301 -233.106)" fill="#fff"/>
</svg>
