<svg xmlns="http://www.w3.org/2000/svg" width="252.942" height="47.915" viewBox="0 0 252.942 47.915">
  <g id="Group_8770" data-name="Group 8770" transform="translate(-833.891 -22)">
    <text id="MARKET" transform="translate(963.832 60)" fill="#dc3bc3" font-size="35" font-family="SegoeUI, Segoe UI" letter-spacing="-0.05em"><tspan x="0" y="0">MARKET</tspan></text>
    <g id="Group_8029" data-name="Group 8029" transform="translate(833.891 35.288)">
      <path id="Path_5302" data-name="Path 5302" d="M154.986,234.352h11.637l2.649,11.164,2.672-11.164h11.637l-8.728,24.22q-3.477,9.7-11.637,9.7a18.3,18.3,0,0,1-2.945-.236,11.951,11.951,0,0,1-2.141-.5l-.709-.236v-9.674a5.481,5.481,0,0,0,2.412.473,4.462,4.462,0,0,0,1.869-.367,2.68,2.68,0,0,0,1.041-.7l.236-.379Z" transform="translate(-154.986 -233.642)" fill="#fff"/>
      <path id="Path_5303" data-name="Path 5303" d="M232.521,255.19c-.063.094-.146.217-.248.367a7.32,7.32,0,0,1-.733.8,9.622,9.622,0,0,1-1.23,1.041,6.471,6.471,0,0,1-1.762.816,7.661,7.661,0,0,1-2.342.355,7.541,7.541,0,0,1-5.889-2.638,10.207,10.207,0,0,1-2.342-7.036V234.352h11.14v11.637a2.006,2.006,0,0,0,.485,1.407,1.577,1.577,0,0,0,1.218.532,1.522,1.522,0,0,0,1.147-.7,2.662,2.662,0,0,0,.556-1.715V234.352h11.14V258.1h-11.14Z" transform="translate(-187.463 -233.642)" fill="#fff"/>
      <path id="Path_5304" data-name="Path 5304" d="M295.849,242.088a3.008,3.008,0,0,0-2.176-.97q-1.442,0-1.443.97,0,.331,1.36.816t3,1.065a7.056,7.056,0,0,1,3,2.176,5.862,5.862,0,0,1,1.36,3.938,6.981,6.981,0,0,1-3,5.641q-3,2.354-8.4,2.354a18.481,18.481,0,0,1-4.494-.532,13.976,13.976,0,0,1-3.465-1.289,22.323,22.323,0,0,1-2.306-1.478,7.456,7.456,0,0,1-1.4-1.265l-.45-.52,4.849-5.085a4.373,4.373,0,0,0,3.643,1.939q1.442,0,1.443-.969,0-.284-.9-.627t-2.176-.8a16.581,16.581,0,0,1-2.566-1.194,6.124,6.124,0,0,1-2.188-2.212,6.446,6.446,0,0,1-.9-3.418,6.725,6.725,0,0,1,2.981-5.44q2.98-2.295,8.16-2.294a18.35,18.35,0,0,1,4.092.437,13.849,13.849,0,0,1,3.11,1.041,23.321,23.321,0,0,1,2.093,1.183,6.431,6.431,0,0,1,1.277,1.005l.331.45Z" transform="translate(-219.366 -232.887)" fill="#fff"/>
      <path id="Path_5305" data-name="Path 5305" d="M342.788,247.646a5.368,5.368,0,0,0,.284.485,3.142,3.142,0,0,0,1.182.757,5.7,5.7,0,0,0,2.413.461,6.615,6.615,0,0,0,1.986-.319,11.258,11.258,0,0,0,1.585-.6l.544-.284,3.879,7.261q-.425.284-1.23.721a20.777,20.777,0,0,1-3.394,1.195,18.851,18.851,0,0,1-5.31.757,13.841,13.841,0,0,1-9.863-3.714,11.784,11.784,0,0,1-3.95-8.894,11.915,11.915,0,0,1,3.785-8.952,13.215,13.215,0,0,1,9.532-3.631,13.417,13.417,0,0,1,9.532,3.559A11.293,11.293,0,0,1,357.571,245a7.309,7.309,0,0,1-.13,1.431,8.728,8.728,0,0,1-.225.934l-.142.283Zm-.13-6.575a3.324,3.324,0,0,0-.84,1.751h4.849a3.283,3.283,0,0,0-.852-1.751,2.126,2.126,0,0,0-1.585-.686A2.089,2.089,0,0,0,342.658,241.071Z" transform="translate(-247.429 -232.887)" fill="#fff"/>
      <path id="Path_5306" data-name="Path 5306" d="M410.806,245.012a5.709,5.709,0,0,0-2.413-.5,4.152,4.152,0,0,0-3.2,1.265,5.084,5.084,0,0,0-1.171,3.584V257.6h-11.14V233.848h11.14v2.909c.064-.094.146-.213.249-.355a8.682,8.682,0,0,1,.733-.792,9.582,9.582,0,0,1,1.23-1.04,6.7,6.7,0,0,1,1.762-.828,7.35,7.35,0,0,1,2.318-.367h.5Z" transform="translate(-280.865 -233.139)" fill="#fff"/>
    </g>
  </g>
</svg>
