<svg xmlns="http://www.w3.org/2000/svg" width="345.248" height="71.9" viewBox="0 0 345.248 71.9">
  <g id="Group_8635" data-name="Group 8635" transform="translate(-833.891 -18.361)">
    <text id="GEMS" transform="translate(1032.139 75.361)" fill="#dc3bc3" font-size="53" font-family="SegoeUIBlack, Segoe UI" letter-spacing="-0.025em"><tspan x="0" y="0">GEMS</tspan></text>
    <g id="Group_8029" data-name="Group 8029" transform="translate(833.891 38.541)">
      <path id="Path_5302" data-name="Path 5302" d="M154.986,234.352h17.382l3.957,16.674,3.992-16.674H197.7l-13.036,36.176q-5.193,14.483-17.381,14.484a27.328,27.328,0,0,1-4.4-.353,17.853,17.853,0,0,1-3.2-.742l-1.059-.353V269.114a8.185,8.185,0,0,0,3.6.707,6.665,6.665,0,0,0,2.791-.548,4,4,0,0,0,1.554-1.042l.353-.566Z" transform="translate(-154.986 -233.292)" fill="#fff"/>
      <path id="Path_5303" data-name="Path 5303" d="M239.7,265.476c-.094.141-.218.324-.371.548a10.936,10.936,0,0,1-1.095,1.2,14.375,14.375,0,0,1-1.838,1.555A9.664,9.664,0,0,1,233.767,270a11.442,11.442,0,0,1-3.5.53,11.263,11.263,0,0,1-8.8-3.94q-3.5-3.938-3.5-10.51V234.352h16.639v17.381a3,3,0,0,0,.724,2.1,2.355,2.355,0,0,0,1.819.8,2.274,2.274,0,0,0,1.713-1.043,3.976,3.976,0,0,0,.831-2.561V234.352h16.639v35.469H239.7Z" transform="translate(-172.401 -233.292)" fill="#fff"/>
      <path id="Path_5304" data-name="Path 5304" d="M304.933,246.63a4.493,4.493,0,0,0-3.251-1.449q-2.154,0-2.155,1.449,0,.494,2.031,1.218t4.487,1.59a10.539,10.539,0,0,1,4.487,3.25,8.755,8.755,0,0,1,2.031,5.882q0,4.911-4.487,8.425t-12.541,3.516a27.605,27.605,0,0,1-6.712-.8,20.874,20.874,0,0,1-5.175-1.925,33.344,33.344,0,0,1-3.445-2.208,11.134,11.134,0,0,1-2.084-1.89l-.672-.777,7.242-7.6a6.532,6.532,0,0,0,5.441,2.9q2.154,0,2.155-1.448,0-.424-1.342-.936t-3.251-1.2a24.766,24.766,0,0,1-3.833-1.783,9.147,9.147,0,0,1-3.268-3.3,9.628,9.628,0,0,1-1.343-5.1q0-4.7,4.452-8.126t12.189-3.427a27.41,27.41,0,0,1,6.111.653,20.686,20.686,0,0,1,4.646,1.554,34.828,34.828,0,0,1,3.126,1.767,9.6,9.6,0,0,1,1.908,1.5l.494.671Z" transform="translate(-190.696 -232.887)" fill="#fff"/>
      <path id="Path_5305" data-name="Path 5305" d="M348.649,254.931a8.013,8.013,0,0,0,.424.724,4.693,4.693,0,0,0,1.766,1.131,8.513,8.513,0,0,0,3.6.689A9.879,9.879,0,0,0,357.41,257a16.809,16.809,0,0,0,2.367-.9l.812-.424,5.793,10.846q-.635.424-1.837,1.077a31.033,31.033,0,0,1-5.069,1.784,28.155,28.155,0,0,1-7.931,1.131,20.673,20.673,0,0,1-14.732-5.547,17.6,17.6,0,0,1-5.9-13.284,17.8,17.8,0,0,1,5.653-13.371,19.739,19.739,0,0,1,14.237-5.423,20.04,20.04,0,0,1,14.237,5.316,16.867,16.867,0,0,1,5.688,12.772,10.916,10.916,0,0,1-.194,2.137,13.016,13.016,0,0,1-.336,1.4l-.212.423Zm-.194-9.821a4.966,4.966,0,0,0-1.254,2.615h7.243a4.9,4.9,0,0,0-1.272-2.615,3.175,3.175,0,0,0-2.367-1.024A3.121,3.121,0,0,0,348.455,245.11Z" transform="translate(-206.219 -232.887)" fill="#fff"/>
      <path id="Path_5306" data-name="Path 5306" d="M419.656,250.756a8.527,8.527,0,0,0-3.6-.742,6.2,6.2,0,0,0-4.787,1.89,7.594,7.594,0,0,0-1.749,5.353v12.294H392.877V234.082h16.639v4.345c.095-.141.218-.318.371-.53a12.96,12.96,0,0,1,1.095-1.184,14.319,14.319,0,0,1,1.837-1.554,10,10,0,0,1,2.632-1.237,10.977,10.977,0,0,1,3.462-.548h.742Z" transform="translate(-225.573 -233.022)" fill="#fff"/>
    </g>
  </g>
</svg>
