<svg xmlns="http://www.w3.org/2000/svg" width="21.156" height="17.721" viewBox="0 0 21.156 17.721"><g transform="translate(1 1.047)"><g transform="translate(0 0)"><path d="M18.354,18.673h3.483V14.909a.871.871,0,0,0-.548-.808l-3.258-1.306a.871.871,0,0,1-.548-.806v-.765a3.467,3.467,0,0,0,1.741-3V6.483A3.483,3.483,0,0,0,14,3.466" transform="translate(-2.68 -2.999)" fill="none" stroke="#fff" stroke-linecap="round" stroke-linejoin="round" stroke-miterlimit="10" stroke-width="2"/><path d="M12.643,15.1,9.384,13.795a.871.871,0,0,1-.548-.806v-.765a3.467,3.467,0,0,0,1.741-3V7.483a3.483,3.483,0,1,0-6.966,0V9.224a3.467,3.467,0,0,0,1.741,3v.765a.871.871,0,0,1-.548.808L1.548,15.1A.871.871,0,0,0,1,15.909V18.8H13.19V15.909a.871.871,0,0,0-.548-.808Z" transform="translate(-1 -3.128)" fill="none" stroke="#fff" stroke-linecap="round" stroke-linejoin="round" stroke-miterlimit="10" stroke-width="2"/></g></g></svg>