<svg width="226" height="68" viewBox="0 0 226 68" fill="none" xmlns="http://www.w3.org/2000/svg">
<path d="M145.11 0.9375L117.28 21.607L122.427 9.41226L145.11 0.9375Z" fill="#E2761B" stroke="#E2761B" stroke-linecap="round" stroke-linejoin="round"/>
<path d="M80.8643 0.9375L108.47 21.8027L103.575 9.41226L80.8643 0.9375Z" fill="#E4761B" stroke="#E4761B" stroke-linecap="round" stroke-linejoin="round"/>
<path d="M135.097 48.8496L127.685 60.2053L143.544 64.5685L148.103 49.1013L135.097 48.8496Z" fill="#E4761B" stroke="#E4761B" stroke-linecap="round" stroke-linejoin="round"/>
<path d="M77.9272 49.1013L82.4583 64.5685L98.317 60.2053L90.9051 48.8496L77.9272 49.1013Z" fill="#E4761B" stroke="#E4761B" stroke-linecap="round" stroke-linejoin="round"/>
<path d="M97.4221 29.6626L93.0029 36.3473L108.75 37.0465L108.19 20.125L97.4221 29.6626Z" fill="#E4761B" stroke="#E4761B" stroke-linecap="round" stroke-linejoin="round"/>
<path d="M128.552 29.6621L117.644 19.9287L117.28 37.0461L132.999 36.3469L128.552 29.6621Z" fill="#E4761B" stroke="#E4761B" stroke-linecap="round" stroke-linejoin="round"/>
<path d="M98.3169 60.2049L107.771 55.59L99.6035 49.2129L98.3169 60.2049Z" fill="#E4761B" stroke="#E4761B" stroke-linecap="round" stroke-linejoin="round"/>
<path d="M118.203 55.59L127.685 60.2049L126.37 49.2129L118.203 55.59Z" fill="#E4761B" stroke="#E4761B" stroke-linecap="round" stroke-linejoin="round"/>
<path d="M127.685 60.2048L118.203 55.5898L118.958 61.7711L118.874 64.3722L127.685 60.2048Z" fill="#D7C1B3" stroke="#D7C1B3" stroke-linecap="round" stroke-linejoin="round"/>
<path d="M98.3169 60.2048L107.127 64.3722L107.071 61.7711L107.771 55.5898L98.3169 60.2048Z" fill="#D7C1B3" stroke="#D7C1B3" stroke-linecap="round" stroke-linejoin="round"/>
<path d="M107.267 45.1294L99.3799 42.8079L104.946 40.2627L107.267 45.1294Z" fill="#233447" stroke="#233447" stroke-linecap="round" stroke-linejoin="round"/>
<path d="M118.707 45.1294L121.028 40.2627L126.622 42.8079L118.707 45.1294Z" fill="#233447" stroke="#233447" stroke-linecap="round" stroke-linejoin="round"/>
<path d="M98.3172 60.2043L99.6597 48.8486L90.9053 49.1003L98.3172 60.2043Z" fill="#CD6116" stroke="#CD6116" stroke-linecap="round" stroke-linejoin="round"/>
<path d="M126.343 48.8486L127.685 60.2043L135.097 49.1003L126.343 48.8486Z" fill="#CD6116" stroke="#CD6116" stroke-linecap="round" stroke-linejoin="round"/>
<path d="M132.999 36.3467L117.28 37.0459L118.735 45.1291L121.056 40.2624L126.65 42.8076L132.999 36.3467Z" fill="#CD6116" stroke="#CD6116" stroke-linecap="round" stroke-linejoin="round"/>
<path d="M99.38 42.8076L104.974 40.2624L107.267 45.1291L108.75 37.0459L93.0029 36.3467L99.38 42.8076Z" fill="#CD6116" stroke="#CD6116" stroke-linecap="round" stroke-linejoin="round"/>
<path d="M93.0029 36.3467L99.6037 49.2126L99.38 42.8076L93.0029 36.3467Z" fill="#E4751F" stroke="#E4751F" stroke-linecap="round" stroke-linejoin="round"/>
<path d="M126.65 42.8076L126.371 49.2126L132.999 36.3467L126.65 42.8076Z" fill="#E4751F" stroke="#E4751F" stroke-linecap="round" stroke-linejoin="round"/>
<path d="M108.75 37.0459L107.268 45.1291L109.114 54.6667L109.533 42.1084L108.75 37.0459Z" fill="#E4751F" stroke="#E4751F" stroke-linecap="round" stroke-linejoin="round"/>
<path d="M117.281 37.0459L116.525 42.0804L116.861 54.6667L118.735 45.1291L117.281 37.0459Z" fill="#E4751F" stroke="#E4751F" stroke-linecap="round" stroke-linejoin="round"/>
<path d="M118.735 45.1291L116.861 54.6667L118.203 55.5896L126.37 49.2126L126.65 42.8076L118.735 45.1291Z" fill="#F6851B" stroke="#F6851B" stroke-linecap="round" stroke-linejoin="round"/>
<path d="M99.3799 42.8076L99.6036 49.2126L107.771 55.5896L109.113 54.6667L107.267 45.1291L99.3799 42.8076Z" fill="#F6851B" stroke="#F6851B" stroke-linecap="round" stroke-linejoin="round"/>
<path d="M118.875 64.3724L118.958 61.7714L118.259 61.156H107.715L107.071 61.7714L107.127 64.3724L98.3169 60.2051L101.394 62.7224L107.631 67.0576H118.343L124.608 62.7224L127.685 60.2051L118.875 64.3724Z" fill="#C0AD9E" stroke="#C0AD9E" stroke-linecap="round" stroke-linejoin="round"/>
<path d="M118.203 55.59L116.861 54.667H109.113L107.771 55.59L107.071 61.7712L107.715 61.1559H118.259L118.958 61.7712L118.203 55.59Z" fill="#161616" stroke="#161616" stroke-linecap="round" stroke-linejoin="round"/>
<path d="M146.284 22.9495L148.662 11.5379L145.11 0.9375L118.203 20.9077L128.552 29.6622L143.18 33.9415L146.424 30.1656L145.026 29.1587L147.263 27.117L145.529 25.7744L147.767 24.0683L146.284 22.9495Z" fill="#763D16" stroke="#763D16" stroke-linecap="round" stroke-linejoin="round"/>
<path d="M77.3398 11.5379L79.7172 22.9495L78.2069 24.0683L80.4445 25.7744L78.7383 27.117L80.9759 29.1587L79.5774 30.1656L82.7939 33.9415L97.422 29.6622L107.771 20.9077L80.864 0.9375L77.3398 11.5379Z" fill="#763D16" stroke="#763D16" stroke-linecap="round" stroke-linejoin="round"/>
<path d="M143.18 33.9415L128.552 29.6621L132.999 36.3468L126.37 49.2128L135.097 49.1009H148.102L143.18 33.9415Z" fill="#F6851B" stroke="#F6851B" stroke-linecap="round" stroke-linejoin="round"/>
<path d="M97.422 29.6621L82.7939 33.9415L77.9272 49.1009H90.9051L99.6036 49.2128L93.0028 36.3468L97.422 29.6621Z" fill="#F6851B" stroke="#F6851B" stroke-linecap="round" stroke-linejoin="round"/>
<path d="M117.28 37.046L118.203 20.9076L122.455 9.41211H103.575L107.771 20.9076L108.75 37.046L109.085 42.1364L109.113 54.6667H116.861L116.917 42.1364L117.28 37.046Z" fill="#F6851B" stroke="#F6851B" stroke-linecap="round" stroke-linejoin="round"/>
<path opacity="0.366859" d="M5.13018 15.565C12.3858 14.8848 189.415 15.565 189.415 15.565C189.415 15.565 192.342 17.1485 192.342 19.5149C192.342 21.8814 189.415 23.3577 189.415 23.3577H173.317C173.317 23.3577 171.44 24.7928 171.44 26.4341C171.44 28.0754 173.317 29.9229 173.317 29.9229H222.429C222.429 29.9229 225.092 32.3109 225.092 34.4036C225.092 36.4963 222.429 38.2938 222.429 38.2938H173.317C173.317 38.2938 171.44 39.9154 171.44 41.5711C171.44 43.2268 173.317 44.9166 173.317 44.9166H208.784C208.784 44.9166 211.447 47.4495 211.447 49.3616C211.447 51.2737 208.784 52.565 208.784 52.565C208.784 52.565 36.3014 52.9415 31.8478 52.565C27.3943 52.1885 27.3749 45.6119 31.8478 44.9166C36.3208 44.2212 60.3674 44.9166 60.3674 44.9166C60.3674 44.9166 62.5402 42.8845 62.5402 41.5618C62.5402 40.2391 60.3674 38.2938 60.3674 38.2938C60.3674 38.2938 22.3853 38.116 20.7024 38.2938C19.9098 38.3775 17.2654 36.858 16.6936 34.6343C16.2051 32.7787 17.9702 30.1733 20.7024 29.9229C25.8673 29.4495 60.3674 29.9229 60.3674 29.9229C60.3674 29.9229 62.5402 28.8615 62.5402 27.2081C62.5402 25.5547 60.3674 23.3577 60.3674 23.3577C60.3674 23.3577 8.86408 23.444 5.13018 23.3577C1.39628 23.2714 -2.12542 16.2452 5.13018 15.565Z" fill="#F6851B"/>
</svg>
