<svg xmlns="http://www.w3.org/2000/svg" width="46.37" height="43.06" viewBox="0 0 46.37 43.06"><g transform="translate(-31.3 -35)"><path d="M192.3,35.5,174.6,48.648l3.274-7.757Z" transform="translate(-117.393)" fill="#e2761b" stroke="#e2761b" stroke-linecap="round" stroke-linejoin="round" stroke-width="1"/><g transform="translate(32.174 35.5)"><path d="M44.4,35.5,61.961,48.773l-3.114-7.882Z" transform="translate(-42.532 -35.5)" fill="#e4761b" stroke="#e4761b" stroke-linecap="round" stroke-linejoin="round" stroke-width="1"/><path d="M216.515,206.8l-4.715,7.224,10.088,2.776,2.9-9.839Z" transform="translate(-180.148 -176.322)" fill="#e4761b" stroke="#e4761b" stroke-linecap="round" stroke-linejoin="round" stroke-width="1"/><path d="M33.9,206.96l2.882,9.839,10.088-2.776L42.155,206.8Z" transform="translate(-33.9 -176.322)" fill="#e4761b" stroke="#e4761b" stroke-linecap="round" stroke-linejoin="round" stroke-width="1"/><path d="M90.611,110.167,87.8,114.419l10.017.445L97.461,104.1Z" transform="translate(-78.21 -91.895)" fill="#e4761b" stroke="#e4761b" stroke-linecap="round" stroke-linejoin="round" stroke-width="1"/><path d="M181.77,109.592l-6.939-6.192-.231,10.889,10-.445Z" transform="translate(-149.567 -91.319)" fill="#e4761b" stroke="#e4761b" stroke-linecap="round" stroke-linejoin="round" stroke-width="1"/><path d="M106.8,215.092l6.014-2.936-5.2-4.057Z" transform="translate(-93.83 -177.391)" fill="#e4761b" stroke="#e4761b" stroke-linecap="round" stroke-linejoin="round" stroke-width="1"/><path d="M177.9,212.157l6.031,2.936L183.1,208.1Z" transform="translate(-152.28 -177.391)" fill="#e4761b" stroke="#e4761b" stroke-linecap="round" stroke-linejoin="round" stroke-width="1"/></g><g transform="translate(45.144 70.265)"><path d="M183.931,233.836,177.9,230.9l.48,3.932-.053,1.655Z" transform="translate(-165.25 -230.9)" fill="#d7c1b3" stroke="#d7c1b3" stroke-linecap="round" stroke-linejoin="round" stroke-width="1"/><path d="M106.8,233.836l5.6,2.651-.036-1.655.445-3.932Z" transform="translate(-106.8 -230.9)" fill="#d7c1b3" stroke="#d7c1b3" stroke-linecap="round" stroke-linejoin="round" stroke-width="1"/></g><path d="M115.617,179.2l-5.017-1.477,3.541-1.619Z" transform="translate(-64.78 -115.585)" fill="#233447" stroke="#233447" stroke-linecap="round" stroke-linejoin="round" stroke-width="1"/><path d="M179.7,179.2l1.477-3.1,3.558,1.619Z" transform="translate(-121.586 -115.585)" fill="#233447" stroke="#233447" stroke-linecap="round" stroke-linejoin="round" stroke-width="1"/><g transform="translate(40.429 58.025)"><path d="M85.015,214.024l.854-7.224-5.569.16Z" transform="translate(-80.3 -198.847)" fill="#cd6116" stroke="#cd6116" stroke-linecap="round" stroke-linejoin="round" stroke-width="1"/><path d="M207,206.8l.854,7.224,4.715-7.063Z" transform="translate(-184.458 -198.847)" fill="#cd6116" stroke="#cd6116" stroke-linecap="round" stroke-linejoin="round" stroke-width="1"/><path d="M184.6,162.1l-10,.445.925,5.142,1.477-3.1,3.558,1.619Z" transform="translate(-157.822 -162.1)" fill="#cd6116" stroke="#cd6116" stroke-linecap="round" stroke-linejoin="round" stroke-width="1"/><path d="M91.857,166.21l3.558-1.619,1.459,3.1.943-5.142L87.8,162.1Z" transform="translate(-86.466 -162.1)" fill="#cd6116" stroke="#cd6116" stroke-linecap="round" stroke-linejoin="round" stroke-width="1"/></g><g transform="translate(41.764 58.025)"><path d="M87.8,162.1l4.2,8.184-.142-4.074Z" transform="translate(-87.8 -162.1)" fill="#e4751f" stroke="#e4751f" stroke-linecap="round" stroke-linejoin="round" stroke-width="1"/><path d="M207.278,166.21l-.178,4.074,4.217-8.184Z" transform="translate(-185.874 -162.1)" fill="#e4751f" stroke="#e4751f" stroke-linecap="round" stroke-linejoin="round" stroke-width="1"/><path d="M139.743,164.6l-.943,5.142,1.174,6.067.267-7.989Z" transform="translate(-129.726 -164.155)" fill="#e4751f" stroke="#e4751f" stroke-linecap="round" stroke-linejoin="round" stroke-width="1"/><path d="M172.38,164.6l-.48,3.2.214,8.006,1.192-6.067Z" transform="translate(-156.937 -164.155)" fill="#e4751f" stroke="#e4751f" stroke-linecap="round" stroke-linejoin="round" stroke-width="1"/></g><path d="M174.292,186.677l-1.192,6.067.854.587,5.2-4.057.178-4.074Z" transform="translate(-116.16 -123.065)" fill="#f6851b" stroke="#f6851b" stroke-linecap="round" stroke-linejoin="round" stroke-width="1"/><path d="M110.6,185.2l.142,4.074,5.2,4.057.854-.587-1.174-6.067Z" transform="translate(-64.78 -123.065)" fill="#f6851b" stroke="#f6851b" stroke-linecap="round" stroke-linejoin="round" stroke-width="1"/><path d="M119.877,250.051l.053-1.655-.445-.391h-6.708l-.409.391.036,1.655-5.6-2.651,1.957,1.6,3.968,2.758h6.814L123.524,249l1.957-1.6Z" transform="translate(-61.656 -174.199)" fill="#c0ad9e" stroke="#c0ad9e" stroke-linecap="round" stroke-linejoin="round" stroke-width="1"/><path d="M145.181,228.187l-.854-.587H139.4l-.854.587-.445,3.932.409-.391h6.708l.445.391Z" transform="translate(-87.387 -157.922)" fill="#161616" stroke="#161616" stroke-linecap="round" stroke-linejoin="round" stroke-width="1"/><g transform="translate(31.8 35.5)"><path d="M195.763,49.5l1.512-7.259-2.26-6.743L177.9,48.2l6.583,5.569,9.305,2.722,2.064-2.4-.89-.641,1.423-1.3-1.1-.854,1.423-1.085Z" transform="translate(-151.906 -35.5)" fill="#763d16" stroke="#763d16" stroke-linecap="round" stroke-linejoin="round" stroke-width="1"/><path d="M31.8,42.243,33.312,49.5l-.961.712L33.775,51.3l-1.085.854,1.423,1.3-.89.641,2.046,2.4,9.305-2.722L51.158,48.2,34.042,35.5Z" transform="translate(-31.8 -35.5)" fill="#763d16" stroke="#763d16" stroke-linecap="round" stroke-linejoin="round" stroke-width="1"/></g><path d="M217.793,140.922l-9.305-2.722,2.829,4.252-4.217,8.184,5.551-.071h8.273Z" transform="translate(-144.111 -84.428)" fill="#f6851b" stroke="#f6851b" stroke-linecap="round" stroke-linejoin="round" stroke-width="1"/><path d="M46.3,138.2,37,140.922l-3.1,9.643h8.255l5.533.071-4.2-8.184Z" transform="translate(-1.726 -84.428)" fill="#f6851b" stroke="#f6851b" stroke-linecap="round" stroke-linejoin="round" stroke-width="1"/><path d="M134.318,83.378l.587-10.266,2.7-7.312H125.6l2.669,7.313.623,10.266.214,3.238.018,7.971h4.928l.036-7.971Z" transform="translate(-77.111 -24.909)" fill="#f6851b" stroke="#f6851b" stroke-linecap="round" stroke-linejoin="round" stroke-width="1"/></g></svg>