<svg xmlns="http://www.w3.org/2000/svg" width="224.184" height="67.12" viewBox="0 0 224.184 67.12">
  <path id="Path_6828" data-name="Path 6828" d="M-.247,0C7.009-.68,184.038,0,184.038,0s2.927,1.584,2.927,3.95-2.927,3.843-2.927,3.843h-16.1s-1.878,1.435-1.878,3.076,1.878,3.489,1.878,3.489h49.112s2.663,2.388,2.663,4.481-2.663,3.89-2.663,3.89H167.94s-1.878,1.622-1.878,3.277,1.878,3.345,1.878,3.345h35.467s2.663,2.533,2.663,4.445-2.663,3.2-2.663,3.2-172.483.376-176.936,0-4.473-6.953,0-7.648,28.52,0,28.52,0S57.163,27.32,57.163,26s-2.173-3.268-2.173-3.268-37.982-.178-39.665,0c-.793.084-3.437-1.436-4.009-3.659-.488-1.856,1.277-4.461,4.009-4.711,5.165-.473,39.665,0,39.665,0s2.173-1.061,2.173-2.715-2.173-3.85-2.173-3.85-51.5.086-55.237,0S-7.5.68-.247,0Z" transform="translate(4.469 15.127)" fill="#f6851b" opacity="0.367"/>
  <g id="MetaMask_Fox" transform="translate(76.432 0.5)">
    <path id="Path_6348" data-name="Path 6348" d="M202.43,35.5,174.6,56.169l5.146-12.195Z" transform="translate(-134.66 -35.5)" fill="#e2761b" stroke="#e2761b" stroke-linecap="round" stroke-linejoin="round" stroke-width="1"/>
    <g id="Group_8220" data-name="Group 8220" transform="translate(0.587)">
      <path id="Path_6349" data-name="Path 6349" d="M44.4,35.5,72.006,56.365l-4.895-12.39Z" transform="translate(-41.463 -35.5)" fill="#e4761b" stroke="#e4761b" stroke-linecap="round" stroke-linejoin="round" stroke-width="1"/>
      <path id="Path_6350" data-name="Path 6350" d="M219.212,206.8,211.8,218.156l15.859,4.363,4.559-15.467Z" transform="translate(-162.042 -158.888)" fill="#e4761b" stroke="#e4761b" stroke-linecap="round" stroke-linejoin="round" stroke-width="1"/>
      <path id="Path_6351" data-name="Path 6351" d="M33.9,207.052l4.531,15.467,15.859-4.363L46.878,206.8Z" transform="translate(-33.9 -158.888)" fill="#e4761b" stroke="#e4761b" stroke-linecap="round" stroke-linejoin="round" stroke-width="1"/>
      <path id="Path_6352" data-name="Path 6352" d="M92.219,113.638,87.8,120.322l15.747.7-.559-16.922Z" transform="translate(-72.724 -84.913)" fill="#e4761b" stroke="#e4761b" stroke-linecap="round" stroke-linejoin="round" stroke-width="1"/>
      <path id="Path_6353" data-name="Path 6353" d="M185.872,113.133,174.964,103.4l-.364,17.117,15.719-.7Z" transform="translate(-135.247 -84.409)" fill="#e4761b" stroke="#e4761b" stroke-linecap="round" stroke-linejoin="round" stroke-width="1"/>
      <path id="Path_6354" data-name="Path 6354" d="M106.8,219.092l9.454-4.615-8.167-6.377Z" transform="translate(-86.41 -159.825)" fill="#e4761b" stroke="#e4761b" stroke-linecap="round" stroke-linejoin="round" stroke-width="1"/>
      <path id="Path_6355" data-name="Path 6355" d="M177.9,214.477l9.482,4.615L186.067,208.1Z" transform="translate(-137.624 -159.825)" fill="#e4761b" stroke="#e4761b" stroke-linecap="round" stroke-linejoin="round" stroke-width="1"/>
    </g>
    <g id="Group_8221" data-name="Group 8221" transform="translate(20.977 54.652)">
      <path id="Path_6356" data-name="Path 6356" d="M187.382,235.515,177.9,230.9l.755,6.181-.084,2.6Z" transform="translate(-158.014 -230.9)" fill="#d7c1b3" stroke="#d7c1b3" stroke-linecap="round" stroke-linejoin="round" stroke-width="1"/>
      <path id="Path_6357" data-name="Path 6357" d="M106.8,235.515l8.81,4.167-.056-2.6.7-6.181Z" transform="translate(-106.8 -230.9)" fill="#d7c1b3" stroke="#d7c1b3" stroke-linecap="round" stroke-linejoin="round" stroke-width="1"/>
    </g>
    <path id="Path_6358" data-name="Path 6358" d="M118.487,180.967l-7.887-2.321,5.566-2.545Z" transform="translate(-88.56 -136.775)" fill="#233447" stroke="#233447" stroke-linecap="round" stroke-linejoin="round" stroke-width="1"/>
    <path id="Path_6359" data-name="Path 6359" d="M179.7,180.967l2.321-4.867,5.594,2.545Z" transform="translate(-138.333 -136.775)" fill="#233447" stroke="#233447" stroke-linecap="round" stroke-linejoin="round" stroke-width="1"/>
    <g id="Group_8222" data-name="Group 8222" transform="translate(13.565 35.409)">
      <path id="Path_6360" data-name="Path 6360" d="M87.712,218.156,89.054,206.8l-8.754.252Z" transform="translate(-80.3 -194.298)" fill="#cd6116" stroke="#cd6116" stroke-linecap="round" stroke-linejoin="round" stroke-width="1"/>
      <path id="Path_6361" data-name="Path 6361" d="M207,206.8l1.343,11.356,7.412-11.1Z" transform="translate(-171.563 -194.298)" fill="#cd6116" stroke="#cd6116" stroke-linecap="round" stroke-linejoin="round" stroke-width="1"/>
      <path id="Path_6362" data-name="Path 6362" d="M190.319,162.1l-15.719.7,1.454,8.083,2.322-4.867,5.594,2.545Z" transform="translate(-148.225 -162.1)" fill="#cd6116" stroke="#cd6116" stroke-linecap="round" stroke-linejoin="round" stroke-width="1"/>
      <path id="Path_6363" data-name="Path 6363" d="M94.177,168.561l5.594-2.545,2.294,4.867,1.482-8.083L87.8,162.1Z" transform="translate(-85.702 -162.1)" fill="#cd6116" stroke="#cd6116" stroke-linecap="round" stroke-linejoin="round" stroke-width="1"/>
    </g>
    <g id="Group_8223" data-name="Group 8223" transform="translate(15.663 35.409)">
      <path id="Path_6364" data-name="Path 6364" d="M87.8,162.1l6.6,12.866-.224-6.405Z" transform="translate(-87.8 -162.1)" fill="#e4751f" stroke="#e4751f" stroke-linecap="round" stroke-linejoin="round" stroke-width="1"/>
      <path id="Path_6365" data-name="Path 6365" d="M207.38,168.561l-.28,6.405,6.629-12.866Z" transform="translate(-173.732 -162.1)" fill="#e4751f" stroke="#e4751f" stroke-linecap="round" stroke-linejoin="round" stroke-width="1"/>
      <path id="Path_6366" data-name="Path 6366" d="M140.282,164.6l-1.482,8.083,1.846,9.538.42-12.558Z" transform="translate(-124.536 -163.901)" fill="#e4751f" stroke="#e4751f" stroke-linecap="round" stroke-linejoin="round" stroke-width="1"/>
      <path id="Path_6367" data-name="Path 6367" d="M172.655,164.6l-.755,5.035.336,12.586,1.874-9.538Z" transform="translate(-148.378 -163.901)" fill="#e4751f" stroke="#e4751f" stroke-linecap="round" stroke-linejoin="round" stroke-width="1"/>
    </g>
    <path id="Path_6368" data-name="Path 6368" d="M174.974,187.521l-1.874,9.538,1.343.923,8.167-6.377.28-6.4Z" transform="translate(-133.579 -143.33)" fill="#f6851b" stroke="#f6851b" stroke-linecap="round" stroke-linejoin="round" stroke-width="1"/>
    <path id="Path_6369" data-name="Path 6369" d="M110.6,185.2l.224,6.4,8.167,6.377,1.343-.923-1.846-9.538Z" transform="translate(-88.56 -143.33)" fill="#f6851b" stroke="#f6851b" stroke-linecap="round" stroke-linejoin="round" stroke-width="1"/>
    <path id="Path_6370" data-name="Path 6370" d="M127.358,251.567l.084-2.6-.7-.615H116.2l-.643.615.056,2.6L106.8,247.4l3.077,2.517,6.237,4.335h10.712l6.265-4.335,3.077-2.517Z" transform="translate(-85.823 -188.133)" fill="#c0ad9e" stroke="#c0ad9e" stroke-linecap="round" stroke-linejoin="round" stroke-width="1"/>
    <path id="Path_6371" data-name="Path 6371" d="M149.232,228.523l-1.343-.923h-7.748l-1.343.923-.7,6.181.643-.615h10.544l.7.615Z" transform="translate(-108.368 -173.871)" fill="#161616" stroke="#161616" stroke-linecap="round" stroke-linejoin="round" stroke-width="1"/>
    <g id="Group_8224" data-name="Group 8224">
      <path id="Path_6372" data-name="Path 6372" d="M205.981,57.512,208.359,46.1l-3.552-10.6L177.9,55.47l10.349,8.754L202.877,68.5l3.244-3.776-1.4-1.007,2.238-2.042-1.734-1.343,2.238-1.706Z" transform="translate(-137.037 -35.5)" fill="#763d16" stroke="#763d16" stroke-linecap="round" stroke-linejoin="round" stroke-width="1"/>
      <path id="Path_6373" data-name="Path 6373" d="M31.8,46.1l2.377,11.412-1.51,1.119L34.9,60.337,33.2,61.679l2.238,2.042-1.4,1.007L37.254,68.5l14.628-4.279L62.231,55.47,35.324,35.5Z" transform="translate(-31.8 -35.5)" fill="#763d16" stroke="#763d16" stroke-linecap="round" stroke-linejoin="round" stroke-width="1"/>
    </g>
    <path id="Path_6374" data-name="Path 6374" d="M223.91,142.479,209.282,138.2l4.447,6.685L207.1,157.751l8.726-.112h13.006Z" transform="translate(-158.069 -109.475)" fill="#f6851b" stroke="#f6851b" stroke-linecap="round" stroke-linejoin="round" stroke-width="1"/>
    <path id="Path_6375" data-name="Path 6375" d="M53.395,138.2l-14.628,4.279L33.9,157.639H46.878l8.7.112-6.6-12.866Z" transform="translate(-33.313 -109.475)" fill="#f6851b" stroke="#f6851b" stroke-linecap="round" stroke-linejoin="round" stroke-width="1"/>
    <path id="Path_6376" data-name="Path 6376" d="M139.305,93.434l.923-16.138,4.251-11.5H125.6l4.2,11.5.979,16.138.336,5.09.028,12.53h7.748l.056-12.53Z" transform="translate(-99.365 -57.325)" fill="#f6851b" stroke="#f6851b" stroke-linecap="round" stroke-linejoin="round" stroke-width="1"/>
  </g>
</svg>