<svg xmlns="http://www.w3.org/2000/svg" width="224.184" height="37.47" viewBox="0 0 224.184 37.47"><path d="M-.247,0C7.009-.68,184.038,0,184.038,0s2.927,1.584,2.927,3.95-2.927,3.843-2.927,3.843h-16.1s-1.878,1.435-1.878,3.076,1.878,3.489,1.878,3.489h49.112s2.663,2.388,2.663,4.481-2.663,3.89-2.663,3.89H167.94s-1.878,1.622-1.878,3.277,1.878,3.345,1.878,3.345h35.467s2.663,2.533,2.663,4.445-2.663,3.2-2.663,3.2-172.483.376-176.936,0-4.473-6.953,0-7.648,28.52,0,28.52,0S57.163,27.32,57.163,26s-2.173-3.268-2.173-3.268-37.982-.178-39.665,0c-.793.084-3.437-1.436-4.009-3.659-.488-1.856,1.277-4.461,4.009-4.711,5.165-.473,39.665,0,39.665,0s2.173-1.061,2.173-2.715-2.173-3.85-2.173-3.85-51.5.086-55.237,0S-7.5.68-.247,0Z" transform="translate(4.469 0.302)" fill="#215454"/></svg>