<svg xmlns="http://www.w3.org/2000/svg" width="26.486" height="35.069" viewBox="0 0 26.486 35.069"><g transform="translate(0 0)"><path d="M13,0a12.336,12.336,0,0,1,9.166,4.111,12.9,12.9,0,0,1,3.256,6.94,15.626,15.626,0,0,1,0,4.2,1.025,1.025,0,0,1-.42.709,7.987,7.987,0,0,1-4.89,1.685,8.635,8.635,0,0,1-3.839-.778,14.89,14.89,0,0,1-2.684-1.788,9.566,9.566,0,0,0-4.674-2.1,9.342,9.342,0,0,0-6.632,1.411c-.434.29-.855.6-1.288.894-.317.213-.386.169-.422-.215a19.1,19.1,0,0,1-.121-2.231,13.276,13.276,0,0,1,3-8.276,12.5,12.5,0,0,1,8-4.481,7.076,7.076,0,0,1,.784-.076C12.5-.007,12.749,0,13,0Z" fill="#f2b704"/><path d="M20.113,21.009a9.115,9.115,0,0,1-5.663-1.915,21.491,21.491,0,0,0-2.88-1.961,8.193,8.193,0,0,0-3.431-.894,8.608,8.608,0,0,0-4.582.949,26.361,26.361,0,0,0-2.279,1.539c-.5.337-.874.288-1.143-.152a.7.7,0,0,1,.119-.952A12.018,12.018,0,0,1,5.47,14.871,10.458,10.458,0,0,1,14.2,17.008a11.328,11.328,0,0,0,4.248,2.255,7.328,7.328,0,0,0,5.626-.92c.431-.253.834-.554,1.256-.824a.7.7,0,0,1,1.131.461.659.659,0,0,1-.2.682A7.562,7.562,0,0,1,24.514,19.9,8.766,8.766,0,0,1,20.113,21.009Z" fill="#4fcac7"/><path d="M7.6,26.451V18.932c0-.628.232-1.008.622-1.029s.894.488.961.956a2.738,2.738,0,0,1,.013.362q0,7.123-.007,14.246a3.98,3.98,0,0,1-.111,1.043.67.67,0,0,1-.756.552.659.659,0,0,1-.674-.571,1.8,1.8,0,0,1-.047-.522Q7.6,30.212,7.6,26.451Z" fill="#4fcac7"/><path d="M16.821,27.1V23.478a1.6,1.6,0,0,1,.1-.613.725.725,0,0,1,.779-.485.707.707,0,0,1,.652.57,2.444,2.444,0,0,1,.074.619v7.086a2.408,2.408,0,0,1-.06.555c-.1.423-.292.6-.667.618a.724.724,0,0,1-.808-.578,1.69,1.69,0,0,1-.063-.52Q16.822,28.915,16.821,27.1Z" fill="#4fcac7"/><path d="M6.034,20.655c.012.986.02,1.776.039,2.566.027,1.1-.018,2.195-.039,3.292a.7.7,0,0,1-.648.749c-.023,0-.045,0-.067,0a.723.723,0,0,1-.8-.637.546.546,0,0,1,0-.058,2.3,2.3,0,0,1-.007-.263V19.319a1.671,1.671,0,0,1,.208-.915.635.635,0,0,1,.592-.369.677.677,0,0,1,.588.433,1.593,1.593,0,0,1,.142.669C6.033,19.709,6.034,20.28,6.034,20.655Z" fill="#4fcac7"/><path d="M19.914,26.836v-3.1a1.636,1.636,0,0,1,.076-.551.742.742,0,0,1,.715-.544.759.759,0,0,1,.728.615,3.225,3.225,0,0,1,.077.685q0,2.885-.005,5.769a3.622,3.622,0,0,1-.054.588.725.725,0,0,1-.739.667.707.707,0,0,1-.753-.609,1.771,1.771,0,0,1-.042-.423C19.912,28.9,19.914,27.869,19.914,26.836Z" fill="#4fcac7"/><path d="M12.232,22.848v2.439a2.732,2.732,0,0,1-.008.3.831.831,0,0,1-.754.83c-.38.008-.686-.289-.775-.767a2.854,2.854,0,0,1-.055-.522q0-2.224.005-4.45a6.107,6.107,0,0,1,.062-.787.754.754,0,0,1,.671-.677.734.734,0,0,1,.772.548,1.862,1.862,0,0,1,.082.584C12.229,21.178,12.232,22.013,12.232,22.848Z" fill="#4fcac7"/><path d="M1.408,23.309c0-.889-.009-1.778,0-2.667.009-.681.5-1.071,1.039-.835a.818.818,0,0,1,.49.777c.07,1.7.06,3.4.05,5.1a3.864,3.864,0,0,1-.057.588.8.8,0,0,1-.725.668.689.689,0,0,1-.729-.546,1.592,1.592,0,0,1-.073-.518V23.308Z" fill="#4fcac7"/><path d="M24.607,24.161c0,.451.015.9,0,1.352a.8.8,0,0,1-1.164.782.84.84,0,0,1-.413-.8c-.017-.912-.022-1.825,0-2.737.014-.539.263-.8.713-.846.5-.052.84.288.864.9C24.622,23.261,24.607,23.709,24.607,24.161Z" fill="#4fcac7"/><path d="M15.311,22.641a4.2,4.2,0,0,1-.049.861.718.718,0,0,1-.721.641.7.7,0,0,1-.741-.615,6.168,6.168,0,0,1,0-1.83.668.668,0,0,1,.666-.58.687.687,0,0,1,.774.523A3.144,3.144,0,0,1,15.311,22.641Z" fill="#4fcac7"/></g></svg>