<svg width="493" height="83" viewBox="0 0 493 83" fill="none" xmlns="http://www.w3.org/2000/svg">
<g filter="url(#filter0_d_3_18465)">
<path d="M10.3354 7.612H30.7174L48.0894 38.486H48.4334L47.5734 7.612H67.0094V68.5H46.1114L29.2554 39.432H28.9114L29.7714 68.5H10.3354V7.612ZM76.2127 7.612H118.095V24.64H95.4767V29.886H116.719V45.796H95.4767V51.472H119.557V68.5H76.2127V7.612ZM154.003 50.698L143.425 68.5H119.173L140.931 36.766L120.291 7.612H144.973L154.605 23.608L163.807 7.612H187.887L167.591 36.508L190.037 68.5H165.011L154.003 50.698ZM222.872 68.5H202.404V24.898H187.44V7.612H237.836V24.898H222.872V68.5Z" fill="white"/>
<path d="M272.117 69.79C283.039 69.79 292.155 66.092 298.691 60.76V32.896H269.537V45.796H279.857V51.816C278.309 52.676 276.417 53.192 272.977 53.192C264.549 53.192 258.615 47.344 258.615 38.83V38.658C258.615 30.488 264.291 24.468 272.117 24.468C277.105 24.468 281.491 26.36 285.447 29.714L296.713 16.126C290.177 10.45 281.835 7.01 271.515 7.01C252.509 7.01 238.319 20.426 238.319 38.4V38.572C238.319 57.234 253.369 69.79 272.117 69.79ZM302.381 68.5H354.153V51.988H322.161V45.452H351.573V30.918H322.161V24.812H353.723V8.3H302.381V68.5ZM357.424 68.5H377.118V38.658L390.964 60.072H391.308L405.154 38.658V68.5H425.192V8.3H404.208L391.308 29.456L378.408 8.3H357.424V68.5ZM455.822 69.618C471.99 69.618 482.396 61.878 482.396 49.236V49.064C482.396 36.938 472.076 32.466 456.682 29.628C450.318 28.424 448.684 27.392 448.684 25.758V25.586C448.684 24.124 450.06 23.092 453.07 23.092C458.66 23.092 465.454 24.898 471.13 29.026L480.934 15.438C473.968 9.934 465.368 7.18199 453.758 7.18199C437.16 7.18199 428.216 16.04 428.216 27.478V27.65C428.216 40.378 440.084 44.248 453.586 47C460.036 48.29 461.928 49.236 461.928 50.956V51.128C461.928 52.762 460.38 53.708 456.768 53.708C449.716 53.708 442.234 51.644 435.698 46.656L424.948 59.47C432.602 66.178 443.61 69.618 455.822 69.618Z" fill="#DC3BC3"/>
</g>
<defs>
<filter id="filter0_d_3_18465" x="0.335938" y="0.0100098" width="492.061" height="82.78" filterUnits="userSpaceOnUse" color-interpolation-filters="sRGB">
<feFlood flood-opacity="0" result="BackgroundImageFix"/>
<feColorMatrix in="SourceAlpha" type="matrix" values="0 0 0 0 0 0 0 0 0 0 0 0 0 0 0 0 0 0 127 0" result="hardAlpha"/>
<feOffset dy="3"/>
<feGaussianBlur stdDeviation="5"/>
<feComposite in2="hardAlpha" operator="out"/>
<feColorMatrix type="matrix" values="0 0 0 0 0 0 0 0 0 0 0 0 0 0 0 0 0 0 0.501961 0"/>
<feBlend mode="normal" in2="BackgroundImageFix" result="effect1_dropShadow_3_18465"/>
<feBlend mode="normal" in="SourceGraphic" in2="effect1_dropShadow_3_18465" result="shape"/>
</filter>
</defs>
</svg>
