<svg xmlns="http://www.w3.org/2000/svg" width="23.193" height="25.375" viewBox="0 0 23.193 25.375"><g transform="translate(-4 -1.199)"><g transform="translate(5 2.199)"><path d="M11.9,26.7v.156a3.195,3.195,0,1,0,6.389,0V26.7" transform="translate(-4.498 -6.675)" fill="rgba(255,255,255,0)" stroke="#fff" stroke-miterlimit="10" stroke-width="2"/><path d="M20.788,11.908V8.714A7.956,7.956,0,0,0,13,1,8.025,8.025,0,0,0,5.205,8.792v3.117c0,3.506-2.805,4.13-2.805,6.078,0,1.792,4.13,3.195,10.6,3.195s10.6-1.4,10.6-3.195C23.593,16.038,20.788,15.415,20.788,11.908Z" transform="translate(-2.4 -1)" fill="rgba(255,255,255,0)" stroke="#fff" stroke-linecap="square" stroke-miterlimit="10" stroke-width="2"/></g></g></svg>