<svg width="47" height="32" viewBox="0 0 47 32" fill="none" xmlns="http://www.w3.org/2000/svg">
<path d="M16.6322 0.19043H12.4566C12.1682 0.19043 11.9108 0.370747 11.8119 0.641565L0.836488 30.7297C0.754878 30.9536 0.920606 31.1904 1.15883 31.1904H5.33439C5.62276 31.1904 5.88013 31.0101 5.97907 30.7395L16.9545 0.651139C17.0361 0.427281 16.8704 0.19043 16.6322 0.19043ZM21.7109 12.7976C21.6013 12.4969 21.1761 12.4969 21.0662 12.7976L18.9015 18.7328C18.8461 18.8846 18.8461 19.0513 18.9015 19.2031L23.1097 30.7393C23.2084 31.0101 23.466 31.1902 23.7543 31.1902H27.9299C28.1681 31.1902 28.3339 30.9534 28.2523 30.7295L21.7109 12.7976ZM32.3556 18.607C32.4652 18.9076 32.8904 18.9076 33 18.607L39.5498 0.65114C39.6314 0.427282 39.4657 0.19043 39.2274 0.19043H35.0519C34.7635 0.19043 34.5061 0.37052 34.4072 0.641566L30.1906 12.2013C30.1352 12.3531 30.1352 12.5195 30.1906 12.6713L32.3556 18.607ZM24.1225 0.638374C24.0247 0.369379 23.7689 0.19043 23.4828 0.19043H19.2931C19.005 0.19043 18.7476 0.370519 18.6487 0.641337L7.6735 30.7297C7.59189 30.9536 7.75762 31.1904 7.99584 31.1904H12.1716C12.46 31.1904 12.7174 31.0103 12.8163 30.7395L21.2194 7.70221C21.2746 7.55107 21.4882 7.55107 21.5431 7.70221L29.9465 30.7395C30.0452 31.0103 30.3028 31.1904 30.5911 31.1904H34.7669C35.0052 31.1904 35.1709 30.9536 35.0893 30.7299L24.1225 0.638374ZM46.0645 0.19043H41.8884C41.6003 0.19043 41.3427 0.370519 41.244 0.641337L33.6089 21.5727C33.5535 21.7246 33.5535 21.891 33.6089 22.0428L35.7741 27.9785C35.8837 28.2791 36.3089 28.2791 36.4185 27.9785L43.9766 7.25837L46.3868 0.650911C46.4684 0.427281 46.3027 0.19043 46.0645 0.19043Z" fill="#EF8220"/>
</svg>
