<svg id="Group_8891" data-name="Group 8891" xmlns="http://www.w3.org/2000/svg" width="26.514" height="24.883" viewBox="0 0 26.514 24.883">
  <path id="Path_5670" data-name="Path 5670" d="M-2.258,2.594c.17-.459,13.1-4.51,14.325-4.458a92.953,92.953,0,0,1,12.139,3.8c.673.57-5.856,5.18-6.3,5.413l-5.841-2.3L6.4,7.1S-2.427,3.053-2.258,2.594Z" transform="translate(2.26 1.864)" fill="#ffe496"/>
  <path id="Path_5671" data-name="Path 5671" d="M-8.508-5.925l5.487-2.039L2.936-5.689c.458.2-6.234,15.7-6.665,15.7L-8.508.61Z" transform="translate(17.18 14.87)" fill="#d0a93f"/>
  <path id="Path_5673" data-name="Path 5673" d="M4.674-1.943s5.688-5.294,6.314-5.347L9.773,2.124l-5.1,7.769L-1.98,13.71Z" transform="translate(15.468 11.162)" fill="#9a7d2f"/>
  <path id="Path_5672" data-name="Path 5672" d="M-2.526,4.677c.173-.149,8.67,4.519,8.67,4.519v6.478l4.735,9.412L-.035,16.728Z" transform="translate(2.541 -0.225)" fill="#f6c744"/>
</svg>
