<svg xmlns="http://www.w3.org/2000/svg" width="53" height="53" viewBox="0 0 53 53">
  <g id="Group_8314" data-name="Group 8314" transform="translate(-57.944 -819.104)">
    <g id="Group_8312" data-name="Group 8312" transform="translate(-104.056 548.104)">
      <circle id="Ellipse_760" data-name="Ellipse 760" cx="26.5" cy="26.5" r="26.5" transform="translate(162 271)" fill="rgba(0,0,0,0.53)"/>
    </g>
    <g id="button-pause" transform="translate(72.944 834.104)">
      <g id="Group_8315" data-name="Group 8315">
        <path id="Path_6413" data-name="Path 6413" d="M7,1H2A1,1,0,0,0,1,2V22a1,1,0,0,0,1,1H7a1,1,0,0,0,1-1V2A1,1,0,0,0,7,1Z" fill="#fff"/>
        <path id="Path_6414" data-name="Path 6414" d="M22,1H17a1,1,0,0,0-1,1V22a1,1,0,0,0,1,1h5a1,1,0,0,0,1-1V2A1,1,0,0,0,22,1Z" fill="#fff"/>
      </g>
    </g>
  </g>
</svg>
