<svg xmlns="http://www.w3.org/2000/svg" xmlns:xlink="http://www.w3.org/1999/xlink" width="155" height="45" viewBox="0 0 155 45"><defs><linearGradient id="a" x1="0.915" y1="6.614" x2="-0.383" y2="5.945" gradientUnits="objectBoundingBox"><stop offset="0" stop-color="#00a0ff"/><stop offset="0.007" stop-color="#00a1ff"/><stop offset="0.26" stop-color="#00beff"/><stop offset="0.512" stop-color="#00d2ff"/><stop offset="0.76" stop-color="#00dfff"/><stop offset="1" stop-color="#00e3ff"/></linearGradient><linearGradient id="b" x1="1.076" y1="17.098" x2="-1.305" y2="17.098" gradientUnits="objectBoundingBox"><stop offset="0" stop-color="#ffe000"/><stop offset="0.409" stop-color="#ffbd00"/><stop offset="0.775" stop-color="orange"/><stop offset="1" stop-color="#ff9c00"/></linearGradient><linearGradient id="c" x1="0.862" y1="10.863" x2="-0.501" y2="9.093" gradientUnits="objectBoundingBox"><stop offset="0" stop-color="#ff3a44"/><stop offset="1" stop-color="#c31162"/></linearGradient><linearGradient id="d" x1="-0.188" y1="13.583" x2="0.421" y2="12.793" gradientUnits="objectBoundingBox"><stop offset="0" stop-color="#32a071"/><stop offset="0.068" stop-color="#2da771"/><stop offset="0.476" stop-color="#15cf74"/><stop offset="0.801" stop-color="#06e775"/><stop offset="1" stop-color="#00f076"/></linearGradient></defs><g transform="translate(-0.293 0.068)"><rect width="155" height="45" rx="10" transform="translate(0.293 -0.068)"/><g transform="translate(47.857 7.382)"><path d="M58.38,20.779a3.138,3.138,0,0,1-.863,2.321,3.369,3.369,0,0,1-2.554,1.029A3.581,3.581,0,0,1,51.352,20.5a3.581,3.581,0,0,1,3.611-3.631,3.6,3.6,0,0,1,1.427.291,2.86,2.86,0,0,1,1.087.777l-.611.611a2.351,2.351,0,0,0-1.9-.824,2.688,2.688,0,0,0-2.7,2.776,2.734,2.734,0,0,0,4.641,2,2.192,2.192,0,0,0,.583-1.409H54.963v-.834h3.369A2.963,2.963,0,0,1,58.38,20.779Z" transform="translate(-51.352 -16.866)" fill="#fff"/><path d="M62.584,17.854H59.417v2.2h2.855v.834H59.417v2.2h3.166v.854H58.525V17h4.059Z" transform="translate(-50.214 -16.845)" fill="#fff"/><path d="M65.667,23.952h-.894v-6.1H62.832V17h4.777v.854H65.667Z" transform="translate(-49.531 -16.845)" fill="#fff"/><path d="M69.938,23.952V17h.892v6.952Z" transform="translate(-48.404 -16.845)" fill="#fff"/><path d="M74.516,23.952h-.893v-6.1H71.681V17h4.777v.854H74.516Z" transform="translate(-48.128 -16.845)" fill="#fff"/><path d="M84.447,23.075a3.61,3.61,0,0,1-5.1,0,3.756,3.756,0,0,1,0-5.156,3.6,3.6,0,0,1,5.092,0,3.744,3.744,0,0,1,0,5.151Zm-4.437-.583a2.674,2.674,0,0,0,3.777,0,2.962,2.962,0,0,0,0-3.99,2.674,2.674,0,0,0-3.777,0,2.965,2.965,0,0,0,0,3.99Z" transform="translate(-47.074 -16.866)" fill="#fff"/><path d="M85.575,23.952V17h1.088l3.378,5.407h.038l-.038-1.339V17h.893v6.952H90l-3.535-5.67H86.43l.038,1.341v4.33Z" transform="translate(-45.924 -16.845)" fill="#fff"/></g><path d="M82.433,32.5a4.928,4.928,0,1,0,4.946,4.928A4.857,4.857,0,0,0,82.433,32.5Zm0,7.913a2.994,2.994,0,1,1,2.781-2.986A2.851,2.851,0,0,1,82.433,40.411ZM71.643,32.5a4.928,4.928,0,1,0,4.946,4.928A4.857,4.857,0,0,0,71.643,32.5Zm0,7.913a2.994,2.994,0,1,1,2.781-2.986A2.851,2.851,0,0,1,71.643,40.411Zm-12.836-6.4V36.1h5a4.363,4.363,0,0,1-1.138,2.631,5.122,5.122,0,0,1-3.864,1.531,5.562,5.562,0,0,1,0-11.124,5.329,5.329,0,0,1,3.77,1.493l1.475-1.475a7.294,7.294,0,0,0-5.245-2.11,7.654,7.654,0,1,0,0,15.306,6.993,6.993,0,0,0,5.338-2.147,6.908,6.908,0,0,0,1.811-4.89,6.753,6.753,0,0,0-.112-1.306ZM111.3,35.633a4.58,4.58,0,0,0-4.218-3.135,4.682,4.682,0,0,0-4.647,4.928,4.822,4.822,0,0,0,4.89,4.928,4.9,4.9,0,0,0,4.106-2.184l-1.68-1.12a2.815,2.815,0,0,1-2.426,1.363,2.508,2.508,0,0,1-2.39-1.492l6.589-2.726Zm-6.72,1.643a2.7,2.7,0,0,1,2.576-2.874,1.906,1.906,0,0,1,1.829,1.045Zm-5.356,4.778h2.164V27.57H99.225ZM95.677,33.6H95.6a3.415,3.415,0,0,0-2.594-1.1,4.932,4.932,0,0,0,0,9.855,3.357,3.357,0,0,0,2.594-1.12h.074v.71c0,1.885-1.007,2.893-2.631,2.893a2.727,2.727,0,0,1-2.483-1.755l-1.885.784a4.7,4.7,0,0,0,4.368,2.912c2.538,0,4.685-1.493,4.685-5.133V32.8H95.677ZM93.2,40.411a3,3,0,0,1,0-5.973,2.777,2.777,0,0,1,2.631,3.005A2.753,2.753,0,0,1,93.2,40.411Zm28.248-12.841h-5.18V42.054h2.161V36.567h3.019a4.505,4.505,0,1,0,0-9Zm.056,6.981h-3.075V29.587H121.5a2.483,2.483,0,1,1,0,4.965Zm13.361-2.08A4.061,4.061,0,0,0,131,34.688l1.92.8a2.048,2.048,0,0,1,1.975-1.062,2.081,2.081,0,0,1,2.273,1.864v.148a4.782,4.782,0,0,0-2.255-.558c-2.068,0-4.174,1.137-4.174,3.26a3.347,3.347,0,0,0,3.6,3.187,3.05,3.05,0,0,0,2.759-1.417h.074V42.03h2.087V36.477C139.257,33.906,137.338,32.472,134.86,32.472Zm-.261,7.938c-.709,0-1.7-.353-1.7-1.229,0-1.118,1.229-1.547,2.292-1.547a3.857,3.857,0,0,1,1.975.484A2.621,2.621,0,0,1,134.6,40.409Zm12.26-7.621-2.478,6.28h-.074l-2.572-6.28h-2.329l3.857,8.776-2.2,4.882h2.255l5.945-13.659Zm-19.473,9.266h2.162V27.571h-2.162Z" transform="translate(-3.544 -7.869)" fill="#fff"/><g transform="translate(11.501 7.7)"><path d="M20.508,17.55a2.325,2.325,0,0,0-.535,1.628V44.8a2.323,2.323,0,0,0,.535,1.628l.086.083L34.948,32.158V31.82L20.594,17.465Z" transform="translate(-19.973 -17.089)" fill="url(#a)"/><path d="M37.683,35.636,32.9,30.848V30.51l4.786-4.786.108.063,5.669,3.221c1.619.92,1.619,2.425,0,3.345l-5.669,3.221Z" transform="translate(-17.923 -15.779)" fill="url(#b)"/><path d="M39.769,34.895,34.875,30l-14.44,14.44a1.885,1.885,0,0,0,2.409.071l16.925-9.616" transform="translate(-19.9 -15.101)" fill="url(#c)"/><path d="M39.769,27.147,22.844,17.53a1.885,1.885,0,0,0-2.409.071l14.44,14.44Z" transform="translate(-19.9 -17.14)" fill="url(#d)"/><g transform="translate(0 19.686)"><path d="M39.661,34.132,22.844,43.687a1.929,1.929,0,0,1-2.322.013h0l-.087.086h0l.086.085h0a1.929,1.929,0,0,0,2.322-.013L39.769,34.24Z" transform="translate(-19.9 -34.132)" opacity="0.2" style="isolation:isolate"/><path d="M20.508,42.541a2.323,2.323,0,0,1-.535-1.628v.17a2.32,2.32,0,0,0,.535,1.627l.087-.086Z" transform="translate(-19.973 -33.057)" opacity="0.12" style="isolation:isolate"/></g><path d="M42.806,31.5l-5.777,3.282.108.108,5.669-3.221A2.034,2.034,0,0,0,44.02,30h0A2.156,2.156,0,0,1,42.806,31.5Z" transform="translate(-17.268 -15.101)" opacity="0.12" style="isolation:isolate"/><path d="M22.917,17.7,45.511,30.537a2.156,2.156,0,0,1,1.214,1.5h0a2.031,2.031,0,0,0-1.214-1.673L22.917,17.53c-1.62-.92-2.944-.155-2.944,1.7v.17C19.973,17.544,21.3,16.78,22.917,17.7Z" transform="translate(-19.973 -17.14)" fill="#fff" opacity="0.25" style="isolation:isolate"/></g></g></svg>