<svg xmlns="http://www.w3.org/2000/svg" width="24" height="24.003" viewBox="0 0 24 24.003">
  <g id="present" transform="translate(0 0.003)">
    <g id="Сгруппировать_8459" data-name="Сгруппировать 8459">
      <path id="Контур_6694" data-name="Контур 6694" d="M4,3.5A2.587,2.587,0,0,1,6.667,1C10.611,1,12,6,12,6H6.667A2.587,2.587,0,0,1,4,3.5Z" fill="none" stroke="#fff" stroke-linecap="round" stroke-linejoin="round" stroke-miterlimit="10" stroke-width="2"/>
      <path id="Контур_6695" data-name="Контур 6695" d="M17.333,6H12s1.389-5,5.333-5A2.587,2.587,0,0,1,20,3.5,2.587,2.587,0,0,1,17.333,6Z" fill="none" stroke="#fff" stroke-linecap="round" stroke-linejoin="round" stroke-miterlimit="10" stroke-width="2"/>
      <path id="Контур_6696" data-name="Контур 6696" d="M21,13v8a2,2,0,0,1-2,2H5a2,2,0,0,1-2-2V13" fill="none" stroke="#fff" stroke-linecap="round" stroke-linejoin="round" stroke-miterlimit="10" stroke-width="2"/>
      <rect id="Прямоугольник_937" data-name="Прямоугольник 937" width="22" height="4" transform="translate(1 6)" fill="none" stroke="#fff" stroke-linecap="round" stroke-linejoin="round" stroke-miterlimit="10" stroke-width="2"/>
      <line id="Линия_672" data-name="Линия 672" y2="17" transform="translate(12 6)" fill="none" stroke="#fff" stroke-linecap="round" stroke-linejoin="round" stroke-miterlimit="10" stroke-width="2"/>
    </g>
  </g>
</svg>
