<svg xmlns="http://www.w3.org/2000/svg" width="1216.096" height="1230.387" viewBox="0 0 1216.096 1230.387">
  <g id="Group_49" data-name="Group 49" transform="translate(44.236 -105.878)">
    <g id="Group_50" data-name="Group 50" transform="translate(1022.153 1331.384) rotate(180)" opacity="0.3">
      <path id="Path_1" data-name="Path 1" d="M0,32.194,253.6,0l59.615,61.136L528.81,282.352" transform="translate(1.557 280.11)" fill="none" stroke="#dc3bc3" stroke-linecap="round" stroke-linejoin="round" stroke-width="8"/>
      <path id="Path_2" data-name="Path 2" d="M0,0,86.513,351.215l441.093-99.5" transform="translate(0 311.878)" fill="none" stroke="#dc3bc3" stroke-linecap="round" stroke-linejoin="round" stroke-width="8"/>
      <line id="Line_1" data-name="Line 1" y1="377.992" x2="169.36" transform="translate(87.748 285.916)" fill="none" stroke="#dc3bc3" stroke-linecap="round" stroke-width="8"/>
      <line id="Line_16" data-name="Line 16" x1="247.276" y1="551.909" transform="translate(280.329 1.546)" fill="none" stroke="#dc3bc3" stroke-linecap="round" stroke-width="8"/>
      <path id="Path_3" data-name="Path 3" d="M0,310.092,276.265,0" transform="translate(1.622 0.766)" fill="none" stroke="#dc3bc3" stroke-linecap="round" stroke-width="8"/>
      <path id="Path_13" data-name="Path 13" d="M21.719,0,0,285.916" transform="translate(257.108 0)" fill="none" stroke="#dc3bc3" stroke-linecap="round" stroke-width="8"/>
    </g>
    <g id="Group_43" data-name="Group 43" transform="translate(491.787 1088.389) rotate(180)" opacity="0.3">
      <path id="Path_1-2" data-name="Path 1" d="M0,32.194,253.6,0l59.615,61.136L528.81,282.352" transform="translate(1.557 280.11)" fill="none" stroke="#dc3bc3" stroke-linecap="round" stroke-linejoin="round" stroke-width="8"/>
      <path id="Path_2-2" data-name="Path 2" d="M0,0,86.513,351.215,529.876,250.893" transform="translate(0 311.878)" fill="none" stroke="#dc3bc3" stroke-linecap="round" stroke-linejoin="round" stroke-width="8"/>
      <line id="Line_1-2" data-name="Line 1" y1="377.992" x2="169.36" transform="translate(87.748 285.916)" fill="none" stroke="#dc3bc3" stroke-linecap="round" stroke-width="8"/>
      <path id="Path_3-2" data-name="Path 3" d="M0,310.092,276.265,0" transform="translate(1.622 0.766)" fill="none" stroke="#dc3bc3" stroke-linecap="round" stroke-width="8"/>
      <path id="Path_13-2" data-name="Path 13" d="M21.719,0,0,285.916" transform="translate(257.108 0)" fill="none" stroke="#dc3bc3" stroke-linecap="round" stroke-width="8"/>
      <path id="Path_7061" data-name="Path 7061" d="M10.759.014l251.7,561.909" transform="translate(267.968 0)" fill="none" stroke="#dc3bc3" stroke-linecap="round" stroke-width="8"/>
    </g>
    <g id="Group_1" data-name="Group 1" transform="translate(404.174 107.5)" opacity="0.3">
      <path id="Path_1-3" data-name="Path 1" d="M-22.7,22.69,232.33-10.365,291.945,50.77,507.536,271.987" transform="translate(22.695 291.735)" fill="none" stroke="#dc3bc3" stroke-width="8"/>
      <line id="Line_1-3" data-name="Line 1" y1="377.992" x2="169.36" transform="translate(87.613 287.176)" fill="none" stroke="#dc3bc3" stroke-width="8"/>
      <path id="Path_3-3" data-name="Path 3" d="M-12.089,308.918,264.175-1.175" transform="translate(13.576 3.2)" fill="none" stroke="#dc3bc3" stroke-width="8"/>
      <line id="Line_3" data-name="Line 3" x2="250.358" y2="564.533" transform="translate(279.064)" fill="none" stroke="#dc3bc3" stroke-width="8"/>
      <path id="Path_13-3" data-name="Path 13" d="M21.719-4.487,0,281.429" transform="translate(256.973 5.747)" fill="none" stroke="#dc3bc3" stroke-width="8"/>
    </g>
    <g id="Group_1-2" data-name="Group 1" transform="translate(491.787 394.676)">
      <line id="Line_1-4" data-name="Line 1" y1="377.992" x2="169.36" transform="translate(0)" fill="none" stroke="#fff" stroke-width="8"/>
    </g>
    <g id="Group_17" data-name="Group 17" transform="matrix(0.375, -0.927, 0.927, 0.375, 587.961, 534.436)">
      <line id="Line_1-5" data-name="Line 1" y1="377.992" x2="169.36" transform="translate(0 0)" fill="none" stroke="#fff" stroke-width="8"/>
    </g>
    <g id="Group_13" data-name="Group 13" transform="translate(468.469 368.903)">
      <path id="Path_65" data-name="Path 65" d="M25.772,0A25.772,25.772,0,1,1,0,25.772,25.772,25.772,0,0,1,25.772,0Z" transform="translate(169.36)" fill="#fff"/>
      <circle id="Ellipse_7" data-name="Ellipse 7" cx="25.772" cy="25.772" r="25.772" transform="translate(439.354 272.449)" fill="#fff"/>
      <path id="Path_66" data-name="Path 66" d="M23.318,0A23.318,23.318,0,1,1,0,23.318,23.318,23.318,0,0,1,23.318,0Z" transform="translate(0 377.992)" fill="#fff"/>
      <text id="NFT" transform="translate(451.627 303.72)" fill="#dc3bc3" font-size="14" font-family="Arial-BoldMT, Arial" font-weight="700"><tspan x="0" y="0">NFT</tspan></text>
      <text id="NFT-2" data-name="NFT" transform="translate(181.632 31.272)" fill="#dc3bc3" font-size="14" font-family="Arial-BoldMT, Arial" font-weight="700"><tspan x="0" y="0">NFT</tspan></text>
      <text id="NFT-3" data-name="NFT" transform="translate(9.817 406.81)" fill="#dc3bc3" font-size="14" font-family="Arial-BoldMT, Arial" font-weight="700"><tspan x="0" y="0">NFT</tspan></text>
      <g id="Group_9258" data-name="Group 9258">
        <path id="Path_7062" data-name="Path 7062" d="M23.318,0A23.318,23.318,0,1,1,0,23.318,23.318,23.318,0,0,1,23.318,0Z" transform="translate(81 195.585)" fill="#fff"/>
        <text id="NFT-4" data-name="NFT" transform="translate(90.818 224.403)" fill="#dc3bc3" font-size="14" font-family="Arial-BoldMT, Arial" font-weight="700"><tspan x="0" y="0">NFT</tspan></text>
      </g>
      <g id="Group_9259" data-name="Group 9259" transform="translate(237 -52)">
        <path id="Path_7062-2" data-name="Path 7062" d="M23.318,0A23.318,23.318,0,1,1,0,23.318,23.318,23.318,0,0,1,23.318,0Z" transform="translate(81 195.585)" fill="#fff"/>
        <text id="NFT-5" data-name="NFT" transform="translate(90.818 224.403)" fill="#dc3bc3" font-size="14" font-family="Arial-BoldMT, Arial" font-weight="700"><tspan x="0" y="0">NFT</tspan></text>
      </g>
    </g>
    <g id="Group_14" data-name="Group 14" transform="translate(527.377 361.54)">
      <g id="Group_9" data-name="Group 9" transform="translate(174.36 -5)">
        <g id="Rectangle_1" data-name="Rectangle 1" transform="translate(16.86)" fill="none" stroke="#fff" stroke-width="4">
          <rect width="142.179" height="61.362" rx="30.681" stroke="none"/>
          <rect x="2" y="2" width="138.179" height="57.362" rx="28.681" fill="none"/>
        </g>
        <g id="profile" transform="translate(44.128 12.732)">
          <g id="Group_4" data-name="Group 4" transform="translate(0 0)">
            <path id="Path_4" data-name="Path 4" d="M26.916,39H19.35A11.35,11.35,0,0,0,8,50.35H8s5.675,2.522,15.133,2.522S38.266,50.35,38.266,50.35h0A11.35,11.35,0,0,0,26.916,39Z" transform="translate(-8 -16.973)" fill="none" stroke="#fff" stroke-linecap="square" stroke-miterlimit="10" stroke-width="4"/>
            <path id="Path_5" data-name="Path 5" d="M19,12.264a8.2,8.2,0,1,1,16.394,0c0,4.55-3.67,9.416-8.2,9.416S19,16.814,19,12.264Z" transform="translate(-12.064 -4.067)" fill="none" stroke="#fff" stroke-linecap="square" stroke-miterlimit="10" stroke-width="4"/>
          </g>
        </g>
        <text id="Sue" transform="translate(82.771 40.681)" fill="#fff" font-size="27" font-family="Arial-BoldMT, Arial" font-weight="700"><tspan x="0" y="0">Sue</tspan></text>
        <path id="Path_10" data-name="Path 10" d="M9.322,0,25.207,23.2s-22.6,3.043-24.9-.68S9.322,0,9.322,0Z" transform="translate(12.186 14.136) rotate(30)" fill="#fff"/>
      </g>
      <g id="Group_16" data-name="Group 16" transform="translate(445.263 272.449)">
        <g id="Rectangle_1-2" data-name="Rectangle 1" transform="translate(16.86)" fill="none" stroke="#fff" stroke-width="4">
          <rect width="182.359" height="61.362" rx="30.681" stroke="none"/>
          <rect x="2" y="2" width="178.359" height="57.362" rx="28.681" fill="none"/>
        </g>
        <g id="profile-2" data-name="profile" transform="translate(44.718 12.731)">
          <g id="Group_4-2" data-name="Group 4" transform="translate(0 0)">
            <path id="Path_4-2" data-name="Path 4" d="M26.916,39H19.35A11.35,11.35,0,0,0,8,50.35H8s5.675,2.522,15.133,2.522S38.266,50.35,38.266,50.35h0A11.35,11.35,0,0,0,26.916,39Z" transform="translate(-8 -16.973)" fill="none" stroke="#fff" stroke-linecap="square" stroke-miterlimit="10" stroke-width="4"/>
            <path id="Path_5-2" data-name="Path 5" d="M19,12.264a8.2,8.2,0,1,1,16.394,0c0,4.55-3.67,9.416-8.2,9.416S19,16.814,19,12.264Z" transform="translate(-12.064 -4.067)" fill="none" stroke="#fff" stroke-linecap="square" stroke-miterlimit="10" stroke-width="4"/>
          </g>
        </g>
        <text id="Eunika" transform="translate(84.362 41.117)" fill="#fff" font-size="27" font-family="Arial-BoldMT, Arial" font-weight="700"><tspan x="0" y="0">Eunika</tspan></text>
        <path id="Path_10-2" data-name="Path 10" d="M9.322,0,25.207,23.2s-22.6,3.043-24.9-.68S9.322,0,9.322,0Z" transform="translate(12.186 14.136) rotate(30)" fill="#fff"/>
      </g>
      <g id="Group_48" data-name="Group 48" transform="translate(1 374.083)">
        <g id="Rectangle_1-3" data-name="Rectangle 1" transform="translate(16.86)" fill="none" stroke="#fff" stroke-width="4">
          <rect width="142.724" height="61.362" rx="30.681" stroke="none"/>
          <rect x="2" y="2" width="138.724" height="57.362" rx="28.681" fill="none"/>
        </g>
        <g id="profile-3" data-name="profile" transform="translate(43.9 12.731)">
          <g id="Group_4-3" data-name="Group 4" transform="translate(0 0)">
            <path id="Path_4-3" data-name="Path 4" d="M26.916,39H19.35A11.35,11.35,0,0,0,8,50.35H8s5.675,2.522,15.133,2.522S38.266,50.35,38.266,50.35h0A11.35,11.35,0,0,0,26.916,39Z" transform="translate(-8 -16.973)" fill="none" stroke="#fff" stroke-linecap="square" stroke-miterlimit="10" stroke-width="4"/>
            <path id="Path_5-3" data-name="Path 5" d="M19,12.264a8.2,8.2,0,1,1,16.394,0c0,4.55-3.67,9.416-8.2,9.416S19,16.814,19,12.264Z" transform="translate(-12.064 -4.067)" fill="none" stroke="#fff" stroke-linecap="square" stroke-miterlimit="10" stroke-width="4"/>
          </g>
        </g>
        <text id="Joe" transform="translate(82.544 41.682)" fill="#fff" font-size="29" font-family="Arial-BoldMT, Arial" font-weight="700"><tspan x="0" y="0">Joe</tspan></text>
        <path id="Path_10-3" data-name="Path 10" d="M9.322,0,25.207,23.2s-22.6,3.043-24.9-.68S9.322,0,9.322,0Z" transform="translate(12.186 14.136) rotate(30)" fill="#fff"/>
      </g>
      <g id="Group_10" data-name="Group 10" transform="translate(71.377 241.767)">
        <g id="Path_67" data-name="Path 67" transform="translate(17.008 0)" fill="none">
          <path d="M30.681,0H170.587a30.681,30.681,0,0,1,0,61.362H30.681A30.681,30.681,0,0,1,30.681,0Z" stroke="none"/>
          <path d="M 30.68115234375 4.000011444091797 C 27.07745361328125 4.000011444091797 23.58367919921875 4.70489501953125 20.29685974121094 6.095100402832031 C 17.12017822265625 7.438747406005859 14.266357421875 9.36309814453125 11.81474304199219 11.81474685668945 C 9.36309814453125 14.26636505126953 7.438751220703125 17.12018585205078 6.0950927734375 20.2968635559082 C 4.70489501953125 23.58368682861328 4.000015258789062 27.07745361328125 4.000015258789062 30.6811580657959 C 4.000015258789062 34.28486633300781 4.70489501953125 37.77862930297852 6.0950927734375 41.06545257568359 C 7.438751220703125 44.24212646484375 9.36309814453125 47.09595108032227 11.81474304199219 49.54756927490234 C 14.266357421875 51.99921798706055 17.12017822265625 53.92356872558594 20.29685974121094 55.26721572875977 C 23.58367919921875 56.65742111206055 27.07745361328125 57.3623046875 30.68115234375 57.3623046875 L 170.5872192382812 57.3623046875 C 174.19091796875 57.3623046875 177.6846923828125 56.65742111206055 180.9715118408203 55.26721572875977 C 184.148193359375 53.92356872558594 187.0020141601562 51.99921798706055 189.4536285400391 49.54756927490234 C 191.9052734375 47.09595108032227 193.8296203613281 44.24212646484375 195.1732788085938 41.06545257568359 C 196.5634765625 37.77862930297852 197.2683563232422 34.28486633300781 197.2683563232422 30.6811580657959 C 197.2683563232422 27.07745361328125 196.5634765625 23.58368682861328 195.1732788085938 20.2968635559082 C 193.8296203613281 17.12018585205078 191.9052734375 14.26636505126953 189.4536285400391 11.81474685668945 C 187.0020141601562 9.36309814453125 184.148193359375 7.438747406005859 180.9715118408203 6.095100402832031 C 177.6846923828125 4.70489501953125 174.19091796875 4.000011444091797 170.5872192382812 4.000011444091797 L 30.68115234375 4.000011444091797 M 30.68115234375 1.1444091796875e-05 L 170.5872192382812 1.1444091796875e-05 C 187.5319519042969 1.1444091796875e-05 201.2683563232422 13.73642349243164 201.2683563232422 30.6811580657959 C 201.2683563232422 47.62589263916016 187.5319519042969 61.3623046875 170.5872192382812 61.3623046875 L 30.68115234375 61.3623046875 C 13.73641967773438 61.3623046875 1.52587890625e-05 47.62589263916016 1.52587890625e-05 30.6811580657959 C 1.52587890625e-05 13.73642349243164 13.73641967773438 1.1444091796875e-05 30.68115234375 1.1444091796875e-05 Z" stroke="none" fill="#fff"/>
        </g>
        <text id="Follow" transform="translate(95.552 41.181)" fill="#fff" font-size="28" font-family="Arial-BoldMT, Arial" font-weight="700"><tspan x="0" y="0">Follow</tspan></text>
        <g id="view" transform="translate(39.098 14.09)">
          <g id="Group_11" data-name="Group 11" transform="translate(0 0)">
            <path id="Path_6" data-name="Path 6" d="M2.436,26.979A2.454,2.454,0,0,1,2.429,24.2C5.18,20.2,14,9,26.333,9c12.225,0,21.1,11.188,23.891,15.189a2.45,2.45,0,0,1-.007,2.8c-2.808,4-11.755,15.194-23.884,15.194C14.094,42.182,5.208,30.967,2.436,26.979Z" transform="translate(-2 -9)" fill="none" stroke="#fff" stroke-linecap="square" stroke-miterlimit="10" stroke-width="4"/>
            <circle id="Ellipse_6" data-name="Ellipse 6" cx="9.953" cy="9.953" r="9.953" transform="translate(15.483 6.64)" fill="none" stroke="#fff" stroke-linecap="square" stroke-miterlimit="10" stroke-width="4"/>
          </g>
        </g>
        <path id="Path_12" data-name="Path 12" d="M9.322,0,25.207,23.2s-22.6,3.043-24.9-.68S9.322,0,9.322,0Z" transform="translate(26.144 -3.011) rotate(63)" fill="#fff"/>
      </g>
      <g id="Group_18" data-name="Group 18" transform="translate(319.672 137.543)">
        <g id="Path_68" data-name="Path 68" transform="translate(17.008 0)" fill="none">
          <path d="M29.664,0H164.93c16.383,0,29.664,13.736,29.664,30.681S181.313,61.362,164.93,61.362H29.664C13.281,61.362,0,47.626,0,30.681S13.281,0,29.664,0Z" stroke="none"/>
          <path d="M 29.66375732421875 3.999992370605469 C 26.21434020996094 3.999992370605469 22.86895751953125 4.698379516601562 19.72047424316406 6.075740814208984 C 16.66825866699219 7.410991668701172 13.92404174804688 9.325687408447266 11.56404113769531 11.76665878295898 C 9.194900512695312 14.21701812744141 7.33416748046875 17.07215881347656 6.03350830078125 20.25271224975586 C 4.684173583984375 23.55232620239258 4.000015258789062 27.06096267700195 4.000015258789062 30.6811580657959 C 4.000015258789062 34.30135345458984 4.684173583984375 37.80998992919922 6.03350830078125 41.10960388183594 C 7.33416748046875 44.29018402099609 9.194900512695312 47.14529800415039 11.56404113769531 49.59568786621094 C 13.92404174804688 52.03662872314453 16.66825866699219 53.95132446289062 19.72047424316406 55.28657531738281 C 22.86895751953125 56.66393661499023 26.21434020996094 57.36232376098633 29.66375732421875 57.36232376098633 L 164.9304809570312 57.36232376098633 C 168.3798980712891 57.36232376098633 171.7252807617188 56.66393661499023 174.8737640380859 55.28657531738281 C 177.9259796142578 53.95132446289062 180.6701965332031 52.03662872314453 183.0301971435547 49.59568786621094 C 185.3993377685547 47.14529800415039 187.2600708007812 44.29018402099609 188.5607299804688 41.10960388183594 C 189.9100646972656 37.80998992919922 190.5942230224609 34.30135345458984 190.5942230224609 30.6811580657959 C 190.5942230224609 27.06096267700195 189.9100646972656 23.55232620239258 188.5607299804688 20.25271224975586 C 187.2600708007812 17.07215881347656 185.3993377685547 14.21701812744141 183.0301971435547 11.76665878295898 C 180.6701965332031 9.325687408447266 177.9259796142578 7.410991668701172 174.8737640380859 6.075740814208984 C 171.7252807617188 4.698379516601562 168.3798980712891 3.999992370605469 164.9304809570312 3.999992370605469 L 29.66375732421875 3.999992370605469 M 29.66375732421875 -7.62939453125e-06 L 164.9304809570312 -7.62939453125e-06 C 181.3133087158203 -7.62939453125e-06 194.5942230224609 13.73643493652344 194.5942230224609 30.6811580657959 C 194.5942230224609 47.62590789794922 181.3133087158203 61.36232376098633 164.9304809570312 61.36232376098633 L 29.66375732421875 61.36232376098633 C 13.28092956542969 61.36232376098633 1.52587890625e-05 47.62590789794922 1.52587890625e-05 30.6811580657959 C 1.52587890625e-05 13.73643493652344 13.28092956542969 -7.62939453125e-06 29.66375732421875 -7.62939453125e-06 Z" stroke="none" fill="#fff"/>
        </g>
        <text id="Follow-2" data-name="Follow" transform="translate(98.532 41.181)" fill="#fff" font-size="28" font-family="Arial-BoldMT, Arial" font-weight="700"><tspan x="0" y="0">Follow</tspan></text>
        <g id="view-2" data-name="view" transform="translate(42.078 14.09)">
          <g id="Group_11-2" data-name="Group 11" transform="translate(0 0)">
            <path id="Path_6-2" data-name="Path 6" d="M2.436,26.979A2.454,2.454,0,0,1,2.429,24.2C5.18,20.2,14,9,26.333,9c12.225,0,21.1,11.188,23.891,15.189a2.45,2.45,0,0,1-.007,2.8c-2.808,4-11.755,15.194-23.884,15.194C14.094,42.182,5.208,30.967,2.436,26.979Z" transform="translate(-2 -9)" fill="none" stroke="#fff" stroke-linecap="square" stroke-miterlimit="10" stroke-width="4"/>
            <circle id="Ellipse_6-2" data-name="Ellipse 6" cx="9.953" cy="9.953" r="9.953" transform="translate(15.483 6.64)" fill="none" stroke="#fff" stroke-linecap="square" stroke-miterlimit="10" stroke-width="4"/>
          </g>
        </g>
        <path id="Path_12-2" data-name="Path 12" d="M9.322,0,25.207,23.2s-22.6,3.043-24.9-.68S9.322,0,9.322,0Z" transform="translate(12.186 13.826) rotate(30)" fill="#fff"/>
      </g>
    </g>
  </g>
</svg>
