<svg xmlns="http://www.w3.org/2000/svg" width="258.807" height="214.755" viewBox="0 0 258.807 214.755"><path d="M0,0H120.475V73.434H99.57L118.8,98.248H85.22L43.754,46.587H94.7V26.2H26.236V98.248H0Z" fill="#fff"/><path d="M0-180.25v-73.558H26.217l.042,71.042H94.381v-11.374h26.184v38.525H0Z" transform="translate(138.243 370.371)" fill="#fff"/><g transform="translate(139.692)"><rect width="119.115" height="24.635" fill="#fff"/><rect width="119.115" height="24.635" transform="translate(0 36.807)" fill="#fff"/><rect width="119.115" height="24.635" transform="translate(0 73.614)" fill="#fff"/></g><path d="M0,0H105l15.411,15.835v24.1l-7.738,8.673,7.738,8.612V82.236L105,98.193H26.221V73.432h68.43V61.246H26.221V36.8h68.43V24.675H26.221V98.193H0Z" transform="translate(0 116.562)" fill="#fff"/></svg>