<svg xmlns="http://www.w3.org/2000/svg" width="532.304" height="100.625" viewBox="0 0 532.304 100.625"><g transform="translate(-2475 -491)"><path d="M0,0H123.32V75.168h-21.4l19.68,25.4H87.232L44.787,47.687H96.941V26.82H26.855v73.748H0Z" transform="translate(2475 491)" fill="#fff"/><path d="M0,0H107.537L123.32,16.218V40.9L115.4,49.785l7.925,8.82V84.226l-15.784,16.343H26.855V75.209H96.941V62.728H26.855V37.689H96.941V25.273H26.855v75.3H0Z" transform="translate(2747.129 491.057)" fill="#fff"/><path d="M0-178.513v-75.3H26.836l.043,72.719H96.61v-11.643h26.8V-153.3H0Z" transform="translate(2883.892 744.922)" fill="#fff"/><g transform="translate(2611.761 491)"><rect width="121.928" height="25.216" fill="#fff"/><rect width="121.928" height="25.216" transform="translate(0 37.676)" fill="#fff"/><rect width="121.928" height="25.216" transform="translate(0 75.352)" fill="#fff"/></g></g></svg>