<svg id="direction-right" xmlns="http://www.w3.org/2000/svg" width="23.6" height="20.2" viewBox="0 0 23.6 20.2">
  <g id="Group_8500" data-name="Group 8500">
    <path id="Path_6821" data-name="Path 6821" d="M1,8A.945.945,0,0,0,0,9v6a.945.945,0,0,0,1,1,.945.945,0,0,0,1-1V9A.945.945,0,0,0,1,8Z" transform="translate(0 -1.9)" fill="#fff"/>
    <path id="Path_6822" data-name="Path 6822" d="M23.6,12,11,1.9V8H5A.945.945,0,0,0,4,9v6a.945.945,0,0,0,1,1h6v6.1Z" transform="translate(0 -1.9)" fill="#fff"/>
  </g>
</svg>
