<svg xmlns="http://www.w3.org/2000/svg" xmlns:xlink="http://www.w3.org/1999/xlink" width="34.63" height="31.668" viewBox="0 0 34.63 31.668">
  <defs>
    <linearGradient id="linear-gradient" x1="0.732" y1="0.231" x2="0.797" y2="0.324" gradientUnits="objectBoundingBox">
      <stop offset="0" stop-color="#fff"/>
      <stop offset="1" stop-color="#b4b4b4"/>
    </linearGradient>
  </defs>
  <g id="Сгруппировать_8421" data-name="Сгруппировать 8421" transform="translate(-894.055 -360.935)">
    <g id="backup" transform="translate(894.055 360.935)">
      <g id="Сгруппировать_8420" data-name="Сгруппировать 8420" transform="translate(0 0)">
        <path id="Контур_6689" data-name="Контур 6689" d="M30.015,33.221l4.3-4.53a3.812,3.812,0,0,0,.955-1.057,3.155,3.155,0,0,0,.325-1.3V7.6a7.823,7.823,0,0,0-.3-3.064c-.491-1.258-1.214-1.968-1.483-1.968H13.886a6.52,6.52,0,0,0-2.032.339L1.3,7.929a1.164,1.164,0,0,0-.3.785V29.8A4.264,4.264,0,0,0,5.063,34.24H27.412A4.264,4.264,0,0,0,31.475,29.8Zm-13.777-4.53-6.1-7.769h4.063V13.153h4.063v7.769h4.063ZM5.678,7.6l6.9-3.361H31.994L28.007,7.6Z" transform="translate(-1 -2.572)" fill="url(#linear-gradient)"/>
      </g>
      <g id="Сгруппировать_8422" data-name="Сгруппировать 8422" transform="translate(0 6.128)">
        <path id="Контур_6689-2" data-name="Контур 6689" d="M20.248,12.915S1,8.181,1,8.475V29.563A4.264,4.264,0,0,0,5.063,34H27.412ZM16.238,28.453l-6.1-7.769h4.063V12.915h4.063v7.769h4.063Z" transform="translate(-1 -8.462)" fill="#b4b4b4"/>
      </g>
    </g>
    <g id="backup-2" data-name="backup" transform="translate(894.055 365.967)">
      <g id="Сгруппировать_8420-2" data-name="Сгруппировать 8420" transform="translate(0)">
        <path id="Контур_6689-3" data-name="Контур 6689" d="M29.606,11.441a3.752,3.752,0,0,0-.439-2.108,2.821,2.821,0,0,0-1.756-.871L1,8.11V29.2a4.264,4.264,0,0,0,4.063,4.439H27.412a3.807,3.807,0,0,0,1.5-.815,3,3,0,0,0,.69-1.428ZM14.672,28.075l-6.1-7.769H12.64V12.537H16.7v7.769h4.063ZM5.063,7h0Z" transform="translate(-1 -7)" fill="#e2e2e2"/>
      </g>
    </g>
  </g>
</svg>
