<svg xmlns="http://www.w3.org/2000/svg" width="39.603" height="34.371" viewBox="0 0 39.603 34.371"><g transform="translate(0 0)"><g transform="translate(9.172 0.001)"><g transform="translate(0 0)"><path d="M16.905,19.326v8.323L30.43,14.124,16.905.6V8.923C10.924,9.183,0,11.654,0,25.828V30.64l2.471-4.161C5.592,21.147,8.713,19.456,16.905,19.326Z" transform="translate(0 -0.6)" fill="#fff"/></g></g><path d="M-24.3-29.255l9.165-4.333L-1.6-20.063l-9.169,4.332Z" transform="translate(41.207 33.587)" fill="#fff"/><path d="M-24.319-27.545l13.526-13.526L-1.622-45.4-15.149-31.876Z" transform="translate(41.225 58.927)" fill="#b4b4b4"/><path d="M-25.061,5.988a41.255,41.255,0,0,1,4.608-7.2c2.621-3.135,10.041-5.827,10.041-5.827a11.6,11.6,0,0,1-.937,1.529c-.376.565-1.353,1.86-1.786,2.563C-14.457-.8-15.889,1.667-15.889,1.667Z" transform="translate(25.061 28.378)" fill="#b4b4b4"/><g transform="translate(0.002 4.332)"><g transform="translate(0 0)"><path d="M16.905,19.326v8.323L30.43,14.124,16.905.6V8.923C10.924,9.183,0,11.654,0,25.828V30.64l2.471-4.161C5.592,21.147,8.713,19.456,16.905,19.326Z" transform="translate(0 -0.6)" fill="#e2e2e2"/></g></g></g></svg>