<svg width="36" height="35" viewBox="0 0 36 35" fill="none" xmlns="http://www.w3.org/2000/svg">
<path d="M34.0403 12.1401L23.6297 10.6272L18.9793 1.20011C18.7043 0.733025 18.2026 0.446289 17.6606 0.446289C17.1185 0.446289 16.6168 0.733025 16.3418 1.20011L11.6826 10.6272L1.27195 12.1401C0.718122 12.22 0.257688 12.6074 0.0842046 13.1394C-0.0892784 13.6714 0.0542695 14.2557 0.454504 14.6468L7.98941 21.9891L6.21191 32.3586C6.1174 32.9102 6.3442 33.4676 6.79695 33.7964C7.2497 34.1253 7.8499 34.1686 8.3452 33.9082L17.6561 29.0139L26.9671 33.9082C27.4624 34.1686 28.0626 34.1253 28.5153 33.7964C28.9681 33.4676 29.1949 32.9102 29.1004 32.3586L27.3229 21.9891L34.8578 14.6468C35.2579 14.2561 35.4018 13.6723 35.229 13.1405C35.0561 12.6087 34.5966 12.2209 34.0433 12.1401H34.0403Z" fill="#F6C744"/>
</svg>
