<svg xmlns="http://www.w3.org/2000/svg" width="33.26" height="34.308" viewBox="0 0 33.26 34.308">
    <g transform="translate(-0.001 0)">
        <path d="M-.411,5.383c.194-.648,6.851-7.3,8.16-6.759S28.224,2.117,28.3,3.652c.034.731-4.866,6.464-6.084,6.948S9.384,12.718,9.384,12.718-.6,6.031-.411,5.383Z" transform="translate(1.462 1.407)" fill="#C756F5"/>
        <path d="M-6.934-4.093S5.458-6.509,5.982-6.227s-2.106,19.4-2.106,19.4c-.382.182-10.812,3.058-11.344,2.931S-6.934-4.093-6.934-4.093Z" transform="translate(17.776 18.196)" fill="#A041C3"/>
        <path d="M8.135-.535s5.243-6.68,5.96-6.755S17.946,5.055,17.579,6.553,5.991,18.923,5.991,18.923Z" transform="translate(15.652 12.452)" fill="#753290"/>
        <path d="M-.591,5.728c.3-.491,9.763,7.2,9.763,7.2s.262,20.413-.494,20.209S-1.4,23.052-1.622,22.486-.891,6.219-.591,5.728Z" transform="translate(1.656 1.14)" fill="#A946CE"/>
    </g>
</svg>