<svg xmlns="http://www.w3.org/2000/svg" width="32.839" height="34.489" viewBox="0 0 32.839 34.489">
    <g transform="translate(0 0)">
        <path d="M.042,3.2S7.068-3.849,8.377-3.312,29.43.567,29.5,2.1s-13.193,10.19-13.193,10.19Z" transform="translate(0.099 3.341)" fill="#C756F5"/>
        <path d="M.173-5.707l13.2-10.146S16.927-3.686,16.561-2.2,4.468,10.984,4.468,10.984c-.382.182-10.032,2.3-10.565,2.172S.173-5.707.173-5.707Z" transform="translate(16.251 21.328)" fill="#753290"/>
        <path d="M-.02,3.419c.3-.491,16.32,9.092,16.32,9.092S10.751,31.542,9.994,31.339.534,21.518.313,20.952-.32,3.91-.02,3.419Z" transform="translate(0.125 3.132)" fill="#A946CE"/>
    </g>
</svg>