<svg xmlns="http://www.w3.org/2000/svg" width="34.806" height="35.955" viewBox="0 0 34.806 35.955">
    <g transform="translate(0 0)">
        <path d="M-2.257,4.6c.2-.659,14.382-6.711,15.812-6.636S27.727,2.941,28.54,3.651c.783.818-6.815,7.436-7.329,7.771s-13.393-.349-13.393-.349S-2.455,5.257-2.257,4.6Z" transform="translate(2.912 2.039)" fill="#C756F5"/>
        <path d="M-8.508-5.811s12.785.052,13.318.339S-2.445,17.063-2.947,17.067-8.508-5.811-8.508-5.811Z" transform="translate(19.252 18.887)" fill="#A041C3"/>
        <path d="M5.763.385s6.619-7.6,7.349-7.675S17.023,5.981,16.4,7.211-1.98,22.854-1.98,22.854Z" transform="translate(18.33 13.085)" fill="#753290"/>
        <path d="M-2.35,4.678c.2-.214,10.09,6.486,10.09,6.486s5.838,22.673,5.511,22.809-16-9.027-16.223-9.6S-2.551,4.892-2.35,4.678Z" transform="translate(3.02 1.949)" fill="#A946CE"/>
    </g>
</svg>