<svg xmlns="http://www.w3.org/2000/svg" width="28" height="26.277" viewBox="0 0 28 26.277">
  <g id="Group_8874" data-name="Group 8874" transform="translate(-0.479 -0.175)">
    <path id="Path_5670" data-name="Path 5670" d="M-2.258,2.844c.179-.485,13.83-4.763,15.127-4.707A98.163,98.163,0,0,1,25.689,2.148c.71.6-6.184,5.471-6.65,5.717L12.87,5.432,6.885,7.608S-2.437,3.329-2.258,2.844Z" transform="translate(2.74 2.039)" fill="#ffe496"/>
    <path id="Path_5671" data-name="Path 5671" d="M-8.508-5.811l5.794-2.154,6.291,2.4c.484.211-6.584,16.579-7.039,16.582L-8.508,1.09Z" transform="translate(18.145 15.431)" fill="#d0a93f"/>
    <path id="Path_5673" data-name="Path 5673" d="M5.046-1.643s6.006-5.591,6.668-5.647L10.432,2.652l-5.385,8.2L-1.98,14.887Z" transform="translate(16.704 11.554)" fill="#9a7d2f"/>
    <path id="Path_5672" data-name="Path 5672" d="M-2.526,4.677c.183-.158,9.156,4.772,9.156,4.772V16.29l5,9.939L.1,17.4Z" transform="translate(3.021 0.199)" fill="#f6c744"/>
  </g>
</svg>