<svg xmlns="http://www.w3.org/2000/svg" width="33.767" height="34.699" viewBox="0 0 33.767 34.699">
    <g transform="translate(0 0)"><path d="M-1.527,3.5c.194-.648,15.146-6.372,16.455-5.834S28.525-.021,28.6,1.514,13.951,12.131,13.951,12.131-1.721,4.149-1.527,3.5Z" transform="translate(1.774 2.368)" fill="#C756F5"/>
        <path d="M-1.611-4.3S17-1.448,16.636.041s-6.181,10.752-6.181,10.752c-.382.182-12.366,5.328-12.9,5.2S-1.611-4.3-1.611-4.3Z" transform="translate(17.125 18.703)" fill="#753290"/>
        <path d="M-1.116.82S12.785-9.545,13.5-9.62,16.845,4.963,16.845,4.963C16.463,5.145-1.116.82-1.116.82Z" transform="translate(16.899 13.627)" fill="#A041C3"/>
        <path d="M-1.6,3.614c.3-.491,15.5,8.548,15.5,8.548s-.373,20.409-1.13,20.206-14.2-9.645-14.423-10.211S-1.9,4.1-1.6,3.614Z" transform="translate(1.819 2.281)" fill="#A946CE"/>
    </g>
</svg>