<svg xmlns="http://www.w3.org/2000/svg" width="58.748" height="58.748" viewBox="0 0 58.748 58.748">
  <g id="Group_8513" data-name="Group 8513" transform="translate(-219 50.104)">
    <g id="Path_6825" data-name="Path 6825" transform="translate(219 -50.104)" fill="#396c5d">
      <path d="M 29.373779296875 57.74755859375 C 25.54290008544922 57.74755859375 21.8271484375 56.99749755859375 18.3297290802002 55.51821899414062 C 14.9511194229126 54.08918762207031 11.91660976409912 52.04319000244141 9.310489654541016 49.43706893920898 C 6.704369068145752 46.83094787597656 4.658369064331055 43.79644012451172 3.229339361190796 40.41782760620117 C 1.750059247016907 36.92041015625 0.9999992847442627 33.20465850830078 0.9999992847442627 29.373779296875 C 0.9999992847442627 25.54290008544922 1.750059247016907 21.8271484375 3.229339361190796 18.3297290802002 C 4.658369064331055 14.9511194229126 6.704369068145752 11.91660976409912 9.310489654541016 9.310489654541016 C 11.91660976409912 6.704369068145752 14.9511194229126 4.658369064331055 18.3297290802002 3.229339361190796 C 21.8271484375 1.750059247016907 25.54290008544922 0.9999992847442627 29.373779296875 0.9999992847442627 C 33.20465850830078 0.9999992847442627 36.92041015625 1.750059247016907 40.41782760620117 3.229339361190796 C 43.79644012451172 4.658369064331055 46.83094787597656 6.704369068145752 49.43706893920898 9.310489654541016 C 52.04319000244141 11.91660976409912 54.08918762207031 14.9511194229126 55.51821899414062 18.3297290802002 C 56.99749755859375 21.8271484375 57.74755859375 25.54290008544922 57.74755859375 29.373779296875 C 57.74755859375 33.20465850830078 56.99749755859375 36.92041015625 55.51821899414062 40.41782760620117 C 54.08918762207031 43.79644012451172 52.04319000244141 46.83094787597656 49.43706893920898 49.43706893920898 C 46.83094787597656 52.04319000244141 43.79644012451172 54.08918762207031 40.41782760620117 55.51821899414062 C 36.92041015625 56.99749755859375 33.20465850830078 57.74755859375 29.373779296875 57.74755859375 Z" stroke="none"/>
      <path d="M 29.373779296875 2 C 25.67745971679688 2 22.09276962280273 2.723480224609375 18.71928024291992 4.150348663330078 C 15.45986938476562 5.528961181640625 12.53219985961914 7.50299072265625 10.0175895690918 10.0175895690918 C 7.50299072265625 12.53219985961914 5.528961181640625 15.45986938476562 4.150348663330078 18.71928024291992 C 2.723480224609375 22.09276962280273 2 25.67745971679688 2 29.373779296875 C 2 33.07009887695312 2.723480224609375 36.65478897094727 4.150348663330078 40.02827835083008 C 5.528961181640625 43.28768920898438 7.50299072265625 46.21535873413086 10.0175895690918 48.7299690246582 C 12.53219985961914 51.24456787109375 15.45986938476562 53.21859741210938 18.71928024291992 54.59720993041992 C 22.09276962280273 56.02407836914062 25.67745971679688 56.74755859375 29.373779296875 56.74755859375 C 33.07009887695312 56.74755859375 36.65478897094727 56.02407836914062 40.02827835083008 54.59720993041992 C 43.28768920898438 53.21859741210938 46.21535873413086 51.24456787109375 48.7299690246582 48.7299690246582 C 51.24456787109375 46.21535873413086 53.21859741210938 43.28768920898438 54.59720993041992 40.02827835083008 C 56.02407836914062 36.65478897094727 56.74755859375 33.07009887695312 56.74755859375 29.373779296875 C 56.74755859375 25.67745971679688 56.02407836914062 22.09276962280273 54.59720993041992 18.71928024291992 C 53.21859741210938 15.45986938476562 51.24456787109375 12.53219985961914 48.7299690246582 10.0175895690918 C 46.21535873413086 7.50299072265625 43.28768920898438 5.528961181640625 40.02827835083008 4.150348663330078 C 36.65478897094727 2.723480224609375 33.07009887695312 2 29.373779296875 2 M 29.373779296875 0 C 45.59646987915039 0 58.74755859375 13.15108871459961 58.74755859375 29.373779296875 C 58.74755859375 45.59646987915039 45.59646987915039 58.74755859375 29.373779296875 58.74755859375 C 13.15108871459961 58.74755859375 0 45.59646987915039 0 29.373779296875 C 0 13.15108871459961 13.15108871459961 0 29.373779296875 0 Z" stroke="none" fill="#52ba88"/>
    </g>
    <g id="Group_8509" data-name="Group 8509" transform="translate(229.538 -33.193)">
      <path id="Path_1355" data-name="Path 1355" d="M0,16.217l3.591-3.74,7.181,5.386A49.222,49.222,0,0,1,34.111,3.5l1.8,3.591S18.731,14.242,10.473,29.682Z" transform="translate(0 -3.5)" fill="#fff"/>
    </g>
  </g>
</svg>
