<svg width="226" height="69" viewBox="0 0 226 69" fill="none" xmlns="http://www.w3.org/2000/svg">
<path d="M77 22.1221C77 19.9129 78.7909 18.1221 81 18.1221C83.2091 18.1221 85 19.9129 85 22.1221V46.1221C85 48.3312 83.2091 50.1221 81 50.1221C78.7909 50.1221 77 48.3312 77 46.1221V22.1221Z" fill="#B445CE"/>
<path d="M90 17.1221C90 14.9129 91.7909 13.1221 94 13.1221C96.2091 13.1221 98 14.9129 98 17.1221V52.1221C98 54.3312 96.2091 56.1221 94 56.1221C91.7909 56.1221 90 54.3312 90 52.1221V17.1221Z" fill="#B445CE"/>
<path d="M142 17.1221C142 14.9129 143.791 13.1221 146 13.1221C148.209 13.1221 150 14.9129 150 17.1221V52.1221C150 54.3312 148.209 56.1221 146 56.1221C143.791 56.1221 142 54.3312 142 52.1221V17.1221Z" fill="#B445CE"/>
<path d="M103 10.1221C103 7.91293 104.791 6.12207 107 6.12207C109.209 6.12207 111 7.91293 111 10.1221V58.1221C111 60.3312 109.209 62.1221 107 62.1221C104.791 62.1221 103 60.3312 103 58.1221V10.1221Z" fill="#B445CE"/>
<path d="M129 10.1221C129 7.91293 130.791 6.12207 133 6.12207C135.209 6.12207 137 7.91293 137 10.1221V58.1221C137 60.3312 135.209 62.1221 133 62.1221C130.791 62.1221 129 60.3312 129 58.1221V10.1221Z" fill="#B445CE"/>
<path d="M116 4.12207C116 1.91293 117.791 0.12207 120 0.12207C122.209 0.12207 124 1.91293 124 4.12207V64.1221C124 66.3312 122.209 68.1221 120 68.1221C117.791 68.1221 116 66.3312 116 64.1221V4.12207Z" fill="#B445CE"/>
<path opacity="0.448175" d="M5.13018 15.689C12.3858 15.0088 189.415 15.689 189.415 15.689C189.415 15.689 192.342 17.2725 192.342 19.639C192.342 22.0054 189.415 23.4817 189.415 23.4817H173.317C173.317 23.4817 171.44 24.9169 171.44 26.5582C171.44 28.1995 173.317 30.0469 173.317 30.0469H222.429C222.429 30.0469 225.092 32.4349 225.092 34.5276C225.092 36.6204 222.429 38.4178 222.429 38.4178H173.317C173.317 38.4178 171.44 40.0394 171.44 41.6951C171.44 43.3508 173.317 45.0406 173.317 45.0406H208.784C208.784 45.0406 211.447 47.5735 211.447 49.4856C211.447 51.3978 208.784 52.689 208.784 52.689C208.784 52.689 36.3014 53.0655 31.8478 52.689C27.3943 52.3126 27.3749 45.7359 31.8478 45.0406C36.3208 44.3453 60.3674 45.0406 60.3674 45.0406C60.3674 45.0406 62.5402 43.0085 62.5402 41.6858C62.5402 40.3632 60.3674 38.4178 60.3674 38.4178C60.3674 38.4178 22.3853 38.24 20.7024 38.4178C19.9098 38.5015 17.2654 36.982 16.6936 34.7584C16.2051 32.9027 17.9702 30.2974 20.7024 30.0469C25.8673 29.5735 60.3674 30.0469 60.3674 30.0469C60.3674 30.0469 62.5402 28.9855 62.5402 27.3321C62.5402 25.6787 60.3674 23.4817 60.3674 23.4817C60.3674 23.4817 8.86408 23.568 5.13018 23.4817C1.39628 23.3954 -2.12542 16.3692 5.13018 15.689Z" fill="#B445CE"/>
</svg>
