<svg xmlns="http://www.w3.org/2000/svg" width="34.125" height="17.061" viewBox="0 0 34.125 17.061">
  <g id="trend-up" transform="translate(0 -12)">
    <g id="Group_9061" data-name="Group 9061" transform="translate(0 12)">
      <path id="Path_7807" data-name="Path 7807" d="M33.28,12.012,21.906,14.145a.711.711,0,0,0-.371,1.2l3.616,3.615-6.667,6.667L10.958,18.1a1.422,1.422,0,0,0-2.01,0L.417,26.634a1.422,1.422,0,1,0,2.011,2.011l7.525-7.526,7.525,7.525a1.422,1.422,0,0,0,2.01,0l7.673-7.673,3.616,3.616a.711.711,0,0,0,.5.208.74.74,0,0,0,.213-.031.711.711,0,0,0,.488-.549l2.133-11.374a.711.711,0,0,0-.83-.83Z" transform="translate(0 -12)" fill="#07080a"/>
    </g>
  </g>
</svg>
