<svg id="svg" version="1.1" xmlns="http://www.w3.org/2000/svg" xmlns:xlink="http://www.w3.org/1999/xlink" width="400" height="442.2764227642276" viewBox="0, 0, 400,442.2764227642276"><g id="svgg"><path id="path0" d="M265.700 5.065 C 265.425 5.176,265.200 5.882,265.200 6.633 L 265.200 8.000 259.374 8.000 C 252.947 8.000,252.000 8.251,252.000 9.955 L 252.000 11.081 245.924 11.364 C 238.952 11.689,239.200 11.613,239.200 13.413 L 239.200 14.780 232.900 14.890 L 226.600 15.000 226.229 16.500 L 225.859 18.000 221.129 18.000 L 216.400 18.000 216.400 19.600 L 216.400 21.200 210.043 21.200 C 203.177 21.200,203.200 21.192,203.200 23.433 L 203.200 24.400 197.433 24.400 C 190.602 24.400,190.400 24.453,190.400 26.243 L 190.400 27.600 185.026 27.600 C 178.790 27.600,177.782 27.861,177.405 29.576 L 177.136 30.800 126.194 30.800 C 71.992 30.800,73.200 30.755,73.200 32.790 L 73.200 34.000 70.633 34.000 C 67.228 34.000,66.800 34.202,66.800 35.811 L 66.800 37.136 64.100 37.397 C 60.450 37.748,60.400 37.775,60.400 39.387 C 60.400 40.763,60.360 40.800,58.835 40.800 C 57.321 40.800,57.262 40.852,57.000 42.400 C 56.783 43.687,56.561 44.001,55.865 44.006 C 54.358 44.017,54.028 44.563,53.755 47.496 L 53.489 50.358 52.044 50.479 L 50.600 50.600 50.489 56.783 C 50.364 63.774,50.456 63.585,47.180 63.594 C 44.686 63.601,44.000 64.051,44.000 65.680 L 44.000 66.800 39.251 66.800 L 34.502 66.800 34.248 68.387 L 33.995 69.975 29.297 70.087 L 24.600 70.200 24.477 71.684 L 24.354 73.167 21.277 73.284 L 18.200 73.400 18.076 74.900 C 17.955 76.358,17.908 76.400,16.376 76.400 C 14.808 76.400,14.800 76.408,14.800 77.976 C 14.800 79.508,14.758 79.555,13.300 79.676 C 11.881 79.793,11.793 79.881,11.676 81.300 C 11.558 82.721,11.479 82.800,10.166 82.800 C 8.332 82.800,8.000 83.720,8.000 88.802 L 8.000 92.752 6.500 92.876 L 5.000 93.000 4.884 104.400 C 4.744 118.143,4.761 118.281,6.615 118.629 L 8.000 118.889 8.030 123.145 C 8.076 129.735,8.340 130.923,9.860 131.371 L 11.120 131.743 11.404 136.471 L 11.688 141.200 13.234 141.200 L 14.780 141.200 14.890 147.700 L 15.000 154.200 16.490 154.324 L 17.980 154.447 18.090 160.724 L 18.200 167.000 19.700 167.124 L 21.200 167.248 21.206 173.124 C 21.213 179.628,21.254 179.781,23.088 180.179 L 24.375 180.458 24.488 185.129 L 24.600 189.800 26.100 189.924 L 27.600 190.048 27.600 196.144 C 27.600 202.730,27.739 203.200,29.680 203.200 L 30.800 203.200 30.800 208.574 C 30.800 214.950,31.081 216.000,32.790 216.000 L 34.000 216.000 34.003 219.500 C 34.007 224.349,34.438 228.447,34.961 228.603 C 35.203 228.674,35.895 228.842,36.500 228.974 L 37.600 229.215 37.600 234.008 L 37.600 238.800 39.200 238.800 L 40.800 238.800 40.800 245.195 L 40.800 251.591 42.400 251.846 L 44.000 252.102 44.000 257.823 C 44.000 264.033,44.245 264.800,46.229 264.800 L 47.200 264.800 47.200 269.557 C 47.200 274.675,47.253 274.800,49.433 274.800 L 50.400 274.800 50.400 332.720 C 50.400 394.714,50.293 391.600,52.422 391.600 C 53.440 391.600,53.495 391.711,53.731 394.246 C 54.007 397.202,54.457 398.000,55.844 398.000 C 56.639 398.000,56.832 398.256,57.046 399.600 C 57.293 401.142,57.357 401.200,58.827 401.200 C 60.297 401.200,60.356 401.253,60.476 402.684 C 60.618 404.388,61.237 404.694,64.676 404.760 L 66.752 404.800 66.876 406.300 L 67.000 407.800 70.100 407.917 L 73.200 408.034 73.200 409.227 C 73.200 410.914,74.268 411.200,80.572 411.200 L 85.891 411.200 86.146 413.056 C 86.286 414.077,86.400 415.517,86.400 416.256 C 86.400 417.557,86.451 417.600,88.000 417.600 L 89.600 417.600 89.600 420.800 L 89.600 424.000 91.200 424.000 L 92.800 424.000 92.800 425.600 L 92.800 427.200 94.400 427.200 C 95.999 427.200,96.000 427.201,96.000 428.795 C 96.000 430.347,96.044 430.398,97.600 430.646 C 99.040 430.877,99.200 431.018,99.200 432.061 C 99.200 433.510,100.312 434.000,103.601 434.000 L 105.949 434.000 106.075 435.284 C 106.255 437.135,107.363 437.265,121.715 437.122 C 134.964 436.991,134.779 437.022,134.794 434.900 C 134.800 434.020,134.901 434.000,139.320 434.000 C 144.230 434.000,144.800 433.784,144.800 431.920 L 144.800 430.800 150.567 430.800 C 157.516 430.800,157.600 430.776,157.600 428.757 L 157.600 427.200 163.995 427.200 L 170.391 427.200 170.646 425.600 L 170.902 424.000 176.771 424.000 C 183.115 424.000,183.600 423.852,183.600 421.920 L 183.600 420.800 188.357 420.800 C 193.471 420.800,193.600 420.745,193.600 418.577 L 193.600 417.620 199.900 417.510 L 206.200 417.400 206.324 415.900 L 206.448 414.400 211.798 414.400 C 218.150 414.400,219.200 414.118,219.200 412.410 L 219.200 411.200 279.750 411.200 C 346.082 411.200,342.617 411.300,342.979 409.374 L 343.230 408.033 346.315 407.917 L 349.400 407.800 349.521 406.356 L 349.642 404.912 352.267 404.667 C 355.288 404.385,356.000 403.948,356.000 402.375 C 356.000 401.362,356.151 401.236,357.500 401.124 C 358.909 401.008,359.007 400.912,359.121 399.546 C 359.225 398.301,359.410 398.058,360.400 397.860 C 361.832 397.574,362.400 396.556,362.688 393.766 C 362.901 391.709,362.969 391.600,364.042 391.600 C 365.853 391.600,366.000 390.806,366.000 381.043 L 366.000 372.034 369.100 371.917 L 372.200 371.800 372.324 370.300 L 372.448 368.800 375.624 368.800 L 378.800 368.800 378.800 367.200 L 378.800 365.600 380.400 365.600 L 382.000 365.600 382.000 364.000 L 382.000 362.400 383.600 362.400 C 385.196 362.400,385.200 362.396,385.200 360.823 C 385.200 359.254,385.208 359.245,386.900 359.123 C 388.588 359.001,388.601 358.988,388.722 357.324 C 388.835 355.762,388.931 355.639,390.117 355.524 C 391.621 355.378,391.938 354.283,391.977 349.100 L 392.000 346.000 393.186 346.000 C 394.793 346.000,395.200 345.080,395.200 341.452 C 395.200 337.472,394.778 336.400,393.210 336.400 L 392.000 336.400 391.995 327.700 C 391.988 317.491,391.957 317.303,390.205 316.975 L 388.899 316.729 388.726 310.998 C 388.538 304.739,388.287 304.000,386.351 304.000 L 385.200 304.000 385.200 299.205 L 385.200 294.409 383.610 294.155 L 382.020 293.901 381.910 287.650 L 381.800 281.400 380.300 281.276 L 378.800 281.152 378.800 274.963 C 378.800 270.361,378.672 268.735,378.300 268.621 C 378.025 268.536,377.318 268.362,376.729 268.233 L 375.658 267.999 375.529 261.984 C 375.392 255.577,375.275 255.220,373.313 255.206 C 372.453 255.200,372.422 255.051,372.313 250.500 L 372.200 245.800 370.700 245.676 L 369.200 245.552 369.200 240.002 C 369.200 233.447,368.926 232.400,367.210 232.400 L 366.000 232.400 366.000 142.426 C 366.000 47.423,366.063 50.400,364.066 50.400 C 362.964 50.400,362.902 50.303,362.688 48.234 C 362.400 45.444,361.832 44.426,360.400 44.140 C 359.410 43.942,359.225 43.699,359.121 42.454 C 359.007 41.088,358.909 40.992,357.500 40.876 C 356.151 40.764,356.000 40.638,356.000 39.625 C 356.000 38.081,355.431 37.742,352.300 37.417 L 349.600 37.136 349.600 35.811 C 349.600 34.204,349.171 34.000,345.785 34.000 L 343.236 34.000 342.981 32.637 C 342.632 30.777,342.921 30.812,327.500 30.805 L 314.000 30.800 314.000 29.680 C 314.000 28.211,313.335 27.600,311.737 27.600 L 310.434 27.600 310.317 24.500 L 310.200 21.400 308.700 21.276 L 307.200 21.152 307.200 18.456 C 307.200 15.473,306.817 14.800,305.120 14.800 C 304.255 14.800,304.000 14.612,304.000 13.974 C 304.000 12.175,303.358 11.719,300.414 11.429 L 297.600 11.152 297.600 9.819 C 297.600 8.201,297.176 8.000,293.767 8.000 C 291.222 8.000,291.200 7.990,291.200 6.880 C 291.200 4.806,291.147 4.798,278.220 4.832 C 271.609 4.849,265.975 4.954,265.700 5.065 M283.640 16.469 C 284.388 16.727,285.450 17.250,286.000 17.632 C 286.550 18.013,287.911 18.532,289.024 18.784 C 295.264 20.200,303.127 32.617,299.238 34.914 C 297.496 35.943,217.977 35.972,214.315 34.944 C 211.466 34.145,211.420 34.194,216.077 33.040 C 218.606 32.414,220.430 31.694,221.562 30.873 C 223.256 29.646,224.586 29.276,230.389 28.415 C 232.220 28.144,233.692 27.687,234.189 27.235 C 235.245 26.276,237.182 25.696,240.400 25.376 C 241.992 25.217,243.945 24.667,245.436 23.956 C 247.168 23.131,249.124 22.631,252.198 22.227 C 255.090 21.848,256.867 21.409,257.562 20.903 C 259.073 19.801,259.662 19.640,264.485 19.006 C 267.459 18.616,269.294 18.160,270.232 17.580 C 272.790 15.999,280.441 15.365,283.640 16.469 M335.200 43.456 C 336.190 43.927,337.990 44.444,339.200 44.606 C 342.144 44.999,343.069 45.389,344.826 46.976 C 345.643 47.714,346.678 48.434,347.127 48.577 C 347.575 48.719,348.309 49.457,348.757 50.218 C 349.206 50.978,349.836 51.600,350.157 51.600 C 350.677 51.600,352.800 55.387,352.800 56.313 C 352.800 56.513,353.161 57.002,353.602 57.402 C 355.194 58.843,355.180 57.339,355.208 221.206 C 355.237 388.294,355.288 383.040,353.600 385.000 C 353.221 385.440,352.438 386.851,351.861 388.136 C 351.257 389.480,350.499 390.554,350.075 390.664 C 349.670 390.770,349.026 391.386,348.644 392.033 C 348.262 392.680,347.195 393.591,346.275 394.057 C 345.354 394.523,344.457 395.148,344.283 395.447 C 343.768 396.329,342.396 396.899,339.000 397.639 C 337.240 398.023,335.080 398.613,334.200 398.951 C 331.375 400.035,83.667 399.885,81.271 398.798 C 80.321 398.366,78.341 397.808,76.871 397.556 C 73.912 397.049,72.077 396.267,71.731 395.364 C 71.606 395.038,70.940 394.482,70.252 394.129 C 68.300 393.128,65.267 389.824,64.365 387.714 C 63.915 386.661,63.194 385.424,62.764 384.964 C 61.125 383.214,61.154 386.309,61.197 220.730 C 61.240 54.679,61.201 58.278,62.971 56.430 C 63.514 55.864,64.249 54.703,64.604 53.851 C 65.268 52.263,68.753 48.400,69.522 48.400 C 69.758 48.400,70.774 47.688,71.780 46.817 C 72.912 45.838,74.179 45.142,75.104 44.991 C 78.615 44.420,80.577 43.951,81.030 43.575 C 82.245 42.567,92.140 42.487,209.200 42.542 L 333.400 42.600 335.200 43.456 M52.004 77.604 C 52.805 78.405,52.808 78.744,52.704 154.304 L 52.600 230.200 51.701 232.149 C 50.248 235.299,48.843 233.059,47.997 226.242 C 47.715 223.977,47.195 221.975,46.565 220.731 C 45.956 219.529,45.343 217.224,44.971 214.731 C 44.558 211.973,44.047 210.141,43.368 208.982 C 42.646 207.750,42.217 206.111,41.815 203.043 C 41.449 200.261,40.996 198.427,40.494 197.703 C 39.397 196.119,39.248 195.577,38.562 190.641 C 38.125 187.496,37.727 185.967,37.199 185.400 C 36.088 184.208,35.718 182.941,35.202 178.565 C 34.944 176.384,34.485 174.150,34.181 173.600 C 32.778 171.060,32.433 169.937,32.086 166.775 C 31.822 164.378,31.350 162.625,30.475 160.792 C 29.615 158.993,29.099 157.099,28.785 154.600 C 28.507 152.381,27.976 150.299,27.402 149.174 C 26.889 148.169,26.268 146.189,26.023 144.774 C 25.156 139.776,24.736 138.179,23.751 136.152 C 23.140 134.893,22.542 132.571,22.199 130.128 C 21.837 127.551,21.284 125.458,20.627 124.177 C 19.971 122.898,19.394 120.717,18.993 118.000 C 18.641 115.620,18.010 113.107,17.535 112.200 C 15.696 108.684,15.589 99.429,17.364 97.312 C 17.876 96.700,18.500 95.241,18.750 94.069 C 19.310 91.446,19.785 90.522,20.727 90.223 C 21.128 90.096,21.764 89.345,22.141 88.555 C 22.518 87.765,23.157 87.032,23.563 86.926 C 23.968 86.820,24.682 86.215,25.150 85.582 C 25.654 84.901,26.633 84.260,27.547 84.014 C 28.397 83.785,29.755 83.072,30.564 82.428 C 31.933 81.341,34.876 80.400,36.909 80.400 C 37.387 80.400,39.043 79.778,40.589 79.017 C 42.397 78.127,44.399 77.503,46.200 77.268 C 50.538 76.701,51.136 76.736,52.004 77.604 M367.004 276.150 C 367.346 276.672,367.886 279.076,368.203 281.491 C 368.836 286.311,369.003 286.927,370.071 288.400 C 370.532 289.036,371.020 291.003,371.410 293.800 C 371.836 296.852,372.343 298.811,373.065 300.193 C 373.739 301.485,374.287 303.490,374.623 305.892 C 374.907 307.930,375.424 310.138,375.770 310.799 C 376.117 311.460,376.658 312.495,376.974 313.100 C 377.289 313.705,377.717 315.768,377.925 317.685 C 378.167 319.911,378.629 321.790,379.203 322.885 C 382.214 328.623,382.595 344.989,379.797 348.338 C 379.309 348.922,378.771 349.841,378.603 350.379 C 378.434 350.917,377.455 352.267,376.427 353.379 C 375.399 354.491,374.255 355.885,373.885 356.478 C 373.412 357.234,372.522 357.766,370.905 358.261 C 369.637 358.648,368.082 359.386,367.450 359.899 C 366.104 360.992,365.735 360.932,364.624 359.446 C 363.656 358.149,363.095 285.732,364.007 279.801 C 364.651 275.615,365.765 274.258,367.004 276.150 M181.480 406.813 C 185.351 407.646,185.247 408.419,181.153 409.235 C 179.917 409.482,178.207 410.111,177.353 410.633 C 174.500 412.378,173.188 412.823,169.081 413.435 C 166.836 413.770,164.550 414.346,164.000 414.715 C 161.932 416.103,161.046 416.397,157.668 416.813 C 153.205 417.364,152.397 417.569,151.276 418.438 C 150.305 419.190,147.814 419.787,143.800 420.231 C 142.471 420.378,140.313 421.015,138.965 421.659 C 137.277 422.464,135.439 422.945,132.977 423.225 C 131.024 423.447,128.925 423.892,128.313 424.214 C 127.701 424.536,126.621 425.102,125.914 425.472 C 123.666 426.647,116.655 426.420,113.948 425.084 C 112.767 424.501,110.848 423.673,109.683 423.244 C 108.519 422.815,107.079 421.993,106.483 421.417 C 105.888 420.841,104.391 419.432,103.159 418.285 C 101.926 417.138,100.550 415.480,100.101 414.600 C 99.652 413.720,98.900 412.652,98.429 412.226 C 96.744 410.702,97.891 406.968,100.130 406.687 C 103.198 406.303,179.658 406.421,181.480 406.813 " stroke="none" fill="#050b0c" fill-rule="evenodd"></path><path id="path1" d="M251.802 92.076 C 249.100 92.353,247.992 92.644,247.349 93.248 C 246.879 93.690,245.487 94.461,244.255 94.961 C 243.024 95.461,241.640 96.350,241.179 96.935 C 240.719 97.521,240.093 98.000,239.789 98.000 C 239.484 98.000,238.150 99.125,236.823 100.500 C 235.496 101.875,233.778 103.644,233.005 104.431 C 232.232 105.218,231.600 106.236,231.600 106.693 C 231.600 107.150,230.976 108.271,230.214 109.183 C 229.430 110.121,228.725 111.484,228.590 112.321 C 227.987 116.065,227.460 117.891,226.663 119.000 C 225.364 120.807,225.368 129.597,226.669 131.400 C 227.146 132.061,227.918 134.328,228.389 136.451 C 229.025 139.319,229.494 140.537,230.226 141.224 C 230.767 141.732,231.391 142.826,231.614 143.654 C 231.861 144.570,232.489 145.494,233.216 146.011 C 233.874 146.480,234.684 147.389,235.016 148.032 C 235.349 148.674,235.877 149.200,236.190 149.200 C 236.503 149.200,237.225 149.811,237.795 150.558 C 238.365 151.305,239.340 152.127,239.963 152.385 C 240.586 152.643,241.280 153.256,241.504 153.748 C 241.797 154.392,242.509 154.780,244.052 155.136 C 245.439 155.456,246.636 156.060,247.450 156.849 C 250.141 159.457,270.164 159.509,272.917 156.915 C 273.681 156.196,275.009 155.512,276.200 155.225 C 277.410 154.933,278.674 154.276,279.400 153.563 C 285.151 147.909,287.092 146.108,287.660 145.899 C 288.023 145.765,288.543 144.968,288.817 144.128 C 289.091 143.288,289.820 142.019,290.437 141.309 C 291.055 140.598,291.677 139.338,291.820 138.509 C 292.328 135.551,293.189 132.576,293.988 131.015 C 295.246 128.561,295.166 121.687,293.852 119.197 C 293.330 118.209,292.694 116.181,292.439 114.691 C 291.855 111.294,291.392 110.062,290.223 108.800 C 289.713 108.250,289.081 107.125,288.817 106.300 C 288.554 105.475,288.090 104.800,287.788 104.800 C 287.485 104.800,286.914 104.328,286.519 103.751 C 285.047 101.603,282.153 98.718,280.729 97.978 C 279.920 97.557,279.143 96.850,279.002 96.407 C 278.861 95.963,278.443 95.596,278.073 95.591 C 277.112 95.579,273.944 94.086,273.000 93.200 C 271.500 91.793,260.346 91.202,251.802 92.076 M149.307 193.081 C 148.815 193.176,148.114 193.761,147.748 194.381 C 147.381 195.001,146.507 195.782,145.805 196.117 C 145.101 196.453,144.307 197.258,144.037 197.911 C 143.767 198.563,143.113 199.293,142.584 199.534 C 142.055 199.776,141.346 200.633,141.009 201.440 C 140.672 202.247,139.771 203.599,139.007 204.445 C 138.243 205.290,137.361 206.599,137.046 207.353 C 136.731 208.106,136.108 208.839,135.661 208.981 C 135.201 209.127,134.648 209.848,134.385 210.646 C 134.129 211.421,133.427 212.559,132.824 213.175 C 132.222 213.792,131.421 215.085,131.046 216.048 C 130.670 217.012,129.942 218.160,129.428 218.600 C 128.901 219.051,128.206 220.403,127.836 221.695 C 127.369 223.329,126.838 224.244,125.990 224.870 C 125.336 225.354,124.799 225.942,124.798 226.175 C 124.791 227.489,123.795 229.822,122.793 230.871 C 122.050 231.647,121.486 232.823,121.204 234.178 C 120.908 235.606,120.393 236.640,119.600 237.400 C 118.810 238.156,118.292 239.193,118.000 240.600 C 117.707 242.013,117.190 243.043,116.389 243.811 C 115.718 244.453,115.099 245.557,114.952 246.370 C 114.607 248.279,113.894 249.612,112.638 250.697 C 112.067 251.191,111.599 251.821,111.598 252.097 C 111.592 253.495,110.629 255.747,109.579 256.821 C 108.931 257.485,108.399 258.426,108.398 258.914 C 108.393 260.652,107.575 262.708,106.397 263.941 C 105.710 264.659,105.200 265.626,105.200 266.209 C 105.200 267.616,104.125 270.079,103.196 270.800 C 102.712 271.176,102.213 272.406,101.863 274.089 C 101.466 275.994,100.947 277.182,100.085 278.165 C 99.291 279.069,98.706 280.328,98.404 281.780 C 98.150 283.005,97.531 284.501,97.030 285.104 C 95.716 286.684,95.338 287.557,95.021 289.735 C 94.827 291.076,94.381 292.045,93.570 292.894 C 92.927 293.568,92.400 294.353,92.400 294.640 C 92.400 296.293,91.388 299.391,90.504 300.441 C 89.926 301.128,89.232 302.729,88.913 304.111 C 88.521 305.805,87.939 307.013,87.028 308.022 C 86.077 309.074,85.631 310.030,85.433 311.441 C 85.027 314.326,84.428 315.957,83.615 316.392 C 83.126 316.654,82.734 317.648,82.393 319.489 C 81.842 322.472,81.121 324.181,80.196 324.699 C 79.841 324.897,79.361 326.245,79.035 327.955 C 78.634 330.062,78.188 331.178,77.432 331.967 C 76.691 332.740,76.253 333.812,75.934 335.630 C 75.486 338.183,74.926 339.434,73.518 341.035 C 73.114 341.494,72.583 343.006,72.338 344.394 C 72.020 346.199,71.583 347.243,70.806 348.057 C 69.982 348.919,69.603 349.889,69.245 352.060 C 68.800 354.753,67.795 357.200,67.133 357.200 C 64.975 357.200,65.362 374.112,67.578 376.636 C 68.198 377.342,68.945 378.853,69.237 379.993 C 69.647 381.592,70.030 382.202,70.914 382.659 C 71.544 382.985,72.234 383.750,72.446 384.361 C 72.676 385.019,73.355 385.700,74.116 386.035 C 74.822 386.346,75.635 387.095,75.922 387.700 C 76.209 388.305,76.659 388.801,76.922 388.802 C 78.277 388.809,80.482 389.755,81.622 390.821 C 82.789 391.910,83.280 392.058,86.954 392.421 C 89.179 392.640,92.449 392.996,94.221 393.210 C 96.241 393.455,138.927 393.600,208.751 393.600 C 333.938 393.600,331.343 393.656,334.302 390.892 C 334.956 390.280,336.477 389.470,337.682 389.090 C 339.268 388.590,340.000 388.119,340.336 387.381 C 340.591 386.821,341.340 386.056,342.001 385.681 C 342.662 385.307,343.312 384.659,343.446 384.242 C 343.581 383.825,344.382 382.734,345.227 381.817 C 346.259 380.698,346.905 379.518,347.195 378.222 C 347.433 377.161,348.206 375.487,348.914 374.503 C 350.769 371.922,351.189 365.946,349.600 364.725 C 346.093 362.031,345.301 361.542,343.643 361.049 C 342.629 360.748,340.570 359.849,339.067 359.051 C 337.564 358.253,336.106 357.600,335.827 357.600 C 335.548 357.600,334.569 357.056,333.651 356.391 C 332.733 355.726,331.019 354.756,329.842 354.236 C 328.665 353.715,327.573 353.080,327.414 352.823 C 327.256 352.567,326.011 351.846,324.648 351.222 C 323.285 350.598,321.928 349.795,321.632 349.439 C 321.336 349.082,320.265 348.424,319.252 347.976 C 318.239 347.528,317.048 346.829,316.605 346.424 C 316.162 346.019,314.688 345.131,313.329 344.452 C 311.970 343.773,310.739 343.024,310.592 342.788 C 310.446 342.551,309.398 341.941,308.263 341.433 C 307.128 340.924,305.764 340.034,305.230 339.454 C 304.697 338.874,304.117 338.400,303.943 338.400 C 303.507 338.400,297.692 334.690,296.142 333.422 C 295.450 332.857,294.280 332.135,293.542 331.818 C 292.804 331.501,291.313 330.602,290.230 329.821 C 289.146 329.039,288.027 328.400,287.744 328.400 C 287.460 328.400,286.637 327.899,285.914 327.287 C 285.191 326.674,283.880 325.683,283.000 325.084 C 281.029 323.743,278.709 322.045,276.600 320.400 C 274.814 319.008,273.074 317.782,270.400 316.030 C 269.410 315.382,267.728 314.165,266.663 313.326 C 261.748 309.455,260.912 308.779,259.600 307.619 C 258.101 306.295,254.601 303.510,252.787 302.200 C 251.401 301.199,248.322 298.614,246.609 297.015 C 242.062 292.769,239.000 290.128,238.070 289.651 C 237.482 289.350,236.640 288.785,236.200 288.397 C 235.760 288.009,235.035 287.582,234.588 287.447 C 234.142 287.312,231.982 285.478,229.788 283.371 C 227.595 281.263,225.613 279.418,225.385 279.270 C 225.156 279.121,222.790 276.660,220.127 273.800 C 217.464 270.940,213.462 266.725,211.233 264.434 C 209.005 262.142,207.073 259.834,206.940 259.305 C 206.807 258.775,206.263 258.176,205.730 257.973 C 205.197 257.771,204.503 256.988,204.187 256.232 C 203.872 255.476,203.248 254.742,202.800 254.600 C 202.353 254.458,201.622 253.628,201.177 252.755 C 200.732 251.882,199.950 250.978,199.439 250.745 C 198.929 250.513,198.206 249.683,197.834 248.902 C 197.461 248.121,196.551 246.742,195.810 245.839 C 195.070 244.935,194.337 243.688,194.181 243.066 C 194.025 242.445,193.488 241.750,192.989 241.522 C 192.489 241.294,191.774 240.429,191.400 239.599 C 191.026 238.770,190.243 237.738,189.660 237.307 C 189.077 236.875,188.201 235.723,187.714 234.745 C 187.227 233.768,186.367 232.567,185.803 232.077 C 185.239 231.587,184.667 230.633,184.532 229.958 C 184.378 229.192,183.920 228.564,183.311 228.287 C 182.775 228.042,181.968 227.122,181.519 226.242 C 181.070 225.361,180.183 224.122,179.549 223.487 C 178.914 222.852,178.196 221.544,177.953 220.579 C 177.663 219.426,177.240 218.740,176.719 218.574 C 176.283 218.436,175.689 217.753,175.398 217.057 C 175.107 216.361,174.146 214.883,173.261 213.772 C 172.377 212.661,171.531 211.264,171.381 210.666 C 171.231 210.068,170.769 209.398,170.355 209.176 C 169.941 208.955,169.228 208.040,168.771 207.143 C 168.313 206.246,167.341 204.914,166.609 204.183 C 165.878 203.451,165.081 202.256,164.839 201.526 C 164.579 200.744,163.891 199.912,163.163 199.498 C 162.485 199.112,161.732 198.273,161.490 197.633 C 161.198 196.859,160.692 196.398,159.977 196.255 C 159.312 196.122,158.597 195.522,158.100 194.680 C 157.074 192.940,153.450 192.281,149.307 193.081 " stroke="none" fill="#cb334b" fill-rule="evenodd"></path><path id="path2" d="M277.200 18.313 C 276.650 18.385,275.120 18.786,273.800 19.204 C 272.480 19.623,269.912 20.162,268.093 20.403 C 266.135 20.662,263.982 21.244,262.815 21.830 C 261.567 22.457,259.268 23.053,256.551 23.453 C 253.501 23.903,251.666 24.407,250.211 25.194 C 249.084 25.804,247.180 26.425,245.981 26.574 C 242.135 27.051,239.416 27.669,238.800 28.206 C 237.977 28.922,234.334 29.890,231.200 30.224 C 227.263 30.643,226.716 30.929,228.289 31.743 C 230.395 32.832,297.390 32.741,297.974 31.648 C 298.984 29.761,290.007 20.638,286.702 20.193 C 285.546 20.037,283.790 19.632,282.800 19.293 C 280.490 18.503,278.463 18.148,277.200 18.313 M79.926 46.150 C 76.155 46.547,75.519 46.727,74.526 47.676 C 73.907 48.268,72.619 49.102,71.665 49.528 C 70.672 49.972,69.603 50.840,69.166 51.560 C 68.746 52.251,67.982 53.008,67.468 53.242 C 66.813 53.540,66.385 54.248,66.035 55.613 C 65.761 56.683,64.966 58.420,64.268 59.473 L 63.000 61.388 62.897 210.356 C 62.821 320.673,62.677 359.466,62.341 359.871 C 61.689 360.657,61.442 367.313,61.943 370.600 C 62.177 372.140,62.627 375.145,62.942 377.278 C 63.302 379.717,63.807 381.573,64.301 382.278 C 64.734 382.895,65.411 384.390,65.805 385.600 C 66.269 387.019,67.069 388.332,68.062 389.300 C 68.908 390.124,69.600 391.033,69.600 391.319 C 69.600 391.605,70.242 392.071,71.026 392.355 C 71.811 392.639,73.026 393.369,73.726 393.977 C 75.629 395.629,76.546 396.000,78.730 396.000 C 79.820 396.000,82.217 396.315,84.056 396.700 C 88.395 397.608,325.844 397.805,330.200 396.904 C 331.520 396.630,334.394 396.223,336.587 395.997 C 340.173 395.629,340.697 395.470,341.787 394.419 C 342.454 393.776,343.839 392.892,344.864 392.455 C 346.066 391.942,346.830 391.330,347.017 390.730 C 347.176 390.218,347.982 389.170,348.809 388.400 C 349.829 387.449,350.513 386.321,350.938 384.886 C 351.283 383.724,351.959 382.219,352.441 381.542 C 353.333 380.290,354.130 372.807,354.011 366.800 C 353.987 365.590,353.840 296.560,353.684 213.400 L 353.400 62.200 352.335 60.400 C 351.749 59.410,351.042 57.822,350.763 56.872 C 350.456 55.823,349.577 54.455,348.528 53.391 C 347.578 52.427,346.800 51.379,346.800 51.062 C 346.800 50.746,346.116 50.213,345.280 49.879 C 344.444 49.544,343.021 48.653,342.118 47.899 C 340.530 46.572,340.310 46.512,335.338 46.061 C 328.167 45.410,86.149 45.494,79.926 46.150 M47.329 79.232 C 46.189 79.426,44.621 80.017,43.843 80.545 C 42.474 81.474,41.667 81.664,36.655 82.236 C 34.905 82.436,33.989 82.785,33.045 83.614 C 32.349 84.226,30.758 85.023,29.509 85.385 C 27.968 85.834,27.160 86.297,26.991 86.829 C 26.854 87.261,26.035 87.974,25.171 88.415 C 24.307 88.856,23.600 89.506,23.600 89.861 C 23.600 90.215,22.989 91.082,22.242 91.786 C 21.192 92.777,20.777 93.603,20.412 95.433 C 20.152 96.735,19.583 98.831,19.147 100.092 C 18.410 102.221,18.396 102.532,18.949 104.492 C 19.276 105.651,19.810 109.030,20.135 112.000 C 20.599 116.239,20.949 117.830,21.758 119.400 C 22.455 120.751,22.996 122.829,23.425 125.800 C 23.897 129.071,24.308 130.564,25.027 131.617 C 25.558 132.396,26.167 134.016,26.378 135.217 C 26.590 136.418,26.963 138.537,27.207 139.926 C 27.451 141.316,28.071 143.243,28.584 144.208 C 29.097 145.174,29.642 147.097,29.795 148.482 C 30.210 152.249,30.738 154.381,31.808 156.600 C 32.397 157.822,32.941 159.987,33.205 162.165 C 33.497 164.565,34.017 166.527,34.794 168.165 C 35.576 169.813,36.152 171.996,36.576 174.918 C 37.018 177.966,37.425 179.475,37.962 180.051 C 38.823 180.976,39.328 182.787,40.011 187.396 C 40.271 189.154,40.898 191.408,41.403 192.406 C 41.949 193.483,42.597 196.006,42.998 198.610 C 43.369 201.025,43.993 203.555,44.383 204.233 C 45.482 206.140,45.948 207.895,46.380 211.763 C 46.692 214.549,47.010 215.659,47.839 216.856 C 48.663 218.045,49.014 219.258,49.412 222.293 C 49.694 224.442,50.097 226.740,50.307 227.400 L 50.690 228.600 50.961 226.800 C 51.750 221.548,51.017 79.001,50.200 78.940 C 49.760 78.907,48.468 79.038,47.329 79.232 M267.214 89.162 C 268.432 89.594,270.662 90.161,272.169 90.424 C 274.291 90.793,275.236 91.192,276.355 92.188 C 277.150 92.896,278.387 93.674,279.104 93.918 C 281.702 94.801,288.867 101.535,290.468 104.600 C 290.928 105.480,291.539 106.337,291.825 106.505 C 292.112 106.672,292.702 107.761,293.137 108.923 C 293.572 110.085,294.303 111.757,294.763 112.638 C 297.144 117.207,297.283 133.198,294.971 136.604 C 294.439 137.388,293.797 138.878,293.544 139.915 C 292.971 142.265,292.636 142.927,291.391 144.173 C 290.846 144.718,290.400 145.408,290.400 145.706 C 290.400 146.004,288.465 148.105,286.100 150.374 C 280.040 156.188,279.998 156.223,278.000 157.159 C 277.010 157.623,275.660 158.352,275.000 158.779 C 274.294 159.235,272.070 159.832,269.600 160.229 C 267.290 160.599,264.557 161.240,263.526 161.651 C 261.148 162.601,259.091 162.601,257.026 161.652 C 256.132 161.241,253.870 160.690,252.000 160.428 C 247.343 159.776,245.825 159.335,244.518 158.253 C 243.903 157.744,242.799 157.123,242.064 156.872 C 241.329 156.622,240.385 155.980,239.966 155.447 C 239.546 154.914,238.416 154.016,237.453 153.452 C 235.696 152.423,230.000 146.274,230.000 145.407 C 230.000 145.152,229.468 144.348,228.817 143.619 C 228.084 142.798,227.448 141.463,227.145 140.112 C 226.877 138.912,226.170 137.317,225.575 136.569 C 224.840 135.644,224.416 134.532,224.254 133.104 C 223.131 123.212,223.652 117.077,226.031 112.155 C 226.894 110.370,227.600 108.719,227.600 108.485 C 227.600 108.252,228.025 107.553,228.544 106.931 C 229.063 106.309,229.780 105.230,230.137 104.534 C 231.896 101.101,237.640 95.790,241.529 94.000 C 242.480 93.562,243.774 92.688,244.404 92.057 C 245.344 91.118,246.216 90.789,249.238 90.236 C 251.265 89.865,253.301 89.355,253.762 89.103 C 256.113 87.815,263.505 87.847,267.214 89.162 M156.427 191.033 C 157.836 191.444,159.124 192.183,160.089 193.133 C 163.253 196.249,163.641 196.648,165.019 198.200 C 167.730 201.253,169.082 203.010,170.176 204.900 C 170.781 205.945,171.417 206.800,171.589 206.800 C 171.761 206.800,172.278 207.676,172.739 208.746 C 173.199 209.816,174.015 210.980,174.552 211.332 C 175.089 211.684,175.984 212.968,176.542 214.186 C 177.100 215.404,177.756 216.400,178.000 216.400 C 178.245 216.400,178.821 217.255,179.281 218.300 C 179.740 219.345,180.608 220.707,181.209 221.326 C 181.810 221.945,182.635 223.205,183.042 224.126 C 183.449 225.047,184.104 226.037,184.496 226.326 C 184.889 226.616,185.569 227.555,186.007 228.413 C 186.444 229.271,187.161 230.165,187.600 230.400 C 188.039 230.635,188.782 231.586,189.252 232.513 C 189.721 233.441,190.707 234.870,191.443 235.690 C 192.178 236.509,192.891 237.625,193.028 238.169 C 193.164 238.713,193.708 239.441,194.236 239.787 C 194.764 240.133,195.459 241.045,195.780 241.813 C 196.101 242.582,196.634 243.315,196.965 243.442 C 197.296 243.569,198.052 244.511,198.644 245.536 C 199.237 246.561,200.415 248.161,201.261 249.091 C 202.107 250.021,202.800 251.011,202.800 251.291 C 202.800 251.571,203.430 252.303,204.200 252.917 C 204.970 253.531,205.600 254.247,205.600 254.508 C 205.600 254.769,206.275 255.654,207.100 256.474 C 207.925 257.295,209.230 258.711,210.000 259.622 C 210.770 260.533,211.940 261.800,212.600 262.438 C 214.071 263.860,213.443 263.218,219.296 269.269 C 221.993 272.057,224.496 274.667,224.858 275.069 C 226.052 276.396,234.990 285.024,235.488 285.331 C 236.316 285.842,238.152 284.575,241.240 281.359 C 244.022 278.461,260.543 261.981,263.600 259.054 C 266.255 256.512,272.604 250.992,274.000 250.011 C 274.770 249.471,275.976 248.482,276.680 247.814 C 277.384 247.146,278.783 245.970,279.790 245.200 C 280.797 244.430,282.275 243.260,283.076 242.600 C 286.098 240.107,293.189 237.737,295.769 238.357 C 302.674 240.017,307.394 243.186,309.186 247.366 C 309.597 248.326,310.144 249.242,310.400 249.400 C 310.657 249.559,311.403 250.848,312.059 252.264 C 312.715 253.681,313.679 255.470,314.201 256.240 C 314.724 257.010,315.359 258.666,315.613 259.920 C 315.866 261.174,316.520 263.010,317.065 264.000 C 317.611 264.990,318.327 266.970,318.658 268.400 C 318.988 269.830,319.776 272.294,320.407 273.875 C 321.039 275.456,321.760 277.886,322.010 279.275 C 322.259 280.664,322.927 282.963,323.493 284.384 C 324.541 287.016,324.960 288.425,325.626 291.564 C 325.831 292.534,326.438 294.285,326.974 295.456 C 327.510 296.627,328.241 299.146,328.599 301.054 C 328.956 302.962,329.702 305.417,330.255 306.509 C 330.809 307.602,331.537 309.954,331.873 311.736 C 332.209 313.518,332.909 315.791,333.429 316.788 C 333.948 317.785,334.638 319.860,334.961 321.400 C 335.668 324.773,335.886 325.390,337.018 327.208 C 337.500 327.983,338.105 329.603,338.361 330.808 C 338.618 332.014,339.299 333.900,339.874 335.000 C 340.449 336.100,341.253 338.329,341.661 339.954 C 342.068 341.579,342.780 343.520,343.242 344.268 C 343.704 345.016,344.421 346.985,344.836 348.644 C 345.251 350.303,345.941 352.107,346.370 352.652 C 346.798 353.197,347.546 354.836,348.031 356.293 C 348.516 357.750,349.336 359.335,349.853 359.814 C 353.021 362.750,353.338 373.602,350.363 377.305 C 349.698 378.133,348.893 379.688,348.575 380.759 C 348.173 382.114,347.579 383.026,346.625 383.754 C 345.871 384.329,345.139 385.162,344.999 385.604 C 344.858 386.047,344.219 386.680,343.578 387.011 C 342.938 387.342,342.137 388.149,341.799 388.803 C 341.460 389.457,340.478 390.352,339.615 390.792 C 338.752 391.232,337.395 392.035,336.598 392.576 C 335.801 393.116,334.306 393.668,333.275 393.802 C 332.244 393.936,330.140 394.440,328.600 394.923 L 325.800 395.800 209.200 395.800 L 92.600 395.800 86.717 394.655 C 81.803 393.699,80.485 393.285,78.717 392.141 C 77.553 391.389,76.227 390.677,75.771 390.561 C 75.315 390.444,74.630 389.820,74.247 389.172 C 73.865 388.525,73.036 387.729,72.405 387.402 C 71.773 387.076,71.143 386.451,71.005 386.015 C 70.866 385.578,70.228 384.847,69.586 384.390 C 68.944 383.933,68.055 382.804,67.608 381.880 C 67.162 380.956,66.440 379.646,66.002 378.969 C 63.887 375.695,62.470 364.321,63.758 360.952 C 64.084 360.098,64.553 358.374,64.800 357.120 C 65.047 355.866,65.667 354.224,66.178 353.470 C 66.690 352.716,67.413 350.862,67.786 349.350 C 68.158 347.837,68.902 345.956,69.438 345.170 C 69.974 344.383,70.774 342.435,71.216 340.841 C 71.657 339.246,72.370 337.460,72.800 336.871 C 73.229 336.282,73.877 334.630,74.238 333.200 C 74.600 331.770,75.401 329.880,76.018 329.000 C 76.635 328.120,77.430 326.235,77.784 324.810 C 78.139 323.386,78.779 321.848,79.207 321.393 C 79.634 320.938,80.339 319.144,80.774 317.406 C 81.208 315.668,81.927 313.755,82.371 313.153 C 82.816 312.552,83.518 310.799,83.931 309.257 C 84.351 307.691,85.150 305.900,85.741 305.197 C 86.324 304.505,86.800 303.678,86.800 303.359 C 86.800 302.283,88.271 298.610,89.315 297.080 C 89.885 296.244,90.556 294.577,90.805 293.376 C 91.054 292.175,91.686 290.684,92.208 290.064 C 92.730 289.443,93.463 287.718,93.837 286.229 C 94.211 284.741,94.919 283.045,95.410 282.461 C 95.901 281.878,96.624 280.253,97.017 278.852 C 97.411 277.451,98.135 275.825,98.628 275.240 C 99.120 274.655,99.904 273.016,100.369 271.598 C 100.835 270.181,101.673 268.360,102.233 267.553 C 102.792 266.745,103.498 265.143,103.802 263.993 C 104.105 262.842,104.745 261.484,105.224 260.975 C 105.702 260.465,106.431 258.835,106.842 257.351 C 107.257 255.856,108.025 254.197,108.566 253.627 C 109.103 253.062,109.671 252.060,109.828 251.400 C 110.217 249.758,111.118 247.996,112.179 246.800 C 112.667 246.250,113.281 245.043,113.544 244.118 C 113.806 243.193,114.471 241.902,115.021 241.248 C 115.570 240.595,116.273 239.220,116.583 238.191 C 116.892 237.163,117.596 235.665,118.148 234.861 C 118.700 234.057,119.526 232.389,119.984 231.154 C 120.442 229.919,121.177 228.583,121.618 228.184 C 122.058 227.785,122.692 226.517,123.027 225.366 C 123.362 224.215,124.070 222.839,124.602 222.307 C 125.133 221.776,125.947 220.454,126.411 219.371 C 126.875 218.287,127.590 217.040,128.000 216.600 C 128.410 216.160,129.098 214.990,129.527 214.000 C 129.957 213.010,130.860 211.680,131.535 211.044 C 132.209 210.408,132.876 209.364,133.017 208.725 C 133.157 208.085,133.631 207.345,134.071 207.081 C 134.510 206.816,135.393 205.572,136.033 204.315 C 136.673 203.058,137.555 201.838,137.994 201.603 C 138.433 201.368,139.073 200.632,139.417 199.967 C 140.620 197.642,146.578 191.765,148.108 191.396 C 148.598 191.277,150.080 191.027,151.400 190.839 C 152.720 190.651,153.902 190.476,154.027 190.449 C 154.152 190.422,155.232 190.685,156.427 191.033 M365.457 282.700 C 365.028 285.293,365.160 355.979,365.595 356.791 C 366.619 358.704,371.145 356.456,373.644 352.794 C 374.374 351.724,375.271 350.770,375.637 350.674 C 376.014 350.576,376.594 349.623,376.976 348.473 C 377.346 347.358,378.015 345.980,378.462 345.411 C 380.429 342.911,380.415 331.211,378.442 328.542 C 377.906 327.817,377.414 326.294,377.165 324.582 C 376.341 318.938,375.998 317.524,375.209 316.521 C 374.216 315.258,373.758 313.580,373.222 309.242 C 372.932 306.889,372.493 305.346,371.755 304.087 C 370.984 302.772,370.546 301.160,370.118 298.066 C 369.737 295.317,369.190 293.164,368.549 291.900 C 367.572 289.971,367.094 287.911,366.600 283.500 C 366.304 280.861,365.817 280.520,365.457 282.700 M101.844 410.351 C 100.911 411.382,101.677 414.670,102.990 415.268 C 103.473 415.488,104.179 416.195,104.559 416.839 C 104.940 417.483,105.953 418.368,106.812 418.806 C 107.671 419.244,108.552 419.937,108.770 420.345 C 109.793 422.255,120.398 423.942,124.400 422.831 C 125.390 422.556,127.855 422.096,129.878 421.808 C 132.290 421.465,133.957 421.000,134.719 420.458 C 136.018 419.533,138.105 419.009,142.076 418.610 C 143.926 418.424,145.549 417.933,147.332 417.020 C 149.342 415.991,150.778 415.597,153.829 415.237 C 156.205 414.957,158.228 414.485,158.973 414.036 C 160.712 412.988,162.536 412.483,166.147 412.046 C 169.892 411.594,170.592 411.127,168.866 410.234 C 166.805 409.168,102.813 409.280,101.844 410.351 " stroke="none" fill="#5b1423" fill-rule="evenodd"></path><path id="path3" d="M256.200 88.345 C 255.320 88.509,254.223 88.850,253.762 89.103 C 253.301 89.355,251.265 89.865,249.238 90.236 C 246.216 90.789,245.344 91.118,244.404 92.057 C 243.774 92.688,242.480 93.562,241.529 94.000 C 237.640 95.790,231.896 101.101,230.137 104.534 C 229.780 105.230,229.063 106.309,228.544 106.931 C 228.025 107.553,227.600 108.252,227.600 108.485 C 227.600 108.719,226.894 110.370,226.031 112.155 C 223.652 117.077,223.131 123.212,224.254 133.104 C 224.416 134.532,224.840 135.644,225.575 136.569 C 226.170 137.317,226.877 138.912,227.145 140.112 C 227.448 141.463,228.084 142.798,228.817 143.619 C 229.468 144.348,230.000 145.152,230.000 145.407 C 230.000 146.274,235.696 152.423,237.453 153.452 C 238.416 154.016,239.546 154.914,239.966 155.447 C 240.385 155.980,241.329 156.622,242.064 156.872 C 242.799 157.123,243.903 157.744,244.518 158.253 C 245.825 159.335,247.343 159.776,252.000 160.428 C 253.870 160.690,256.132 161.241,257.026 161.652 C 259.091 162.601,261.148 162.601,263.526 161.651 C 264.557 161.240,267.290 160.599,269.600 160.229 C 272.070 159.832,274.294 159.235,275.000 158.779 C 275.660 158.352,277.010 157.623,278.000 157.159 C 279.998 156.223,280.040 156.188,286.100 150.374 C 288.465 148.105,290.400 146.004,290.400 145.706 C 290.400 145.408,290.846 144.718,291.391 144.173 C 292.636 142.927,292.971 142.265,293.544 139.915 C 293.797 138.878,294.439 137.388,294.971 136.604 C 297.283 133.198,297.144 117.207,294.763 112.638 C 294.303 111.757,293.572 110.085,293.137 108.923 C 292.702 107.761,292.112 106.672,291.825 106.505 C 291.539 106.337,290.928 105.480,290.468 104.600 C 288.867 101.535,281.702 94.801,279.104 93.918 C 278.387 93.674,277.150 92.896,276.355 92.188 C 275.236 91.192,274.291 90.793,272.169 90.424 C 270.662 90.161,268.432 89.594,267.214 89.162 C 264.780 88.299,258.815 87.857,256.200 88.345 M268.058 92.025 C 271.140 92.341,272.405 92.642,273.000 93.200 C 273.944 94.086,277.112 95.579,278.073 95.591 C 278.443 95.596,278.861 95.963,279.002 96.407 C 279.143 96.850,279.920 97.557,280.729 97.978 C 282.153 98.718,285.047 101.603,286.519 103.751 C 286.914 104.328,287.485 104.800,287.788 104.800 C 288.090 104.800,288.554 105.475,288.817 106.300 C 289.081 107.125,289.713 108.250,290.223 108.800 C 291.392 110.062,291.855 111.294,292.439 114.691 C 292.694 116.181,293.330 118.209,293.852 119.197 C 295.166 121.687,295.246 128.561,293.988 131.015 C 293.189 132.576,292.328 135.551,291.820 138.509 C 291.677 139.338,291.055 140.598,290.437 141.309 C 289.820 142.019,289.091 143.288,288.817 144.128 C 288.543 144.968,288.023 145.765,287.660 145.899 C 287.092 146.108,285.151 147.909,279.400 153.563 C 278.674 154.276,277.410 154.933,276.200 155.225 C 275.009 155.512,273.681 156.196,272.917 156.915 C 270.164 159.509,250.141 159.457,247.450 156.849 C 246.636 156.060,245.439 155.456,244.052 155.136 C 242.509 154.780,241.797 154.392,241.504 153.748 C 241.280 153.256,240.586 152.643,239.963 152.385 C 239.340 152.127,238.365 151.305,237.795 150.558 C 237.225 149.811,236.503 149.200,236.190 149.200 C 235.877 149.200,235.349 148.674,235.016 148.032 C 234.684 147.389,233.874 146.480,233.216 146.011 C 232.489 145.494,231.861 144.570,231.614 143.654 C 231.391 142.826,230.767 141.732,230.226 141.224 C 229.494 140.537,229.025 139.319,228.389 136.451 C 227.918 134.328,227.146 132.061,226.669 131.400 C 225.368 129.597,225.364 120.807,226.663 119.000 C 227.460 117.891,227.987 116.065,228.590 112.321 C 228.725 111.484,229.430 110.121,230.214 109.183 C 230.976 108.271,231.600 107.150,231.600 106.693 C 231.600 106.236,232.232 105.218,233.005 104.431 C 233.778 103.644,235.496 101.875,236.823 100.500 C 238.150 99.125,239.484 98.000,239.789 98.000 C 240.093 98.000,240.719 97.521,241.179 96.935 C 241.640 96.350,243.024 95.461,244.255 94.961 C 245.487 94.461,246.879 93.690,247.349 93.248 C 248.856 91.832,259.848 91.183,268.058 92.025 M151.400 190.839 C 150.080 191.027,148.598 191.277,148.108 191.396 C 146.578 191.765,140.620 197.642,139.417 199.967 C 139.073 200.632,138.433 201.368,137.994 201.603 C 137.555 201.838,136.673 203.058,136.033 204.315 C 135.393 205.572,134.510 206.816,134.071 207.081 C 133.631 207.345,133.157 208.085,133.017 208.725 C 132.876 209.364,132.209 210.408,131.535 211.044 C 130.860 211.680,129.957 213.010,129.527 214.000 C 129.098 214.990,128.410 216.160,128.000 216.600 C 127.590 217.040,126.875 218.287,126.411 219.371 C 125.947 220.454,125.133 221.776,124.602 222.307 C 124.070 222.839,123.362 224.215,123.027 225.366 C 122.692 226.517,122.058 227.785,121.618 228.184 C 121.177 228.583,120.442 229.919,119.984 231.154 C 119.526 232.389,118.700 234.057,118.148 234.861 C 117.596 235.665,116.892 237.163,116.583 238.191 C 116.273 239.220,115.570 240.595,115.021 241.248 C 114.471 241.902,113.806 243.193,113.544 244.118 C 113.281 245.043,112.667 246.250,112.179 246.800 C 111.118 247.996,110.217 249.758,109.828 251.400 C 109.671 252.060,109.103 253.062,108.566 253.627 C 108.025 254.197,107.257 255.856,106.842 257.351 C 106.431 258.835,105.702 260.465,105.224 260.975 C 104.745 261.484,104.105 262.842,103.802 263.993 C 103.498 265.143,102.792 266.745,102.233 267.553 C 101.673 268.360,100.835 270.181,100.369 271.598 C 99.904 273.016,99.120 274.655,98.628 275.240 C 98.135 275.825,97.411 277.451,97.017 278.852 C 96.624 280.253,95.901 281.878,95.410 282.461 C 94.919 283.045,94.211 284.741,93.837 286.229 C 93.463 287.718,92.730 289.443,92.208 290.064 C 91.686 290.684,91.054 292.175,90.805 293.376 C 90.556 294.577,89.885 296.244,89.315 297.080 C 88.271 298.610,86.800 302.283,86.800 303.359 C 86.800 303.678,86.324 304.505,85.741 305.197 C 85.150 305.900,84.351 307.691,83.931 309.257 C 83.518 310.799,82.816 312.552,82.371 313.153 C 81.927 313.755,81.208 315.668,80.774 317.406 C 80.339 319.144,79.634 320.938,79.207 321.393 C 78.779 321.848,78.139 323.386,77.784 324.810 C 77.430 326.235,76.635 328.120,76.018 329.000 C 75.401 329.880,74.600 331.770,74.238 333.200 C 73.877 334.630,73.229 336.282,72.800 336.871 C 72.370 337.460,71.657 339.246,71.216 340.841 C 70.774 342.435,69.974 344.383,69.438 345.170 C 68.902 345.956,68.158 347.837,67.786 349.350 C 67.413 350.862,66.690 352.716,66.178 353.470 C 65.667 354.224,65.047 355.866,64.800 357.120 C 64.553 358.374,64.084 360.098,63.758 360.952 C 62.470 364.321,63.887 375.695,66.002 378.969 C 66.440 379.646,67.162 380.956,67.608 381.880 C 68.055 382.804,68.944 383.933,69.586 384.390 C 70.228 384.847,70.866 385.578,71.005 386.015 C 71.143 386.451,71.773 387.076,72.405 387.402 C 73.036 387.729,73.865 388.525,74.247 389.172 C 74.630 389.820,75.315 390.444,75.771 390.561 C 76.227 390.677,77.553 391.389,78.717 392.141 C 80.485 393.285,81.803 393.699,86.717 394.655 L 92.600 395.800 209.200 395.800 L 325.800 395.800 328.600 394.923 C 330.140 394.440,332.244 393.936,333.275 393.802 C 334.306 393.668,335.801 393.116,336.598 392.576 C 337.395 392.035,338.752 391.232,339.615 390.792 C 340.478 390.352,341.460 389.457,341.799 388.803 C 342.137 388.149,342.938 387.342,343.578 387.011 C 344.219 386.680,344.858 386.047,344.999 385.604 C 345.139 385.162,345.871 384.329,346.625 383.754 C 347.579 383.026,348.173 382.114,348.575 380.759 C 348.893 379.688,349.698 378.133,350.363 377.305 C 353.338 373.602,353.021 362.750,349.853 359.814 C 349.336 359.335,348.516 357.750,348.031 356.293 C 347.546 354.836,346.798 353.197,346.370 352.652 C 345.941 352.107,345.251 350.303,344.836 348.644 C 344.421 346.985,343.704 345.016,343.242 344.268 C 342.780 343.520,342.068 341.579,341.661 339.954 C 341.253 338.329,340.449 336.100,339.874 335.000 C 339.299 333.900,338.618 332.014,338.361 330.808 C 338.105 329.603,337.500 327.983,337.018 327.208 C 335.886 325.390,335.668 324.773,334.961 321.400 C 334.638 319.860,333.948 317.785,333.429 316.788 C 332.909 315.791,332.209 313.518,331.873 311.736 C 331.537 309.954,330.809 307.602,330.255 306.509 C 329.702 305.417,328.956 302.962,328.599 301.054 C 328.241 299.146,327.510 296.627,326.974 295.456 C 326.438 294.285,325.831 292.534,325.626 291.564 C 324.960 288.425,324.541 287.016,323.493 284.384 C 322.927 282.963,322.259 280.664,322.010 279.275 C 321.760 277.886,321.039 275.456,320.407 273.875 C 319.776 272.294,318.988 269.830,318.658 268.400 C 318.327 266.970,317.611 264.990,317.065 264.000 C 316.520 263.010,315.866 261.174,315.613 259.920 C 315.359 258.666,314.724 257.010,314.201 256.240 C 313.679 255.470,312.715 253.681,312.059 252.264 C 311.403 250.848,310.657 249.559,310.400 249.400 C 310.144 249.242,309.597 248.326,309.186 247.366 C 307.394 243.186,302.674 240.017,295.769 238.357 C 293.189 237.737,286.098 240.107,283.076 242.600 C 282.275 243.260,280.797 244.430,279.790 245.200 C 278.783 245.970,277.384 247.146,276.680 247.814 C 275.976 248.482,274.770 249.471,274.000 250.011 C 272.604 250.992,266.255 256.512,263.600 259.054 C 260.543 261.981,244.022 278.461,241.240 281.359 C 238.152 284.575,236.316 285.842,235.488 285.331 C 234.990 285.024,226.052 276.396,224.858 275.069 C 224.496 274.667,221.993 272.057,219.296 269.269 C 213.443 263.218,214.071 263.860,212.600 262.438 C 211.940 261.800,210.770 260.533,210.000 259.622 C 209.230 258.711,207.925 257.295,207.100 256.474 C 206.275 255.654,205.600 254.769,205.600 254.508 C 205.600 254.247,204.970 253.531,204.200 252.917 C 203.430 252.303,202.800 251.571,202.800 251.291 C 202.800 251.011,202.107 250.021,201.261 249.091 C 200.415 248.161,199.237 246.561,198.644 245.536 C 198.052 244.511,197.296 243.569,196.965 243.442 C 196.634 243.315,196.101 242.582,195.780 241.813 C 195.459 241.045,194.764 240.133,194.236 239.787 C 193.708 239.441,193.164 238.713,193.028 238.169 C 192.891 237.625,192.178 236.509,191.443 235.690 C 190.707 234.870,189.721 233.441,189.252 232.513 C 188.782 231.586,188.039 230.635,187.600 230.400 C 187.161 230.165,186.444 229.271,186.007 228.413 C 185.569 227.555,184.889 226.616,184.496 226.326 C 184.104 226.037,183.449 225.047,183.042 224.126 C 182.635 223.205,181.810 221.945,181.209 221.326 C 180.608 220.707,179.740 219.345,179.281 218.300 C 178.821 217.255,178.245 216.400,178.000 216.400 C 177.756 216.400,177.100 215.404,176.542 214.186 C 175.984 212.968,175.089 211.684,174.552 211.332 C 174.015 210.980,173.199 209.816,172.739 208.746 C 172.278 207.676,171.761 206.800,171.589 206.800 C 171.417 206.800,170.781 205.945,170.176 204.900 C 169.082 203.010,167.730 201.253,165.019 198.200 C 163.641 196.648,163.253 196.249,160.089 193.133 C 158.827 191.890,155.068 190.226,154.027 190.449 C 153.902 190.476,152.720 190.651,151.400 190.839 M155.999 193.060 C 156.903 193.241,157.541 193.732,158.100 194.680 C 158.597 195.522,159.312 196.122,159.977 196.255 C 160.692 196.398,161.198 196.859,161.490 197.633 C 161.732 198.273,162.485 199.112,163.163 199.498 C 163.891 199.912,164.579 200.744,164.839 201.526 C 165.081 202.256,165.878 203.451,166.609 204.183 C 167.341 204.914,168.313 206.246,168.771 207.143 C 169.228 208.040,169.941 208.955,170.355 209.176 C 170.769 209.398,171.231 210.068,171.381 210.666 C 171.531 211.264,172.377 212.661,173.261 213.772 C 174.146 214.883,175.107 216.361,175.398 217.057 C 175.689 217.753,176.283 218.436,176.719 218.574 C 177.240 218.740,177.663 219.426,177.953 220.579 C 178.196 221.544,178.914 222.852,179.549 223.487 C 180.183 224.122,181.070 225.361,181.519 226.242 C 181.968 227.122,182.775 228.042,183.311 228.287 C 183.920 228.564,184.378 229.192,184.532 229.958 C 184.667 230.633,185.239 231.587,185.803 232.077 C 186.367 232.567,187.227 233.768,187.714 234.745 C 188.201 235.723,189.077 236.875,189.660 237.307 C 190.243 237.738,191.026 238.770,191.400 239.599 C 191.774 240.429,192.489 241.294,192.989 241.522 C 193.488 241.750,194.025 242.445,194.181 243.066 C 194.337 243.688,195.070 244.935,195.810 245.839 C 196.551 246.742,197.461 248.121,197.834 248.902 C 198.206 249.683,198.929 250.513,199.439 250.745 C 199.950 250.978,200.732 251.882,201.177 252.755 C 201.622 253.628,202.353 254.458,202.800 254.600 C 203.248 254.742,203.872 255.476,204.187 256.232 C 204.503 256.988,205.197 257.771,205.730 257.973 C 206.263 258.176,206.807 258.775,206.940 259.305 C 207.073 259.834,209.005 262.142,211.233 264.434 C 213.462 266.725,217.464 270.940,220.127 273.800 C 222.790 276.660,225.156 279.121,225.385 279.270 C 225.613 279.418,227.595 281.263,229.788 283.371 C 231.982 285.478,234.142 287.312,234.588 287.447 C 235.035 287.582,235.760 288.009,236.200 288.397 C 236.640 288.785,237.482 289.350,238.070 289.651 C 239.000 290.128,242.062 292.769,246.609 297.015 C 248.322 298.614,251.401 301.199,252.787 302.200 C 254.601 303.510,258.101 306.295,259.600 307.619 C 260.912 308.779,261.748 309.455,266.663 313.326 C 267.728 314.165,269.410 315.382,270.400 316.030 C 273.074 317.782,274.814 319.008,276.600 320.400 C 278.709 322.045,281.029 323.743,283.000 325.084 C 283.880 325.683,285.191 326.674,285.914 327.287 C 286.637 327.899,287.460 328.400,287.744 328.400 C 288.027 328.400,289.146 329.039,290.230 329.821 C 291.313 330.602,292.804 331.501,293.542 331.818 C 294.280 332.135,295.450 332.857,296.142 333.422 C 297.692 334.690,303.507 338.400,303.943 338.400 C 304.117 338.400,304.697 338.874,305.230 339.454 C 305.764 340.034,307.128 340.924,308.263 341.433 C 309.398 341.941,310.446 342.551,310.592 342.788 C 310.739 343.024,311.970 343.773,313.329 344.452 C 314.688 345.131,316.162 346.019,316.605 346.424 C 317.048 346.829,318.239 347.528,319.252 347.976 C 320.265 348.424,321.336 349.082,321.632 349.439 C 321.928 349.795,323.285 350.598,324.648 351.222 C 326.011 351.846,327.256 352.567,327.414 352.823 C 327.573 353.080,328.665 353.715,329.842 354.236 C 331.019 354.756,332.733 355.726,333.651 356.391 C 334.569 357.056,335.548 357.600,335.827 357.600 C 336.106 357.600,337.564 358.253,339.067 359.051 C 340.570 359.849,342.629 360.748,343.643 361.049 C 345.301 361.542,346.093 362.031,349.600 364.725 C 351.189 365.946,350.769 371.922,348.914 374.503 C 348.206 375.487,347.433 377.161,347.195 378.222 C 346.905 379.518,346.259 380.698,345.227 381.817 C 344.382 382.734,343.581 383.825,343.446 384.242 C 343.312 384.659,342.662 385.307,342.001 385.681 C 341.340 386.056,340.591 386.821,340.336 387.381 C 340.000 388.119,339.268 388.590,337.682 389.090 C 336.477 389.470,334.956 390.280,334.302 390.892 C 331.343 393.656,333.938 393.600,208.751 393.600 C 138.927 393.600,96.241 393.455,94.221 393.210 C 92.449 392.996,89.179 392.640,86.954 392.421 C 83.280 392.058,82.789 391.910,81.622 390.821 C 80.482 389.755,78.277 388.809,76.922 388.802 C 76.659 388.801,76.209 388.305,75.922 387.700 C 75.635 387.095,74.822 386.346,74.116 386.035 C 73.355 385.700,72.676 385.019,72.446 384.361 C 72.234 383.750,71.544 382.985,70.914 382.659 C 70.030 382.202,69.647 381.592,69.237 379.993 C 68.945 378.853,68.198 377.342,67.578 376.636 C 65.362 374.112,64.975 357.200,67.133 357.200 C 67.795 357.200,68.800 354.753,69.245 352.060 C 69.603 349.889,69.982 348.919,70.806 348.057 C 71.583 347.243,72.020 346.199,72.338 344.394 C 72.583 343.006,73.114 341.494,73.518 341.035 C 74.926 339.434,75.486 338.183,75.934 335.630 C 76.253 333.812,76.691 332.740,77.432 331.967 C 78.188 331.178,78.634 330.062,79.035 327.955 C 79.361 326.245,79.841 324.897,80.196 324.699 C 81.121 324.181,81.842 322.472,82.393 319.489 C 82.734 317.648,83.126 316.654,83.615 316.392 C 84.428 315.957,85.027 314.326,85.433 311.441 C 85.631 310.030,86.077 309.074,87.028 308.022 C 87.939 307.013,88.521 305.805,88.913 304.111 C 89.232 302.729,89.926 301.128,90.504 300.441 C 91.388 299.391,92.400 296.293,92.400 294.640 C 92.400 294.353,92.927 293.568,93.570 292.894 C 94.381 292.045,94.827 291.076,95.021 289.735 C 95.338 287.557,95.716 286.684,97.030 285.104 C 97.531 284.501,98.150 283.005,98.404 281.780 C 98.706 280.328,99.291 279.069,100.085 278.165 C 100.947 277.182,101.466 275.994,101.863 274.089 C 102.213 272.406,102.712 271.176,103.196 270.800 C 104.125 270.079,105.200 267.616,105.200 266.209 C 105.200 265.626,105.710 264.659,106.397 263.941 C 107.575 262.708,108.393 260.652,108.398 258.914 C 108.399 258.426,108.931 257.485,109.579 256.821 C 110.629 255.747,111.592 253.495,111.598 252.097 C 111.599 251.821,112.067 251.191,112.638 250.697 C 113.894 249.612,114.607 248.279,114.952 246.370 C 115.099 245.557,115.718 244.453,116.389 243.811 C 117.190 243.043,117.707 242.013,118.000 240.600 C 118.292 239.193,118.810 238.156,119.600 237.400 C 120.393 236.640,120.908 235.606,121.204 234.178 C 121.486 232.823,122.050 231.647,122.793 230.871 C 123.795 229.822,124.791 227.489,124.798 226.175 C 124.799 225.942,125.336 225.354,125.990 224.870 C 126.838 224.244,127.369 223.329,127.836 221.695 C 128.206 220.403,128.901 219.051,129.428 218.600 C 129.942 218.160,130.670 217.012,131.046 216.048 C 131.421 215.085,132.222 213.792,132.824 213.175 C 133.427 212.559,134.129 211.421,134.385 210.646 C 134.648 209.848,135.201 209.127,135.661 208.981 C 136.108 208.839,136.731 208.106,137.046 207.353 C 137.361 206.599,138.243 205.290,139.007 204.445 C 139.771 203.599,140.672 202.247,141.009 201.440 C 141.346 200.633,142.055 199.776,142.584 199.534 C 143.113 199.293,143.767 198.563,144.037 197.911 C 144.307 197.258,145.101 196.453,145.805 196.117 C 146.507 195.782,147.381 195.001,147.748 194.381 C 148.114 193.761,148.815 193.176,149.307 193.081 C 150.788 192.795,154.615 192.783,155.999 193.060 " stroke="none" fill="#9d2b3c" fill-rule="evenodd"></path><path id="path4" d="M272.706 16.398 C 272.104 16.580,270.991 17.111,270.232 17.580 C 269.294 18.160,267.459 18.616,264.485 19.006 C 259.662 19.640,259.073 19.801,257.562 20.903 C 256.867 21.409,255.090 21.848,252.198 22.227 C 249.124 22.631,247.168 23.131,245.436 23.956 C 243.945 24.667,241.992 25.217,240.400 25.376 C 237.182 25.696,235.245 26.276,234.189 27.235 C 233.692 27.687,232.220 28.144,230.389 28.415 C 224.586 29.276,223.256 29.646,221.562 30.873 C 220.430 31.694,218.606 32.414,216.077 33.040 C 211.420 34.194,211.466 34.145,214.315 34.944 C 217.977 35.972,297.496 35.943,299.238 34.914 C 303.127 32.617,295.264 20.200,289.024 18.784 C 287.911 18.532,286.550 18.013,286.000 17.632 C 283.771 16.085,276.106 15.374,272.706 16.398 M282.800 19.293 C 283.790 19.632,285.546 20.037,286.702 20.193 C 290.007 20.638,298.984 29.761,297.974 31.648 C 297.390 32.741,230.395 32.832,228.289 31.743 C 226.716 30.929,227.263 30.643,231.200 30.224 C 234.334 29.890,237.977 28.922,238.800 28.206 C 239.416 27.669,242.135 27.051,245.981 26.574 C 247.180 26.425,249.084 25.804,250.211 25.194 C 251.666 24.407,253.501 23.903,256.551 23.453 C 259.268 23.053,261.567 22.457,262.815 21.830 C 263.982 21.244,266.135 20.662,268.093 20.403 C 269.912 20.162,272.480 19.623,273.800 19.204 C 277.675 17.976,278.988 17.989,282.800 19.293 M83.257 42.828 C 82.299 43.018,81.297 43.354,81.030 43.575 C 80.577 43.951,78.615 44.420,75.104 44.991 C 74.179 45.142,72.912 45.838,71.780 46.817 C 70.774 47.688,69.758 48.400,69.522 48.400 C 68.753 48.400,65.268 52.263,64.604 53.851 C 64.249 54.703,63.514 55.864,62.971 56.430 C 61.201 58.278,61.240 54.679,61.197 220.730 C 61.154 386.309,61.125 383.214,62.764 384.964 C 63.194 385.424,63.915 386.661,64.365 387.714 C 65.267 389.824,68.300 393.128,70.252 394.129 C 70.940 394.482,71.606 395.038,71.731 395.364 C 72.077 396.267,73.912 397.049,76.871 397.556 C 78.341 397.808,80.321 398.366,81.271 398.798 C 83.667 399.885,331.375 400.035,334.200 398.951 C 335.080 398.613,337.240 398.023,339.000 397.639 C 342.396 396.899,343.768 396.329,344.283 395.447 C 344.457 395.148,345.354 394.523,346.275 394.057 C 347.195 393.591,348.262 392.680,348.644 392.033 C 349.026 391.386,349.670 390.770,350.075 390.664 C 350.499 390.554,351.257 389.480,351.861 388.136 C 352.438 386.851,353.221 385.440,353.600 385.000 C 355.288 383.040,355.237 388.294,355.208 221.206 C 355.180 57.339,355.194 58.843,353.602 57.402 C 353.161 57.002,352.800 56.513,352.800 56.313 C 352.800 55.387,350.677 51.600,350.157 51.600 C 349.836 51.600,349.206 50.978,348.757 50.218 C 348.309 49.457,347.575 48.719,347.127 48.577 C 346.678 48.434,345.643 47.714,344.826 46.976 C 343.069 45.389,342.144 44.999,339.200 44.606 C 337.990 44.444,336.190 43.927,335.200 43.456 L 333.400 42.600 209.200 42.542 C 140.890 42.510,84.216 42.639,83.257 42.828 M335.338 46.061 C 340.310 46.512,340.530 46.572,342.118 47.899 C 343.021 48.653,344.444 49.544,345.280 49.879 C 346.116 50.213,346.800 50.746,346.800 51.062 C 346.800 51.379,347.578 52.427,348.528 53.391 C 349.577 54.455,350.456 55.823,350.763 56.872 C 351.042 57.822,351.749 59.410,352.335 60.400 L 353.400 62.200 353.684 213.400 C 353.840 296.560,353.987 365.590,354.011 366.800 C 354.130 372.807,353.333 380.290,352.441 381.542 C 351.959 382.219,351.283 383.724,350.938 384.886 C 350.513 386.321,349.829 387.449,348.809 388.400 C 347.982 389.170,347.176 390.218,347.017 390.730 C 346.830 391.330,346.066 391.942,344.864 392.455 C 343.839 392.892,342.454 393.776,341.787 394.419 C 340.697 395.470,340.173 395.629,336.587 395.997 C 334.394 396.223,331.520 396.630,330.200 396.904 C 325.844 397.805,88.395 397.608,84.056 396.700 C 82.217 396.315,79.820 396.000,78.730 396.000 C 76.546 396.000,75.629 395.629,73.726 393.977 C 73.026 393.369,71.811 392.639,71.026 392.355 C 70.242 392.071,69.600 391.605,69.600 391.319 C 69.600 391.033,68.908 390.124,68.062 389.300 C 67.069 388.332,66.269 387.019,65.805 385.600 C 65.411 384.390,64.734 382.895,64.301 382.278 C 63.807 381.573,63.302 379.717,62.942 377.278 C 62.627 375.145,62.177 372.140,61.943 370.600 C 61.442 367.313,61.689 360.657,62.341 359.871 C 62.677 359.466,62.821 320.673,62.897 210.356 L 63.000 61.388 64.268 59.473 C 64.966 58.420,65.761 56.683,66.035 55.613 C 66.385 54.248,66.813 53.540,67.468 53.242 C 67.982 53.008,68.746 52.251,69.166 51.560 C 69.603 50.840,70.672 49.972,71.665 49.528 C 72.619 49.102,73.907 48.268,74.526 47.676 C 75.519 46.727,76.155 46.547,79.926 46.150 C 86.149 45.494,328.167 45.410,335.338 46.061 M46.200 77.268 C 44.399 77.503,42.397 78.127,40.589 79.017 C 39.043 79.778,37.387 80.400,36.909 80.400 C 34.876 80.400,31.933 81.341,30.564 82.428 C 29.755 83.072,28.397 83.785,27.547 84.014 C 26.633 84.260,25.654 84.901,25.150 85.582 C 24.682 86.215,23.968 86.820,23.563 86.926 C 23.157 87.032,22.518 87.765,22.141 88.555 C 21.764 89.345,21.128 90.096,20.727 90.223 C 19.785 90.522,19.310 91.446,18.750 94.069 C 18.500 95.241,17.876 96.700,17.364 97.312 C 15.589 99.429,15.696 108.684,17.535 112.200 C 18.010 113.107,18.641 115.620,18.993 118.000 C 19.394 120.717,19.971 122.898,20.627 124.177 C 21.284 125.458,21.837 127.551,22.199 130.128 C 22.542 132.571,23.140 134.893,23.751 136.152 C 24.736 138.179,25.156 139.776,26.023 144.774 C 26.268 146.189,26.889 148.169,27.402 149.174 C 27.976 150.299,28.507 152.381,28.785 154.600 C 29.099 157.099,29.615 158.993,30.475 160.792 C 31.350 162.625,31.822 164.378,32.086 166.775 C 32.433 169.937,32.778 171.060,34.181 173.600 C 34.485 174.150,34.944 176.384,35.202 178.565 C 35.718 182.941,36.088 184.208,37.199 185.400 C 37.727 185.967,38.125 187.496,38.562 190.641 C 39.248 195.577,39.397 196.119,40.494 197.703 C 40.996 198.427,41.449 200.261,41.815 203.043 C 42.217 206.111,42.646 207.750,43.368 208.982 C 44.047 210.141,44.558 211.973,44.971 214.731 C 45.343 217.224,45.956 219.529,46.565 220.731 C 47.195 221.975,47.715 223.977,47.997 226.242 C 48.843 233.059,50.248 235.299,51.701 232.149 L 52.600 230.200 52.704 154.304 C 52.808 78.744,52.805 78.405,52.004 77.604 C 51.136 76.736,50.538 76.701,46.200 77.268 M51.116 152.000 C 51.179 192.150,51.109 225.810,50.961 226.800 L 50.690 228.600 50.307 227.400 C 50.097 226.740,49.694 224.442,49.412 222.293 C 49.014 219.258,48.663 218.045,47.839 216.856 C 47.010 215.659,46.692 214.549,46.380 211.763 C 45.948 207.895,45.482 206.140,44.383 204.233 C 43.993 203.555,43.369 201.025,42.998 198.610 C 42.597 196.006,41.949 193.483,41.403 192.406 C 40.898 191.408,40.271 189.154,40.011 187.396 C 39.328 182.787,38.823 180.976,37.962 180.051 C 37.425 179.475,37.018 177.966,36.576 174.918 C 36.152 171.996,35.576 169.813,34.794 168.165 C 34.017 166.527,33.497 164.565,33.205 162.165 C 32.941 159.987,32.397 157.822,31.808 156.600 C 30.738 154.381,30.210 152.249,29.795 148.482 C 29.642 147.097,29.097 145.174,28.584 144.208 C 28.071 143.243,27.451 141.316,27.207 139.926 C 26.963 138.537,26.590 136.418,26.378 135.217 C 26.167 134.016,25.558 132.396,25.027 131.617 C 24.308 130.564,23.897 129.071,23.425 125.800 C 22.996 122.829,22.455 120.751,21.758 119.400 C 20.949 117.830,20.599 116.239,20.135 112.000 C 19.810 109.030,19.276 105.651,18.949 104.492 C 18.396 102.532,18.410 102.221,19.147 100.092 C 19.583 98.831,20.152 96.735,20.412 95.433 C 20.777 93.603,21.192 92.777,22.242 91.786 C 22.989 91.082,23.600 90.215,23.600 89.861 C 23.600 89.506,24.307 88.856,25.171 88.415 C 26.035 87.974,26.854 87.261,26.991 86.829 C 27.160 86.297,27.968 85.834,29.509 85.385 C 30.758 85.023,32.349 84.226,33.045 83.614 C 33.989 82.785,34.905 82.436,36.655 82.236 C 41.667 81.664,42.474 81.474,43.843 80.545 C 45.183 79.635,48.458 78.809,50.200 78.940 C 50.996 79.000,51.001 79.328,51.116 152.000 M365.028 276.101 C 363.250 278.814,362.871 357.097,364.624 359.446 C 365.735 360.932,366.104 360.992,367.450 359.899 C 368.082 359.386,369.637 358.648,370.905 358.261 C 372.522 357.766,373.412 357.234,373.885 356.478 C 374.255 355.885,375.399 354.491,376.427 353.379 C 377.455 352.267,378.434 350.917,378.603 350.379 C 378.771 349.841,379.309 348.922,379.797 348.338 C 382.595 344.989,382.214 328.623,379.203 322.885 C 378.629 321.790,378.167 319.911,377.925 317.685 C 377.717 315.768,377.289 313.705,376.974 313.100 C 376.658 312.495,376.117 311.460,375.770 310.799 C 375.424 310.138,374.907 307.930,374.623 305.892 C 374.287 303.490,373.739 301.485,373.065 300.193 C 372.343 298.811,371.836 296.852,371.410 293.800 C 371.020 291.003,370.532 289.036,370.071 288.400 C 369.003 286.927,368.836 286.311,368.203 281.491 C 367.460 275.834,366.391 274.020,365.028 276.101 M366.600 283.500 C 367.094 287.911,367.572 289.971,368.549 291.900 C 369.190 293.164,369.737 295.317,370.118 298.066 C 370.546 301.160,370.984 302.772,371.755 304.087 C 372.493 305.346,372.932 306.889,373.222 309.242 C 373.758 313.580,374.216 315.258,375.209 316.521 C 375.998 317.524,376.341 318.938,377.165 324.582 C 377.414 326.294,377.906 327.817,378.442 328.542 C 380.415 331.211,380.429 342.911,378.462 345.411 C 378.015 345.980,377.346 347.358,376.976 348.473 C 376.594 349.623,376.014 350.576,375.637 350.674 C 375.271 350.770,374.374 351.724,373.644 352.794 C 371.145 356.456,366.619 358.704,365.595 356.791 C 365.160 355.979,365.028 285.293,365.457 282.700 C 365.817 280.520,366.304 280.861,366.600 283.500 M100.130 406.687 C 97.891 406.968,96.744 410.702,98.429 412.226 C 98.900 412.652,99.652 413.720,100.101 414.600 C 100.550 415.480,101.926 417.138,103.159 418.285 C 104.391 419.432,105.888 420.841,106.483 421.417 C 107.079 421.993,108.519 422.815,109.683 423.244 C 110.848 423.673,112.767 424.501,113.948 425.084 C 116.655 426.420,123.666 426.647,125.914 425.472 C 126.621 425.102,127.701 424.536,128.313 424.214 C 128.925 423.892,131.024 423.447,132.977 423.225 C 135.439 422.945,137.277 422.464,138.965 421.659 C 140.313 421.015,142.471 420.378,143.800 420.231 C 147.814 419.787,150.305 419.190,151.276 418.438 C 152.397 417.569,153.205 417.364,157.668 416.813 C 161.046 416.397,161.932 416.103,164.000 414.715 C 164.550 414.346,166.836 413.770,169.081 413.435 C 173.188 412.823,174.500 412.378,177.353 410.633 C 178.207 410.111,179.917 409.482,181.153 409.235 C 185.247 408.419,185.351 407.646,181.480 406.813 C 179.658 406.421,103.198 406.303,100.130 406.687 M168.866 410.234 C 170.592 411.127,169.892 411.594,166.147 412.046 C 162.536 412.483,160.712 412.988,158.973 414.036 C 158.228 414.485,156.205 414.957,153.829 415.237 C 150.778 415.597,149.342 415.991,147.332 417.020 C 145.549 417.933,143.926 418.424,142.076 418.610 C 138.105 419.009,136.018 419.533,134.719 420.458 C 133.957 421.000,132.290 421.465,129.878 421.808 C 127.855 422.096,125.390 422.556,124.400 422.831 C 121.136 423.737,117.889 423.429,110.884 421.548 C 109.940 421.294,108.989 420.753,108.770 420.345 C 108.552 419.937,107.671 419.244,106.812 418.806 C 105.953 418.368,104.940 417.483,104.559 416.839 C 104.179 416.195,103.473 415.488,102.990 415.268 C 101.677 414.670,100.911 411.382,101.844 410.351 C 102.813 409.280,166.805 409.168,168.866 410.234 " stroke="none" fill="#340c14" fill-rule="evenodd"></path></g></svg>