<svg xmlns="http://www.w3.org/2000/svg" width="26.942" height="22.466" viewBox="0 0 26.942 22.466"><g transform="translate(1 1.057)"><g transform="translate(0 0)"><path d="M19.669,23.407H24.2v-4.9a1.134,1.134,0,0,0-.713-1.052l-4.242-1.7a1.134,1.134,0,0,1-.713-1.05v-1A4.515,4.515,0,0,0,20.8,9.8V7.535A4.535,4.535,0,0,0,14,3.607" transform="translate(0.739 -2.999)" fill="none" stroke="#fff" stroke-linecap="round" stroke-linejoin="round" stroke-miterlimit="10" stroke-width="2"/><path d="M16.159,18.454l-4.242-1.7A1.134,1.134,0,0,1,11.2,15.7v-1A4.515,4.515,0,0,0,13.471,10.8V8.535a4.535,4.535,0,1,0-9.07,0V10.8a4.515,4.515,0,0,0,2.267,3.906v1a1.134,1.134,0,0,1-.713,1.052l-4.242,1.7A1.134,1.134,0,0,0,1,19.506v3.767H16.872V19.506a1.134,1.134,0,0,0-.713-1.052Z" transform="translate(-1 -2.865)" fill="none" stroke="#fff" stroke-linecap="round" stroke-linejoin="round" stroke-miterlimit="10" stroke-width="2"/></g></g></svg>