<svg xmlns="http://www.w3.org/2000/svg" width="28.716" height="23.921" viewBox="0 0 28.716 23.921">
  <g id="users-mm" transform="translate(0 -1.938)">
    <g id="Group_8689" data-name="Group 8689" transform="translate(1 2.999)">
      <path id="Path_6866" data-name="Path 6866" d="M20.072,24.859h4.857v-5.25a1.214,1.214,0,0,0-.764-1.127l-4.544-1.822a1.214,1.214,0,0,1-.764-1.125V14.47a4.836,4.836,0,0,0,2.429-4.183V7.858A4.857,4.857,0,0,0,14,3.65" transform="translate(1.787 -2.999)" fill="none" stroke="#fff" stroke-linecap="square" stroke-miterlimit="10" stroke-width="2"/>
      <path id="Path_6867" data-name="Path 6867" d="M17.237,19.482,12.693,17.66a1.214,1.214,0,0,1-.764-1.125V15.47a4.836,4.836,0,0,0,2.429-4.183V8.857a4.857,4.857,0,1,0-9.715,0v2.429A4.836,4.836,0,0,0,7.072,15.47v1.066a1.214,1.214,0,0,1-.764,1.127L1.764,19.484A1.214,1.214,0,0,0,1,20.609v4.035H18V20.609a1.214,1.214,0,0,0-.764-1.127Z" transform="translate(-1 -2.784)" fill="none" stroke="#fff" stroke-linecap="square" stroke-miterlimit="10" stroke-width="2"/>
    </g>
  </g>
</svg>
