<svg id="wallet-43" xmlns="http://www.w3.org/2000/svg" width="28.852" height="28.852" viewBox="0 0 28.852 28.852">
  <g id="Сгруппировать_8609" data-name="Сгруппировать 8609" transform="translate(1 1)">
    <path id="Контур_6843" data-name="Контур 6843" d="M25.411,13.985V5.441H3.441A2.44,2.44,0,0,1,1,3V23.75a3.661,3.661,0,0,0,3.662,3.662h20.75V18.867" transform="translate(-1 -0.559)" fill="none" stroke="#fff" stroke-linecap="square" stroke-miterlimit="10" stroke-width="2"/>
    <path id="Контур_6844" data-name="Контур 6844" d="M20.529,2.221V1H3.441A2.44,2.44,0,0,0,1,3.441H1A2.44,2.44,0,0,0,3.441,5.882" transform="translate(-1 -1)" fill="none" stroke="#fff" stroke-linecap="square" stroke-miterlimit="10" stroke-width="2"/>
    <path id="Контур_6845" data-name="Контур 6845" d="M24.544,16.882h-6.1A2.44,2.44,0,0,1,16,14.441h0A2.44,2.44,0,0,1,18.441,12h6.1Z" transform="translate(2.308 1.426)" fill="none" stroke="#fff" stroke-linecap="square" stroke-miterlimit="10" stroke-width="2"/>
  </g>
</svg>
