<svg id="Group_8575" data-name="Group 8575" xmlns="http://www.w3.org/2000/svg" width="107.721" height="28.706" viewBox="0 0 107.721 28.706">
  <path id="Path_5302" data-name="Path 5302" d="M154.986,234.352h9.647l2.2,9.255,2.215-9.255h9.647l-7.236,20.079q-2.882,8.039-9.647,8.039a15.166,15.166,0,0,1-2.442-.2,9.907,9.907,0,0,1-1.775-.412l-.588-.2v-8.02a4.543,4.543,0,0,0,2,.392,3.7,3.7,0,0,0,1.549-.3,2.224,2.224,0,0,0,.863-.578l.2-.314Z" transform="translate(-154.986 -233.764)" fill="#fff"/>
  <path id="Path_5303" data-name="Path 5303" d="M230.034,251.626c-.052.078-.121.18-.206.3a6.066,6.066,0,0,1-.608.667,7.966,7.966,0,0,1-1.02.863,5.363,5.363,0,0,1-1.461.676,6.35,6.35,0,0,1-1.941.294,6.251,6.251,0,0,1-4.882-2.186,8.461,8.461,0,0,1-1.941-5.833V234.352h9.235V244a1.663,1.663,0,0,0,.4,1.167,1.307,1.307,0,0,0,1.01.441,1.262,1.262,0,0,0,.951-.579,2.207,2.207,0,0,0,.461-1.422v-9.255h9.235v19.686h-9.235Z" transform="translate(-192.681 -233.764)" fill="#fff"/>
  <path id="Path_5304" data-name="Path 5304" d="M292.7,240.514a2.494,2.494,0,0,0-1.8-.8q-1.2,0-1.2.8,0,.274,1.127.676t2.491.883a5.849,5.849,0,0,1,2.49,1.8,4.859,4.859,0,0,1,1.127,3.265,5.787,5.787,0,0,1-2.49,4.676,11.034,11.034,0,0,1-6.961,1.951,15.319,15.319,0,0,1-3.725-.441,11.588,11.588,0,0,1-2.872-1.069,18.5,18.5,0,0,1-1.912-1.226,6.182,6.182,0,0,1-1.157-1.049l-.373-.431,4.02-4.216a3.625,3.625,0,0,0,3.02,1.608q1.2,0,1.2-.8,0-.236-.745-.52t-1.8-.667a13.743,13.743,0,0,1-2.127-.99,5.076,5.076,0,0,1-1.814-1.834,5.343,5.343,0,0,1-.745-2.833,5.575,5.575,0,0,1,2.471-4.51,10.832,10.832,0,0,1,6.765-1.9,15.211,15.211,0,0,1,3.392.363,11.486,11.486,0,0,1,2.578.863,19.346,19.346,0,0,1,1.735.981,5.335,5.335,0,0,1,1.059.833l.274.373Z" transform="translate(-229.298 -232.887)" fill="#fff"/>
  <path id="Path_5305" data-name="Path 5305" d="M340.757,245.122a4.467,4.467,0,0,0,.235.4,2.605,2.605,0,0,0,.98.628,4.724,4.724,0,0,0,2,.382,5.485,5.485,0,0,0,1.647-.265,9.34,9.34,0,0,0,1.314-.5l.451-.235,3.215,6.02q-.352.236-1.02.6a17.22,17.22,0,0,1-2.813.99,15.626,15.626,0,0,1-4.4.628,11.474,11.474,0,0,1-8.177-3.078,9.769,9.769,0,0,1-3.274-7.373,9.878,9.878,0,0,1,3.138-7.421,10.956,10.956,0,0,1,7.9-3.01,11.123,11.123,0,0,1,7.9,2.951,9.362,9.362,0,0,1,3.157,7.088,6.058,6.058,0,0,1-.108,1.186,7.2,7.2,0,0,1-.186.775l-.118.235Zm-.108-5.451a2.756,2.756,0,0,0-.7,1.451h4.02a2.721,2.721,0,0,0-.706-1.451,1.762,1.762,0,0,0-1.314-.569A1.732,1.732,0,0,0,340.649,239.671Z" transform="translate(-261.705 -232.887)" fill="#fff"/>
  <path id="Path_5306" data-name="Path 5306" d="M407.74,243.022a4.733,4.733,0,0,0-2-.412,3.442,3.442,0,0,0-2.657,1.049,4.215,4.215,0,0,0-.971,2.971v6.823h-9.235V233.767h9.235v2.411c.053-.078.121-.176.206-.294a7.165,7.165,0,0,1,.608-.657,7.955,7.955,0,0,1,1.02-.863,5.549,5.549,0,0,1,1.461-.686,6.091,6.091,0,0,1,1.922-.3h.412Z" transform="translate(-300.019 -233.179)" fill="#fff"/>
</svg>
