<svg xmlns="http://www.w3.org/2000/svg" width="152.054" height="25" viewBox="0 0 152.054 25"><g transform="translate(-31.946 -185.5)"><g transform="translate(-203.5 164.243)"><g transform="translate(80.46 -211.63)"><path d="M154.986,234.352h8.4l1.913,8.06,1.929-8.06h8.4l-6.3,17.486q-2.51,7-8.4,7a13.205,13.205,0,0,1-2.126-.171,8.63,8.63,0,0,1-1.545-.359l-.512-.171v-6.984a3.956,3.956,0,0,0,1.742.342,3.222,3.222,0,0,0,1.349-.265,1.937,1.937,0,0,0,.751-.5l.171-.273Z" transform="translate(0 -0.953)" fill="#fff"/><path d="M228.477,249.4q-.068.1-.179.265a5.285,5.285,0,0,1-.529.581,6.937,6.937,0,0,1-.888.752,4.672,4.672,0,0,1-1.272.589,5.53,5.53,0,0,1-1.691.256,5.444,5.444,0,0,1-4.252-1.9,7.369,7.369,0,0,1-1.691-5.08v-10.5h8.043v8.4a1.448,1.448,0,0,0,.35,1.016,1.138,1.138,0,0,0,.879.384,1.1,1.1,0,0,0,.828-.5,1.922,1.922,0,0,0,.4-1.238v-8.06h8.043V251.5h-8.043Z" transform="translate(-40.96 -0.953)" fill="#fff"/><path d="M290.733,239.53a2.172,2.172,0,0,0-1.571-.7q-1.041,0-1.041.7,0,.239.982.589t2.169.769a5.094,5.094,0,0,1,2.169,1.571,4.232,4.232,0,0,1,.982,2.843,5.04,5.04,0,0,1-2.169,4.073,9.609,9.609,0,0,1-6.062,1.7,13.341,13.341,0,0,1-3.244-.384,10.092,10.092,0,0,1-2.5-.931,16.115,16.115,0,0,1-1.665-1.067,5.385,5.385,0,0,1-1.008-.913l-.325-.376,3.5-3.671a3.157,3.157,0,0,0,2.63,1.4q1.041,0,1.042-.7,0-.205-.649-.453T282.4,243.4a11.968,11.968,0,0,1-1.853-.862,4.42,4.42,0,0,1-1.58-1.6,4.653,4.653,0,0,1-.649-2.467,4.855,4.855,0,0,1,2.152-3.928,9.433,9.433,0,0,1,5.892-1.656,13.247,13.247,0,0,1,2.954.316,10,10,0,0,1,2.246.751,16.842,16.842,0,0,1,1.511.854,4.645,4.645,0,0,1,.922.726l.239.325Z" transform="translate(-80.528 0)" fill="#fff"/><path d="M339.487,243.543a3.888,3.888,0,0,0,.2.35,2.269,2.269,0,0,0,.854.547,4.115,4.115,0,0,0,1.742.333,4.776,4.776,0,0,0,1.434-.23,8.131,8.131,0,0,0,1.144-.435l.393-.2,2.8,5.242q-.307.205-.888.521a15,15,0,0,1-2.45.862,13.609,13.609,0,0,1-3.834.547,9.993,9.993,0,0,1-7.121-2.681,8.508,8.508,0,0,1-2.852-6.421,8.6,8.6,0,0,1,2.732-6.463,9.541,9.541,0,0,1,6.882-2.621,9.687,9.687,0,0,1,6.882,2.57,8.153,8.153,0,0,1,2.749,6.173,5.277,5.277,0,0,1-.094,1.033,6.278,6.278,0,0,1-.162.675l-.1.2Zm-.094-4.747a2.4,2.4,0,0,0-.606,1.264h3.5a2.37,2.37,0,0,0-.615-1.264,1.535,1.535,0,0,0-1.144-.5A1.509,1.509,0,0,0,339.393,238.8Z" transform="translate(-115.654 0)" fill="#fff"/><path d="M405.821,241.777a4.122,4.122,0,0,0-1.742-.358,3,3,0,0,0-2.314.914,3.671,3.671,0,0,0-.845,2.587v5.943h-8.043V233.717h8.043v2.1c.046-.068.105-.154.179-.256a6.247,6.247,0,0,1,.529-.572,6.93,6.93,0,0,1,.888-.751,4.833,4.833,0,0,1,1.272-.6,5.3,5.3,0,0,1,1.673-.265h.359Z" transform="translate(-157.021 -0.317)" fill="#fff"/></g><path d="M228.477,249.4q-.068.1-.179.265a5.285,5.285,0,0,1-.529.581,6.937,6.937,0,0,1-.888.752,4.672,4.672,0,0,1-1.272.589,5.53,5.53,0,0,1-1.691.256,5.444,5.444,0,0,1-4.252-1.9,7.369,7.369,0,0,1-1.691-5.08v-10.5h8.043v8.4a1.448,1.448,0,0,0,.35,1.016,1.138,1.138,0,0,0,.879.384,1.1,1.1,0,0,0,.828-.5,1.922,1.922,0,0,0,.4-1.238v-8.06h8.043V251.5h-8.043Z" transform="translate(39.5 -213.095)" fill="#fff"/></g><g transform="translate(-117.014 -82.74)" style="isolation:isolate"><g transform="translate(244.912 268.24)" style="isolation:isolate"><path d="M247.912,268.24h5.433a10.3,10.3,0,0,1,2.084.219,5.692,5.692,0,0,1,1.893.747,4.128,4.128,0,0,1,1.365,1.428,4.437,4.437,0,0,1,.528,2.267,3.824,3.824,0,0,1-.881,2.51,4.129,4.129,0,0,1-2.355,1.4v.051a4.808,4.808,0,0,1,2.942,1.378,4.3,4.3,0,0,1,1.168,3.179,4.467,4.467,0,0,1-1.824,3.669,6.509,6.509,0,0,1-2.132,1.018,10.281,10.281,0,0,1-2.827.359h-5.395Zm1.853,7.982H253.5a6.166,6.166,0,0,0,1.352-.153,3.789,3.789,0,0,0,1.248-.528,2.808,2.808,0,0,0,.915-.992,3.053,3.053,0,0,0,.347-1.518,2.931,2.931,0,0,0-.347-1.481,2.887,2.887,0,0,0-.94-.992,4.043,4.043,0,0,0-1.39-.553,8.284,8.284,0,0,0-1.7-.168h-3.218Zm0,8.652h3.451a9.263,9.263,0,0,0,1.918-.194,4.917,4.917,0,0,0,1.6-.618,3.291,3.291,0,0,0,1.095-1.107,3.527,3.527,0,0,0-.812-4.325,5.819,5.819,0,0,0-3.462-.888h-3.786Z" transform="translate(-247.912 -268.24)" fill="#dc36c3"/><path d="M265.04,284.822H274.8v1.647H263.186V268.24h11.3v1.649H265.04v6.255h8.831v1.649H265.04Z" transform="translate(-249.515 -268.24)" fill="#dc36c3"/><path d="M283.267,286.469h-1.854v-16.58h-6.1V268.24H289.37v1.649h-6.1Z" transform="translate(-249.153 -268.24)" fill="#dc36c3"/><path d="M289.42,286.469h-2.034l7.879-18.229h1.8l7.827,18.229h-2.06l-2.008-4.789H291.4Zm2.678-6.487h8.033l-4.017-9.682Z" transform="translate(-248.792 -268.24)" fill="#dc36c3"/></g></g></g></svg>