<svg width="1405" height="970" viewBox="0 0 1405 970" fill="none" xmlns="http://www.w3.org/2000/svg">
<path d="M1240.87 79.0466C1258.63 79.0466 1273.03 61.3829 1273.03 39.5935C1273.03 17.8042 1258.63 0.140503 1240.87 0.140503C1223.1 0.140503 1208.7 17.8042 1208.7 39.5935C1208.7 61.3829 1223.1 79.0466 1240.87 79.0466Z" fill="#4F0C55"/>
<path d="M1121.41 176.873L1137.29 154.804L1136.05 153.414L1134.53 126.471L1148.99 106.272L1170.93 104.467L1172.34 106.061L1184.57 89.2782C1184.57 89.2782 1188.46 80.915 1188 68.9058C1187.54 56.8965 1180.04 48.8932 1180.04 48.8932L1163.28 25.2906L1120.84 1.48036L998.721 1.06506C979.647 1.06506 964.184 19.8918 964.071 43.2867L963.846 139.358L1094.88 139.774L1121.41 176.873Z" fill="#291852"/>
<path d="M1388.72 342.62L1288.49 201.558L1287.59 201.005L1287.82 200.451L1233.64 124.175C1222.02 107.84 1201.36 107.702 1189.62 123.898L1188.49 125.421L1189.74 126.805L1191.2 153.661L1176.76 173.872L1154.86 175.672L1153.39 174.01L1082.74 272.02C1070.44 289.047 1080.26 315.903 1098.77 315.903L1220.21 316.18L1246.28 352.864H969.197V429.555C969.197 463.61 991.77 491.296 1019.54 491.296H1360.28L1368.74 491.573L1397.18 417.927C1406.89 393.009 1403.5 363.523 1388.72 342.62Z" fill="#4E1530"/>
<path d="M898.771 73.9137C919.143 73.9137 935.658 57.399 935.658 37.0272C935.658 16.6553 919.143 0.140625 898.771 0.140625C878.399 0.140625 861.885 16.6553 861.885 37.0272C861.885 57.399 878.399 73.9137 898.771 73.9137Z" fill="#500C55"/>
<path d="M835.481 33.662C835.481 15.5423 820.726 0.78772 802.607 0.78772H643.283C634.87 0.78772 626.846 4.15281 620.892 10.1064L583.229 47.7695C570.804 60.1945 570.804 80.2556 583.229 92.6805L629.822 139.274C642.247 151.699 662.308 151.699 674.733 139.274L683.793 130.214C690.523 122.19 700.748 117.142 712.008 117.142C732.458 117.142 748.895 133.709 748.895 154.029C748.895 174.349 732.328 191.045 712.008 191.045C709.937 191.045 707.996 190.915 706.055 190.527V322.154C706.055 333.025 719.515 338.202 726.892 330.178L835.481 210.329V33.662Z" fill="#4F1530"/>
<path d="M872.106 362.017C866.282 362.017 861.493 357.228 861.493 351.404V252.781C861.493 242.297 848.68 237.379 841.561 245.145L732.066 366.029V423.494C732.066 461.158 762.611 491.573 800.145 491.573H868.352C888.802 491.573 905.498 475.006 905.498 454.427V395.538C905.368 376.901 890.484 362.017 872.106 362.017Z" fill="#6A183F"/>
<path d="M678.746 407.575L632.929 456.369C619.08 469.959 628.658 493.514 648.072 493.514H694.018C705.925 493.514 715.632 483.807 715.632 471.9V423.236C715.632 403.951 692.465 394.244 678.746 407.575Z" fill="#6A183F"/>
<path d="M583.425 345.477V396.487C583.425 408.968 573.251 419.143 560.77 419.143H512.609C492.259 419.143 482.22 394.452 496.736 380.207L544.897 329.198C559.277 315.089 583.425 325.263 583.425 345.477Z" fill="#6B1840"/>
<path d="M472.179 105.626L442.198 36.8449C432.701 15.0033 411.131 0.894409 387.39 0.894409H201.94C199.769 0.894409 197.598 1.3014 195.564 2.25103L150.659 22.6004C150.252 22.7361 149.845 23.0074 149.574 23.143L253.356 140.22C254.305 141.034 255.119 141.983 255.798 142.933L258.24 145.782L258.104 145.917C267.058 153.65 272.484 165.317 271.535 178.205C270.178 197.062 254.984 212.392 236.127 213.884C233.278 214.156 230.429 214.02 227.58 213.613C217.812 212.256 207.909 215.648 201.533 223.109L125.426 310.747C116.337 321.193 123.798 337.473 137.5 337.473H281.98L469.33 122.448C473.536 117.835 474.621 111.324 472.179 105.626Z" fill="#291852"/>
<path d="M255.658 143.204C256.065 143.882 256.472 144.425 256.879 145.103C257.286 145.375 257.693 145.782 258.1 146.053L258.236 145.917L255.658 143.204Z" fill="#201443"/>
<path d="M194.208 176.986L209.131 159.892C216.321 151.753 216.185 139.543 208.995 131.403L130.853 43.2216L5.9065 186.075C5.9065 186.211 5.77084 186.211 5.77084 186.347C-2.91164 196.386 4.54986 211.852 17.7092 211.852H128.818C150.931 211.852 172.095 202.219 186.611 185.668L194.208 176.986Z" fill="#291852"/>
<path d="M257.426 146.596L257.969 146.189C257.562 145.918 257.155 145.511 256.748 145.239C257.019 145.646 257.291 146.053 257.426 146.596Z" fill="#220E3E"/>
<path d="M525.362 235.183L473.81 190.957C467.298 185.395 457.531 186.073 451.969 192.585L309.116 359.179C306.131 362.57 301.926 364.605 297.313 364.605H294.871H78.4899L64.788 380.342C60.8538 384.954 59.9042 391.466 62.3461 396.893L93.8198 465.945C103.316 486.837 124.072 500.268 147.135 500.268H332.314C334.485 500.268 336.791 499.725 338.826 498.911L384.137 478.019C386.172 477.069 387.936 475.713 389.428 474.085L419.41 439.084L414.254 434.471L412.491 408.153L429.855 388.346L456.174 386.582L460.922 390.788L531.06 309.119C549.781 287.006 547.203 254.04 525.362 235.183Z" fill="#6B1840"/>
<path d="M438.772 949.668L427.026 941.776L420.975 946.993L386.449 948.732L360.465 931.61L358.151 905.66L364.558 900.176L285.362 847.339C274.328 839.982 259.912 835.836 245.141 835.836L35.1371 835.836C18.7639 835.836 5.41623 845.868 5.41623 858.174L5.41622 912.75C5.41622 944.184 39.2304 969.599 81.0532 969.599L428.805 969.599C442.687 969.599 449.272 956.624 438.772 949.668Z" fill="#6A183F"/>
<path d="M679.744 942.311L679.744 856.301C679.744 845.467 668.176 836.772 653.761 836.772L590.759 836.772L590.404 836.504C580.259 844.263 566.022 848.811 550.182 848.008C525.267 846.67 505.156 831.421 503.376 812.828C503.199 810.153 503.199 807.478 503.732 804.936C506.402 789.821 499.283 774.706 484.156 764.54L386.273 698.193C377.374 692.174 383.069 681.071 394.993 681.071L651.269 681.071C665.685 681.071 677.253 672.377 677.253 661.542L677.253 609.775C677.253 575.264 640.057 547.308 594.141 547.308L147.616 547.308C147.616 547.308 132.132 550.518 128.573 556.002L75.5381 640.14C68.9533 650.573 72.1567 663.013 83.5467 670.771L491.453 948.598C511.385 962.242 537.369 969.733 564.242 969.733L643.438 969.733C663.549 969.599 679.744 957.427 679.744 942.311Z" fill="#500C56"/>
<path d="M118.783 780.19L51.8661 732.704C33.1793 718.391 0.788864 728.29 0.788863 748.354L0.78886 795.84C0.788859 808.147 14.1366 818.179 30.5098 818.179L97.4262 818.179C123.766 818.179 137.291 794.369 118.783 780.19Z" fill="#6A183F"/>
<path d="M966.943 567.372L978.689 575.264L984.74 570.047L1019.27 568.308L1045.25 585.43L1047.56 611.38L1041.16 616.865L1120.35 669.701C1131.39 677.058 1145.8 681.205 1160.57 681.205L1370.58 681.205C1386.95 681.205 1400.3 671.173 1400.3 658.866L1400.3 604.291C1400.3 572.856 1366.48 547.441 1324.66 547.441L976.91 547.441C963.028 547.441 956.443 560.416 966.943 567.372Z" fill="#69173E"/>
<path d="M725.971 574.729L725.971 660.739C725.971 671.574 737.539 680.269 751.954 680.269L814.955 680.269L815.311 680.536C825.456 672.778 839.693 668.23 855.532 669.032C880.448 670.37 900.559 685.619 902.338 704.212C902.516 706.887 902.516 709.563 901.982 712.104C899.313 727.22 906.432 742.335 921.559 752.501L1019.44 818.848C1028.34 824.867 1022.65 835.969 1010.72 835.969L754.446 835.969C740.03 835.969 728.462 844.664 728.462 855.499L728.462 907.265C728.462 941.776 765.658 969.733 811.574 969.733L1258.1 969.733C1258.1 969.733 1273.58 966.523 1277.14 961.038L1330.18 876.901C1336.76 866.467 1333.56 854.027 1322.17 846.269L914.262 568.442C894.33 554.798 868.346 547.308 841.473 547.308L762.276 547.308C742.166 547.441 725.971 559.614 725.971 574.729Z" fill="#530A24"/>
<path d="M1286.93 736.851L1353.85 784.337C1372.54 798.649 1404.93 788.751 1404.93 768.686L1404.93 721.2C1404.93 708.894 1391.58 698.862 1375.21 698.862L1308.29 698.862C1281.95 698.862 1268.42 722.672 1286.93 736.851Z" fill="#69173E"/>
</svg>
