<svg xmlns="http://www.w3.org/2000/svg" width="48" height="40.419" viewBox="0 0 48 40.419">
  <g id="linktree-2" transform="translate(-0.193 -0.675)">
    <path id="Path_7808" data-name="Path 7808" d="M18.042,1.767a2.132,2.132,0,0,0-3.723,0L.4,27.014a1.912,1.912,0,0,0,1.78,2.751h9.389v9.548a1.8,1.8,0,0,0,1.781,1.78h5.5a1.8,1.8,0,0,0,1.78-1.78V29.765h-2.59a2.106,2.106,0,0,1-2.1-1.78,2.07,2.07,0,0,1,.162-.974l7.77-14.08Z" transform="translate(0)" fill="#fff"/>
    <path id="Path_7809" data-name="Path 7809" d="M408.689,1.767a2.132,2.132,0,0,1,3.723,0l13.921,25.247a1.912,1.912,0,0,1-1.78,2.751h-9.227v9.548a1.8,1.8,0,0,1-1.782,1.78h-5.826a1.8,1.8,0,0,1-1.78-1.78V29.765h2.59a2.106,2.106,0,0,0,2.1-1.78,2.07,2.07,0,0,0-.162-.974L402.7,12.934Z" transform="translate(-378.345)" fill="#fff"/>
  </g>
</svg>
