<svg xmlns="http://www.w3.org/2000/svg" width="48" height="38.8" viewBox="0 0 48 38.8">
  <defs><style>.a{fill:#fff;}</style></defs>
  <g id="Group_8999" data-name="Group 8999" transform="translate(0 -4.6)">
    <path id="Path_7805" data-name="Path 7805" d="M48,9.1a21.919,21.919,0,0,1-5.7,1.6,9.65,9.65,0,0,0,4.3-5.4,21.673,21.673,0,0,1-6.3,2.4,9.968,9.968,0,0,0-7.2-3.1,9.816,9.816,0,0,0-9.8,9.8,7.8,7.8,0,0,0,.3,2.2A28.018,28.018,0,0,1,3.3,6.3,10.234,10.234,0,0,0,2,11.2a9.793,9.793,0,0,0,4.4,8.2,11.571,11.571,0,0,1-4.5-1.2v.1A9.88,9.88,0,0,0,9.8,28a10.9,10.9,0,0,1-2.6.3,12.252,12.252,0,0,1-1.9-.2,9.79,9.79,0,0,0,9.2,6.8A20.007,20.007,0,0,1,2.3,39.1,16.95,16.95,0,0,1,0,39a27.827,27.827,0,0,0,15.1,4.4c18.1,0,28-15,28-28V14.1A17.958,17.958,0,0,0,48,9.1Z" />
  </g>
</svg>
